<!DOCTYPE svg PUBLIC "-//W3C//DTD SVG 20010904//EN" "http://www.w3.org/TR/2001/REC-SVG-20010904/DTD/svg10.dtd">
<svg version="1.0" xmlns="http://www.w3.org/2000/svg" width="1198px" height="1200px" viewBox="0 0 11980 12000" preserveAspectRatio="xMidYMid meet">
<g id="layer101" fill="#2b2a29" stroke="none">
 <path d="M5685 11994 c-468 -35 -747 -77 -1120 -168 -1176 -289 -2233 -923 -3034 -1821 -756 -847 -1265 -1909 -1446 -3015 -136 -837 -102 -1632 106 -2462 221 -885 657 -1724 1264 -2438 141 -165 516 -535 685 -676 928 -772 2022 -1242 3200 -1373 517 -58 988 -50 1507 24 1141 164 2236 668 3093 1424 131 116 380 363 504 501 403 448 747 974 996 1525 400 884 586 1871 530 2810 -89 1486 -704 2865 -1740 3906 -730 733 -1632 1264 -2625 1544 -360 101 -686 161 -1125 205 -104 11 -699 21 -795 14z m865 -148 c232 -25 362 -45 570 -86 511 -102 974 -259 1454 -493 l149 -72 -239 -281 c-529 -622 -910 -1070 -922 -1086 -11 -14 -7 -94 23 -470 20 -249 40 -511 46 -583 14 -184 17 -198 37 -190 9 3 169 51 357 106 187 55 430 127 540 159 110 32 212 62 227 65 22 6 65 74 296 478 149 260 337 589 419 732 82 143 164 286 182 317 l32 56 -50 27 c-27 15 -53 27 -57 27 -5 0 -24 -28 -44 -63 -20 -35 -180 -314 -355 -619 -175 -305 -355 -619 -399 -697 l-81 -141 -75 -22 c-41 -11 -172 -50 -290 -85 -517 -153 -601 -177 -605 -173 -3 2 -20 209 -40 459 -19 250 -38 479 -41 509 l-5 55 108 126 c134 156 731 857 910 1068 72 85 129 160 125 165 -3 5 10 0 29 -11 19 -11 84 -51 146 -87 950 -561 1754 -1434 2247 -2440 421 -859 624 -1776 603 -2726 -9 -386 -34 -631 -103 -985 -194 -995 -617 -1882 -1280 -2680 -138 -166 -530 -559 -699 -699 -403 -336 -822 -604 -1270 -814 -1641 -769 -3501 -747 -5115 59 -588 294 -1052 629 -1526 1103 -465 466 -797 922 -1084 1491 -502 993 -716 2107 -615 3195 122 1313 682 2551 1585 3505 134 142 402 396 413 392 4 -1 216 -355 470 -787 l463 -785 489 -127 c704 -183 703 -183 708 -178 2 3 16 276 31 607 23 503 25 606 14 621 -12 18 -315 366 -920 1059 -137 156 -248 287 -248 292 0 14 405 212 584 286 339 140 724 256 1091 330 301 60 495 86 815 109 134 9 762 -3 900 -18z m-3453 -751 c-26 -23 -36 -38 -31 -47 5 -7 85 -101 179 -208 218 -249 456 -522 719 -825 115 -132 218 -250 229 -263 l21 -22 -24 -505 c-15 -310 -28 -505 -34 -505 -9 0 -381 96 -790 204 l-199 53 -324 549 c-178 302 -340 578 -361 614 -165 279 -214 360 -220 360 -4 0 -26 -11 -49 -25 -24 -13 -43 -22 -43 -20 0 14 330 270 504 389 116 80 444 285 456 285 3 0 -12 -15 -33 -34z"/>
 <path d="M6650 11242 c0 -7 85 -1019 179 -2147 22 -253 38 -460 38 -461 -7 -4 -1821 -24 -1825 -20 -2 3 7 202 22 443 32 515 126 2130 126 2156 0 16 -8 18 -62 15 l-63 -3 -32 -540 c-67 -1143 -104 -1778 -117 -1985 -7 -118 -11 -217 -10 -218 3 -4 2097 27 2099 31 1 1 -4 70 -11 152 -8 83 -41 474 -74 870 -33 396 -78 932 -100 1190 -22 259 -40 482 -40 498 0 27 -1 27 -65 27 -36 0 -65 -4 -65 -8z"/>
 <path d="M1430 8628 c-6 -24 -13 -50 -16 -59 -5 -16 16 -22 646 -189 102 -27 295 -78 430 -114 135 -36 367 -97 515 -136 149 -39 326 -86 395 -105 69 -18 215 -57 325 -86 110 -28 204 -55 208 -59 4 -4 -104 -335 -241 -736 -137 -401 -268 -786 -291 -856 -24 -70 -46 -130 -50 -132 -4 -3 -139 52 -301 121 -162 69 -475 202 -695 295 -220 94 -530 226 -690 293 -159 68 -386 165 -504 215 -118 50 -218 87 -222 83 -4 -4 -16 -30 -27 -58 l-19 -49 156 -67 c86 -37 291 -124 456 -194 165 -70 345 -146 400 -170 55 -23 174 -74 265 -113 501 -212 791 -335 1009 -428 134 -58 245 -103 247 -101 2 2 156 449 343 993 292 852 336 990 322 996 -9 4 -101 30 -206 57 -176 46 -318 83 -975 258 -135 35 -319 84 -410 108 -91 24 -277 74 -415 110 -444 118 -625 165 -635 165 -5 0 -14 -19 -20 -42z"/>
 <path d="M9120 8248 c-723 -182 -1316 -332 -1317 -332 -1 -1 88 -274 198 -606 109 -333 256 -778 325 -990 70 -212 130 -388 133 -393 7 -7 120 38 826 328 359 147 748 307 1305 535 217 89 400 164 407 167 9 3 7 18 -8 56 -28 70 -26 69 -67 51 -20 -9 -172 -71 -337 -139 -569 -233 -1141 -467 -1445 -592 -541 -223 -594 -243 -601 -236 -4 5 -78 222 -164 483 -86 261 -212 644 -281 850 -68 206 -124 380 -124 386 0 6 66 28 148 47 327 80 2376 598 2380 601 2 3 -2 30 -9 60 -10 47 -16 56 -33 55 -12 0 -613 -149 -1336 -331z"/>
 <path d="M1760 5629 c-168 -71 -413 -175 -545 -231 -132 -56 -319 -134 -415 -175 -96 -41 -221 -93 -277 -116 -57 -23 -103 -47 -103 -53 0 -6 9 -34 21 -62 l21 -50 76 33 c43 18 264 111 492 208 228 96 557 234 730 307 173 73 320 133 326 133 6 0 75 -25 155 -55 79 -31 288 -111 464 -178 176 -68 321 -124 323 -125 2 -2 -91 -148 -205 -326 -377 -585 -344 -538 -383 -548 -19 -5 -152 -34 -295 -65 -971 -210 -1396 -304 -1401 -309 -8 -8 19 -117 30 -117 6 0 146 30 311 66 165 35 413 89 550 119 138 30 376 82 530 115 154 34 304 66 332 72 l53 11 137 211 c245 377 533 826 533 830 0 4 -120 51 -605 236 -203 77 -404 154 -445 171 -41 16 -82 29 -90 28 -8 0 -152 -59 -320 -130z"/>
 <path d="M9845 5720 c-11 -5 -90 -36 -175 -69 -85 -33 -297 -114 -470 -181 -173 -67 -348 -134 -387 -148 -40 -15 -73 -31 -73 -37 1 -5 148 -237 329 -515 l327 -505 110 -26 c60 -15 228 -55 374 -89 315 -74 705 -166 1034 -244 131 -31 242 -53 246 -49 12 12 30 107 22 114 -4 4 -106 29 -227 57 -121 28 -355 83 -520 122 -336 79 -784 185 -889 209 l-70 16 -272 420 c-150 231 -272 424 -271 429 2 5 111 50 242 101 132 50 346 133 476 183 l236 91 119 -53 c66 -30 254 -113 419 -186 165 -73 458 -202 650 -287 193 -86 369 -164 393 -174 l43 -19 25 55 c13 31 24 57 24 59 0 4 -45 24 -470 211 -146 65 -400 177 -565 250 -698 308 -636 284 -680 265z"/>
 <path d="M7935 4777 c-127 -90 -387 -275 -580 -412 -192 -137 -473 -336 -623 -443 l-273 -194 64 -76 c34 -42 364 -444 732 -892 368 -448 721 -878 784 -955 64 -77 128 -155 142 -174 l27 -34 46 38 c26 21 45 44 42 51 -4 10 -442 546 -1226 1499 -340 413 -415 506 -418 514 -2 5 57 51 130 103 73 52 322 229 553 393 627 446 796 565 800 565 4 0 25 -33 313 -510 338 -559 440 -727 657 -1085 104 -170 229 -377 278 -460 49 -82 96 -156 103 -164 11 -12 20 -10 61 14 26 15 50 29 52 31 3 3 -68 121 -421 704 -102 168 -327 539 -500 825 -173 286 -355 587 -405 670 -50 82 -95 151 -100 152 -5 2 -112 -70 -238 -160z"/>
 <path d="M3692 4823 c-27 -44 -1270 -2112 -1348 -2245 -19 -31 -34 -60 -34 -65 0 -8 85 -63 98 -63 4 0 306 498 671 1108 366 609 669 1113 674 1119 7 10 24 2 71 -30 33 -24 327 -229 651 -457 325 -228 633 -444 685 -480 52 -37 95 -69 95 -71 0 -3 -216 -270 -480 -594 -571 -700 -1144 -1405 -1158 -1423 -8 -10 1 -23 34 -52 24 -22 47 -38 50 -37 4 1 130 153 280 337 150 184 302 371 338 415 342 417 1121 1376 1121 1380 0 2 -96 71 -212 153 -549 384 -1301 911 -1373 962 -44 31 -92 65 -106 74 l-26 17 -31 -48z"/>
 <path d="M5571 2833 c-315 -387 -381 -473 -381 -498 0 -17 20 -272 45 -565 24 -294 56 -683 70 -865 14 -181 28 -335 30 -341 3 -9 112 -8 123 1 2 2 -15 223 -37 492 -99 1191 -104 1263 -88 1281 8 9 150 185 317 390 167 205 306 371 310 370 4 -2 146 -174 315 -383 169 -209 313 -387 320 -395 10 -12 6 -76 -21 -335 -19 -176 -59 -563 -89 -860 -30 -297 -57 -550 -60 -561 -4 -18 1 -23 26 -28 17 -3 46 -6 65 -6 31 0 33 2 38 42 6 44 37 342 126 1218 28 267 52 501 55 520 5 33 -7 50 -251 350 -140 173 -315 388 -387 478 -72 89 -134 162 -138 162 -5 0 -179 -210 -388 -467z"/>
 </g>

</svg>