<!DOCTYPE svg PUBLIC "-//W3C//DTD SVG 20010904//EN" "http://www.w3.org/TR/2001/REC-SVG-20010904/DTD/svg10.dtd">
<svg version="1.0" xmlns="http://www.w3.org/2000/svg" width="1200px" height="1200px" viewBox="0 0 12000 12000" preserveAspectRatio="xMidYMid meet">
<g id="layer101" fill="#2b2a29" stroke="none">
 <path d="M5625 11989 c-1321 -99 -2477 -563 -3475 -1394 -195 -162 -578 -545 -737 -735 -529 -636 -895 -1303 -1138 -2075 -126 -399 -202 -781 -252 -1265 -24 -232 -24 -839 0 -1065 77 -723 223 -1288 489 -1890 647 -1467 1885 -2633 3383 -3188 504 -186 972 -292 1560 -354 242 -25 831 -25 1070 0 591 62 1055 168 1560 354 1144 423 2143 1201 2852 2221 538 775 891 1694 1012 2642 40 311 46 402 46 770 0 367 -5 446 -45 770 -57 449 -174 922 -333 1342 -237 628 -577 1213 -994 1712 -835 998 -1931 1685 -3178 1991 -298 73 -532 113 -885 151 -173 18 -759 27 -935 13z m885 -198 c368 -38 599 -78 915 -156 876 -217 1673 -630 2375 -1231 148 -126 478 -456 604 -604 663 -774 1097 -1666 1295 -2655 80 -401 105 -665 106 -1130 0 -396 -7 -510 -56 -850 -123 -866 -462 -1730 -962 -2451 -824 -1188 -2036 -2025 -3417 -2358 -239 -58 -358 -80 -582 -110 -318 -43 -447 -51 -803 -51 -354 0 -466 7 -793 51 -954 127 -1889 510 -2667 1091 -1248 931 -2075 2331 -2279 3856 -44 322 -51 445 -50 812 0 372 10 514 60 855 156 1082 650 2141 1388 2978 127 144 414 429 556 552 828 718 1864 1196 2935 1354 146 21 365 45 550 60 96 7 721 -3 825 -13z"/>
 <path d="M5217 11123 c-3 -10 -67 -449 -143 -976 l-138 -958 260 -257 c142 -141 382 -378 532 -527 l272 -269 48 45 c26 25 184 174 352 330 736 688 675 627 673 668 -5 70 -44 500 -78 851 -19 195 -48 508 -65 695 -17 187 -33 346 -35 353 -3 9 -16 11 -37 8 -18 -3 -59 -8 -92 -11 l-58 -7 6 -61 c3 -34 29 -305 56 -602 28 -297 64 -684 81 -859 16 -176 28 -322 27 -326 -3 -5 -243 -231 -743 -698 l-130 -121 -135 132 c-74 72 -270 265 -434 427 l-299 295 16 115 c9 63 48 333 87 600 149 1021 163 1132 150 1140 -7 4 -42 11 -78 15 -36 4 -71 9 -78 12 -7 2 -14 -4 -17 -14z"/>
 <path d="M2931 10329 c-34 -40 -59 -75 -54 -79 19 -17 812 -724 1508 -1345 264 -235 576 -514 694 -619 118 -105 263 -234 323 -286 l108 -95 -717 -712 c-394 -392 -720 -710 -724 -707 -6 4 -565 635 -1544 1744 -134 152 -160 182 -527 598 -143 160 -263 292 -268 292 -4 0 -38 -26 -74 -57 -57 -49 -64 -59 -53 -72 18 -22 371 -422 927 -1051 172 -195 408 -463 524 -594 116 -132 353 -400 526 -596 173 -196 353 -400 400 -453 l84 -97 481 477 c264 263 651 648 860 856 l380 378 -31 27 c-17 15 -172 153 -345 307 -568 507 -1688 1505 -2064 1840 -159 142 -304 271 -320 286 l-31 29 -63 -71z"/>
 <path d="M8874 10312 c-54 -48 -218 -193 -365 -322 -678 -600 -964 -852 -1079 -955 -69 -61 -378 -335 -688 -609 l-564 -498 850 -852 c467 -468 853 -853 858 -856 5 -2 213 225 462 505 250 281 592 665 761 855 169 190 513 577 765 860 252 283 468 525 479 537 24 27 22 30 -62 103 l-57 49 -90 -102 c-85 -96 -432 -486 -1399 -1572 -226 -253 -511 -574 -635 -713 -123 -138 -227 -252 -230 -252 -4 0 -107 102 -230 228 -123 125 -442 447 -709 715 l-486 488 30 27 c17 15 105 92 195 172 198 175 566 500 785 694 88 78 489 433 892 789 402 356 735 652 738 657 6 10 -100 140 -114 140 -4 0 -52 -40 -107 -88z"/>
 <path d="M8606 6570 c-284 -291 -516 -533 -516 -538 0 -6 846 -909 979 -1045 l27 -28 400 41 c571 57 1510 150 1525 150 9 0 10 22 5 92 -4 51 -9 94 -10 96 -3 3 -470 -43 -1484 -145 l-364 -36 -32 34 c-18 19 -145 153 -282 299 -137 145 -306 325 -377 399 -70 74 -126 138 -125 143 2 4 192 202 422 439 l419 431 41 -6 c297 -41 1208 -168 1471 -205 187 -27 341 -47 343 -46 4 4 31 179 28 182 -4 5 -283 44 -1576 224 -195 27 -360 49 -367 49 -6 0 -244 -238 -527 -530z"/>
 <path d="M2390 7039 c-256 -26 -685 -70 -954 -98 -268 -27 -489 -51 -490 -53 -1 -2 2 -45 7 -95 l9 -93 37 5 c20 3 257 28 526 55 270 28 670 68 889 91 l399 41 32 -34 c359 -375 786 -829 785 -835 -1 -4 -130 -142 -288 -306 -158 -164 -346 -360 -417 -435 l-131 -136 -164 23 c-249 34 -912 124 -1295 175 -187 25 -354 48 -371 51 l-31 5 -13 -91 c-6 -49 -10 -92 -8 -95 3 -2 153 -24 334 -48 625 -85 1070 -145 1326 -180 142 -20 266 -36 276 -36 11 0 214 203 508 507 269 278 501 520 515 537 l26 31 -314 330 c-173 182 -401 421 -506 533 -106 111 -199 202 -207 201 -8 -1 -224 -23 -480 -50z"/>
 <path d="M7025 4984 l-860 -853 70 -64 c75 -68 496 -446 1226 -1099 250 -223 693 -620 984 -881 l530 -475 62 66 c34 37 61 70 60 74 -1 4 -207 191 -458 415 -250 225 -837 750 -1303 1168 -467 418 -859 769 -873 780 l-24 20 716 714 716 715 23 -25 c21 -21 197 -220 786 -889 70 -80 269 -305 441 -501 173 -195 476 -540 674 -765 198 -225 378 -429 401 -453 47 -50 41 -52 132 30 l52 47 -356 403 c-196 222 -503 571 -682 774 -179 204 -388 440 -463 525 -162 183 -991 1124 -993 1127 -1 1 -388 -383 -861 -853z"/>
 <path d="M3939 5638 c-90 -101 -276 -309 -414 -463 -138 -154 -478 -534 -756 -845 -277 -311 -653 -731 -834 -934 -182 -202 -331 -372 -333 -376 -3 -8 81 -91 117 -117 16 -11 53 27 337 345 688 769 1007 1127 1209 1352 115 129 354 396 530 593 175 196 322 356 325 354 3 -1 324 -323 715 -715 702 -704 709 -712 690 -731 -11 -10 -483 -427 -1050 -927 -1546 -1363 -1605 -1416 -1605 -1423 0 -3 26 -35 58 -70 45 -50 62 -62 74 -55 8 5 201 173 428 374 444 392 952 841 1409 1244 156 138 442 390 634 560 l349 309 -853 853 c-470 470 -857 854 -861 854 -3 0 -80 -82 -169 -182z"/>
 <path d="M5910 3867 c-41 -40 -277 -266 -525 -502 -334 -319 -451 -436 -453 -454 -1 -15 18 -219 43 -456 25 -236 68 -646 95 -910 27 -264 53 -497 56 -519 l6 -38 87 7 c47 4 89 10 93 13 4 4 3 41 -2 82 -6 41 -35 314 -65 605 -30 292 -70 671 -88 844 l-34 315 126 121 c370 356 734 700 742 700 4 0 204 -188 444 -419 421 -404 435 -419 430 -450 -6 -35 -35 -247 -105 -781 -27 -203 -69 -521 -94 -705 -25 -184 -44 -336 -42 -337 5 -6 176 -26 181 -22 4 5 44 296 135 984 83 630 119 899 125 931 5 31 -12 49 -531 548 -296 284 -540 516 -543 516 -3 0 -40 -33 -81 -73z"/>
 </g>

</svg>