<!DOCTYPE svg PUBLIC "-//W3C//DTD SVG 20010904//EN" "http://www.w3.org/TR/2001/REC-SVG-20010904/DTD/svg10.dtd">
<svg version="1.0" xmlns="http://www.w3.org/2000/svg" width="1198px" height="1200px" viewBox="0 0 11980 12000" preserveAspectRatio="xMidYMid meet">
<g id="layer101" fill="#2b2a29" stroke="none">
 <path d="M5680 11990 c-750 -43 -1470 -217 -2135 -515 -1444 -648 -2574 -1842 -3145 -3325 -180 -465 -302 -969 -360 -1485 -148 -1307 142 -2632 823 -3765 531 -882 1304 -1631 2208 -2138 1445 -810 3189 -982 4759 -470 848 277 1586 711 2241 1320 752 699 1328 1614 1632 2593 334 1072 363 2188 87 3285 -379 1502 -1371 2839 -2711 3648 -692 417 -1488 699 -2271 802 -374 49 -810 68 -1128 50z m820 -205 c461 -44 871 -127 1267 -256 2006 -655 3491 -2319 3908 -4382 77 -379 109 -720 109 -1147 0 -359 -12 -526 -60 -860 -109 -756 -387 -1521 -793 -2180 -486 -791 -1167 -1466 -1966 -1947 -667 -402 -1453 -675 -2220 -772 -309 -39 -419 -45 -750 -46 -346 0 -476 8 -794 51 -1354 181 -2612 851 -3530 1879 -762 853 -1255 1904 -1416 3019 -112 777 -76 1516 111 2271 213 860 642 1689 1225 2370 147 172 499 520 669 662 981 817 2124 1271 3405 1353 184 12 640 4 835 -15z"/>
 <path d="M5291 11239 c-5 -13 -22 -58 -39 -99 -120 -304 -249 -794 -323 -1230 -23 -140 -21 -298 7 -520 85 -665 398 -1306 876 -1795 l118 -120 19 25 c16 19 22 22 34 12 12 -10 28 0 92 60 591 551 975 1392 978 2143 0 174 -46 471 -135 855 -39 171 -151 558 -182 632 l-16 38 -82 -30 c-44 -16 -83 -32 -85 -34 -2 -2 21 -82 52 -177 101 -314 189 -706 240 -1063 26 -180 27 -196 15 -335 -20 -257 -62 -456 -145 -699 -136 -398 -367 -778 -655 -1076 l-105 -108 -79 83 c-170 181 -339 431 -473 697 -185 371 -279 727 -299 1142 -6 127 -4 147 31 345 62 351 197 847 306 1123 16 40 29 76 29 81 0 5 -30 20 -67 34 -38 14 -76 28 -85 32 -13 5 -20 1 -27 -16z"/>
 <path d="M2706 10175 c-22 -47 -37 -87 -35 -88 2 -2 60 -33 129 -69 300 -156 742 -459 895 -613 132 -132 284 -357 382 -563 141 -299 220 -628 239 -996 l7 -139 -114 6 c-468 25 -942 195 -1306 466 -164 122 -267 224 -351 348 -170 252 -342 557 -457 814 -35 77 -66 143 -68 146 -9 8 -159 -51 -164 -65 -10 -24 157 -379 279 -592 164 -285 294 -478 397 -583 354 -364 878 -619 1443 -703 57 -8 190 -18 296 -21 174 -5 192 -4 192 11 0 9 6 16 14 16 33 0 27 378 -9 619 -52 345 -178 699 -350 981 -78 128 -210 303 -292 387 -111 112 -463 367 -723 523 -92 55 -356 201 -363 200 -1 -1 -20 -39 -41 -85z"/>
 <path d="M9195 10061 c-245 -110 -492 -250 -780 -439 -126 -83 -180 -126 -257 -204 -343 -351 -582 -832 -667 -1343 -28 -165 -41 -307 -41 -436 0 -102 1 -109 20 -109 15 0 20 -7 20 -25 0 -34 37 -39 254 -32 401 13 761 100 1102 266 230 112 445 257 602 405 96 90 335 424 499 696 77 127 213 381 213 397 0 9 -160 87 -165 81 -2 -2 -30 -56 -64 -121 -160 -308 -453 -748 -595 -895 -190 -198 -536 -403 -859 -511 -235 -78 -539 -131 -749 -131 l-88 0 0 53 c0 28 5 93 10 142 64 568 274 1042 629 1417 147 156 611 443 996 618 66 30 121 55 123 56 2 1 -69 174 -72 174 0 0 -59 -27 -131 -59z"/>
 <path d="M2032 7110 c-357 -50 -836 -156 -1127 -250 -72 -23 -132 -44 -133 -45 -7 -7 53 -175 62 -175 5 0 64 18 131 39 280 92 688 183 1055 237 271 40 481 26 800 -52 304 -75 620 -215 885 -392 190 -127 290 -207 438 -352 l118 -115 -58 -52 c-330 -299 -718 -525 -1113 -651 -251 -79 -521 -122 -775 -122 -138 0 -180 4 -310 30 -398 81 -739 177 -1082 306 -68 26 -125 45 -127 43 -1 -2 -15 -35 -31 -74 -15 -38 -29 -75 -32 -82 -6 -15 24 -28 247 -108 303 -109 615 -194 990 -270 157 -31 192 -35 335 -35 736 0 1495 315 2052 853 81 79 122 125 118 135 -3 8 2 20 11 26 13 10 6 23 -59 96 -386 442 -981 805 -1547 944 -348 85 -577 103 -848 66z"/>
 <path d="M9445 7030 c-639 -70 -1239 -348 -1735 -804 -116 -107 -222 -228 -211 -239 6 -6 11 -19 11 -29 0 -10 48 -68 108 -129 537 -557 1272 -896 2007 -925 126 -6 173 -3 295 16 391 59 791 151 1105 254 94 31 176 60 183 64 9 6 5 28 -20 94 l-32 85 -145 -49 c-301 -101 -713 -198 -1096 -258 -116 -19 -165 -21 -285 -17 -642 25 -1301 312 -1781 775 l-120 115 28 30 c45 47 221 198 308 264 325 244 665 408 1048 502 181 45 301 61 502 68 155 4 197 2 305 -16 374 -65 825 -184 1138 -302 58 -21 107 -38 108 -36 8 7 64 151 64 162 0 31 -514 195 -860 275 -381 88 -474 102 -670 106 -96 1 -211 -2 -255 -6z"/>
 <path d="M7493 4521 c4 -16 1 -21 -13 -21 -28 0 -34 -62 -27 -279 12 -394 97 -736 268 -1074 98 -193 226 -379 356 -518 148 -157 569 -442 935 -633 l147 -77 41 88 c29 63 37 89 28 92 -7 2 -69 33 -138 69 -231 120 -497 289 -733 466 -78 59 -136 113 -190 178 -320 381 -505 869 -524 1382 l-6 159 119 -6 c295 -15 640 -109 919 -250 200 -101 431 -269 555 -403 113 -122 354 -512 502 -814 56 -113 103 -207 104 -209 2 -2 39 12 83 30 50 21 81 40 81 49 0 26 -205 429 -292 575 -147 246 -286 445 -367 525 -420 418 -1028 669 -1660 687 l-194 6 6 -22z"/>
 <path d="M4165 4524 c-648 -49 -1209 -276 -1638 -661 -156 -141 -449 -577 -641 -958 -42 -82 -76 -156 -76 -163 0 -13 146 -85 161 -80 4 2 41 71 82 153 170 344 464 788 603 911 244 215 506 365 819 470 244 82 461 123 734 140 l114 7 -6 -134 c-22 -478 -201 -950 -503 -1325 -111 -138 -197 -212 -407 -352 -234 -155 -421 -265 -627 -367 -85 -42 -156 -80 -158 -85 -7 -18 61 -160 76 -160 26 0 357 171 521 269 337 202 548 355 657 477 327 365 532 805 609 1304 9 58 19 201 22 318 l6 212 -26 0 c-14 0 -27 5 -29 12 -4 12 -189 20 -293 12z"/>
 <path d="M5813 4383 c-241 -241 -440 -519 -592 -826 -199 -405 -294 -767 -308 -1182 -5 -154 -3 -186 22 -335 37 -225 77 -419 135 -645 51 -199 172 -581 193 -608 11 -14 20 -13 92 15 44 17 81 32 82 33 2 1 -31 102 -71 226 -85 256 -169 584 -223 874 -35 187 -37 213 -37 395 0 281 38 502 139 798 131 387 361 767 639 1057 l86 90 108 -111 c262 -269 491 -635 619 -989 100 -274 163 -608 163 -861 0 -255 -149 -922 -300 -1344 -22 -63 -42 -119 -43 -124 -1 -5 36 -24 82 -43 65 -25 87 -30 93 -20 15 24 87 234 138 405 69 230 142 549 186 812 34 201 36 224 31 365 -11 281 -52 508 -141 780 -144 435 -387 838 -710 1173 -134 138 -195 190 -206 172 -7 -12 -12 -11 -29 4 -19 17 -22 15 -148 -111z"/>
 </g>

</svg>