<!DOCTYPE svg PUBLIC "-//W3C//DTD SVG 20010904//EN" "http://www.w3.org/TR/2001/REC-SVG-20010904/DTD/svg10.dtd">
<svg version="1.0" xmlns="http://www.w3.org/2000/svg" width="1198px" height="1200px" viewBox="0 0 11980 12000" preserveAspectRatio="xMidYMid meet">
<g id="layer101" fill="#2b2a29" stroke="none">
 <path d="M5680 11989 c-619 -32 -1258 -167 -1833 -388 -1148 -441 -2135 -1229 -2825 -2254 -949 -1411 -1253 -3156 -837 -4817 397 -1590 1448 -2962 2886 -3768 665 -373 1409 -617 2164 -711 294 -37 428 -45 755 -45 526 0 934 48 1427 170 1439 353 2684 1220 3527 2456 318 467 591 1032 759 1573 334 1072 363 2188 87 3285 -105 417 -255 813 -463 1225 -722 1426 -2002 2518 -3517 2998 -695 221 -1414 314 -2130 276z m820 -204 c461 -44 871 -127 1267 -256 2006 -655 3491 -2319 3908 -4382 77 -379 109 -720 109 -1147 0 -359 -12 -526 -60 -860 -109 -756 -387 -1521 -793 -2180 -486 -791 -1167 -1466 -1966 -1947 -668 -402 -1452 -675 -2220 -772 -309 -39 -419 -45 -750 -46 -346 0 -475 8 -795 51 -1350 180 -2612 852 -3529 1879 -762 853 -1255 1904 -1416 3019 -112 777 -76 1516 111 2271 213 860 642 1689 1225 2370 147 172 499 520 669 662 978 814 2126 1272 3400 1353 188 12 643 4 840 -15z"/>
 <path d="M4937 10774 c-60 -973 -148 -2357 -167 -2644 -11 -168 -20 -311 -20 -317 0 -10 249 -13 1210 -13 l1210 0 0 23 c0 12 -23 355 -50 762 -28 407 -70 1042 -95 1410 -59 892 -74 1100 -81 1164 l-6 54 -89 -5 c-50 -3 -91 -7 -93 -9 -2 -2 0 -53 5 -114 5 -60 33 -481 64 -935 30 -454 75 -1122 100 -1485 25 -363 45 -666 45 -672 0 -10 -209 -13 -1010 -13 -555 0 -1010 4 -1010 8 0 5 7 109 15 233 9 123 42 649 75 1169 33 520 71 1137 86 1372 15 236 24 431 20 435 -3 4 -46 9 -94 11 l-87 4 -28 -438z"/>
 <path d="M2956 10143 c-31 -37 -55 -71 -54 -75 2 -4 305 -256 673 -559 369 -303 678 -558 688 -568 16 -16 -12 -45 -540 -557 -737 -713 -681 -661 -696 -641 -6 9 -250 333 -542 721 -291 388 -533 705 -536 706 -5 0 -84 -57 -147 -106 -3 -2 1168 -1566 1214 -1623 2 -2 158 147 346 330 189 184 536 520 771 748 235 228 426 417 425 421 -4 9 -1535 1270 -1542 1270 -2 0 -30 -30 -60 -67z"/>
 <path d="M8809 10055 c-266 -203 -397 -302 -934 -710 -280 -213 -511 -388 -512 -389 -5 -4 1498 -1536 1505 -1535 4 0 241 288 527 639 745 917 735 904 732 912 -1 4 -33 32 -71 63 l-69 55 -26 -34 c-43 -56 -1073 -1320 -1091 -1339 -16 -18 -43 8 -616 593 -329 336 -600 615 -602 619 -1 4 104 88 234 187 130 98 336 256 459 349 123 94 341 259 484 368 l261 198 -56 74 c-31 41 -57 75 -58 75 -2 0 -76 -56 -167 -125z"/>
 <path d="M7790 6011 l0 -1211 26 0 c30 0 1480 93 1789 115 116 8 494 33 840 55 347 22 657 42 690 45 l60 6 -5 89 c-3 49 -8 91 -10 93 -3 2 -133 -4 -290 -14 -157 -11 -526 -35 -820 -54 -956 -63 -2065 -135 -2077 -135 -10 0 -13 209 -13 1010 l0 1010 43 -6 c23 -2 359 -25 747 -50 388 -24 973 -62 1300 -84 1145 -76 1102 -74 1111 -59 5 8 9 51 9 97 l0 82 -27 0 c-31 0 -852 52 -1183 75 -118 8 -530 35 -915 60 -881 56 -1134 73 -1212 81 l-63 6 0 -1211z"/>
 <path d="M3570 7154 c-272 -18 -724 -49 -1005 -68 -280 -19 -802 -54 -1159 -78 l-649 -42 6 -89 c3 -49 8 -91 11 -94 3 -3 389 20 858 51 1394 92 2177 144 2271 151 l87 7 0 -1012 0 -1012 -62 6 c-114 10 -206 16 -1083 71 -478 30 -1115 70 -1415 90 -300 19 -570 36 -602 38 -55 3 -56 3 -62 -26 -3 -16 -6 -58 -6 -93 l0 -63 43 -5 c23 -3 130 -10 237 -16 107 -6 364 -22 570 -36 206 -13 767 -49 1245 -79 479 -30 969 -62 1089 -70 121 -8 223 -15 228 -15 4 0 8 545 8 1210 l0 1210 -57 -1 c-32 -1 -281 -17 -553 -35z"/>
 <path d="M8130 3869 c-421 -416 -763 -759 -760 -761 3 -3 86 -70 185 -149 99 -80 272 -219 385 -310 113 -91 367 -295 565 -454 198 -158 371 -299 386 -312 14 -12 30 -23 35 -23 11 0 114 125 114 139 0 4 -19 23 -42 42 -82 66 -926 744 -1136 913 l-213 171 497 495 c273 272 550 546 614 608 l118 112 533 -692 c293 -380 543 -703 554 -716 l22 -25 69 53 c38 30 71 55 73 57 2 1 -23 38 -56 80 -394 514 -1141 1484 -1158 1504 l-21 26 -764 -758z"/>
 <path d="M2785 4263 c-148 -184 -352 -437 -453 -562 -101 -124 -256 -316 -344 -426 -89 -110 -167 -207 -175 -216 -12 -14 -5 -23 56 -73 39 -31 74 -56 78 -55 4 0 53 57 108 126 55 69 219 273 365 453 146 180 353 436 460 569 l195 242 602 -608 c331 -334 602 -613 602 -619 1 -6 -321 -258 -714 -559 -438 -336 -712 -552 -708 -559 4 -6 29 -39 56 -73 33 -43 53 -61 62 -55 36 20 1594 1218 1592 1224 -3 11 -1499 1528 -1506 1527 -3 0 -127 -151 -276 -336z"/>
 <path d="M4780 4151 c0 -21 4 -94 10 -162 5 -68 30 -439 55 -824 25 -385 52 -792 60 -905 18 -244 95 -1433 95 -1461 0 -17 7 -19 83 -19 45 0 88 4 95 8 13 9 -13 464 -78 1387 -11 154 -40 595 -65 980 -24 385 -47 733 -51 773 l-6 72 1012 0 1012 0 -7 -62 c-3 -35 -28 -414 -55 -843 -27 -429 -61 -953 -75 -1165 -55 -840 -73 -1135 -69 -1139 3 -3 44 -7 93 -9 l89 -4 6 63 c4 35 24 348 46 694 22 347 56 875 75 1175 19 300 46 721 60 935 14 215 28 425 31 468 l7 77 -1212 0 -1211 0 0 -39z"/>
 </g>

</svg>