<!DOCTYPE svg PUBLIC "-//W3C//DTD SVG 20010904//EN" "http://www.w3.org/TR/2001/REC-SVG-20010904/DTD/svg10.dtd">
<svg version="1.0" xmlns="http://www.w3.org/2000/svg" width="322px" height="1114px" viewBox="0 0 3220 11140" preserveAspectRatio="xMidYMid meet">
<g id="layer101" fill="#2b2a29" stroke="none">
 <path d="M580 6171 l0 -4971 -31 0 c-47 0 -176 -47 -250 -90 -80 -47 -183 -155 -227 -238 -85 -160 -86 -367 -1 -534 29 -56 114 -153 172 -197 73 -54 143 -87 233 -112 110 -30 287 -24 392 13 254 91 422 315 422 561 0 166 -53 291 -175 412 -91 90 -185 144 -298 171 l-67 17 0 126 c0 69 11 2243 25 4831 14 2588 25 4764 25 4836 l0 131 -77 2 c-43 1 -93 4 -110 7 l-33 6 0 -4971z"/>
 <path d="M1076 11129 c-49 -5 -91 -11 -93 -13 -3 -3 1430 -9747 1442 -9802 4 -17 -4 -23 -53 -38 -137 -41 -286 -163 -357 -289 -56 -101 -76 -176 -77 -283 -2 -259 162 -475 427 -565 59 -20 90 -24 200 -24 144 0 211 16 330 78 85 44 211 173 258 263 150 290 44 614 -256 783 -55 31 -201 71 -258 71 -27 0 -49 3 -49 8 0 13 -1380 9777 -1385 9800 -3 13 -12 21 -23 21 -9 -1 -57 -6 -106 -10z"/>
 </g>
<g id="layer102" fill="#5f5223" stroke="none">
 <path d="M2420 1280 c-77 -20 -207 -79 -241 -109 -18 -15 -66 -64 -115 -117 -12 -12 -19 -25 -16 -28 3 -3 1 -6 -5 -6 -6 0 -13 -8 -17 -17 -3 -10 -14 -31 -24 -48 -55 -90 -73 -291 -38 -410 26 -88 79 -177 147 -245 33 -33 63 -60 68 -60 5 0 12 -7 15 -16 3 -8 10 -13 15 -10 5 4 11 3 13 -1 3 -7 92 -54 111 -59 4 -1 9 -3 12 -4 3 -1 10 -4 15 -5 6 -1 11 -3 13 -5 7 -6 66 -12 172 -16 99 -4 132 -2 190 14 74 21 133 42 150 55 6 4 34 23 63 42 63 43 152 124 152 140 0 6 9 21 19 32 11 12 17 24 14 27 -4 3 -2 6 4 6 9 0 35 48 39 70 0 3 6 25 14 50 19 65 20 68 21 155 0 102 -13 160 -60 260 -27 55 -56 97 -94 135 -63 61 -95 90 -102 90 -2 0 -27 13 -55 30 -27 16 -50 27 -50 24 0 -2 -10 1 -22 8 -13 7 -26 13 -30 14 -5 1 -9 2 -10 4 -9 6 -67 12 -173 16 -98 3 -134 0 -195 -16z"/>
 <path d="M565 1194 c-56 -8 -170 -37 -181 -45 -6 -5 -14 -6 -17 -2 -4 3 -7 1 -7 -6 0 -7 -4 -9 -10 -6 -5 3 -10 2 -10 -3 0 -5 -15 -16 -32 -23 -37 -15 -42 -19 -101 -74 -58 -57 -106 -113 -99 -120 3 -3 0 -5 -6 -5 -7 0 -12 -5 -12 -12 0 -6 -7 -19 -15 -28 -9 -10 -17 -26 -19 -36 -3 -11 -10 -32 -16 -49 -26 -65 -34 -181 -20 -265 6 -38 12 -73 12 -77 0 -5 4 -14 10 -20 6 -7 8 -13 5 -13 -3 0 10 -27 29 -61 18 -33 34 -63 34 -65 0 -13 82 -97 129 -132 20 -15 38 -29 41 -32 3 -3 19 -12 35 -20 17 -8 33 -19 36 -23 3 -5 12 -10 20 -11 8 -2 21 -6 29 -9 8 -4 48 -15 88 -26 89 -23 249 -21 331 4 30 9 63 19 74 21 10 2 25 8 31 14 7 5 16 7 19 3 4 -3 7 -1 7 6 0 7 4 10 9 7 5 -4 11 -3 13 2 1 4 21 19 43 32 22 14 51 34 64 45 44 37 121 124 121 138 0 5 9 22 21 38 11 16 22 37 24 47 2 9 4 18 5 20 2 1 4 7 5 12 1 6 3 11 5 13 4 5 11 46 18 107 9 86 -2 189 -30 268 -24 69 -138 229 -177 248 -12 6 -32 20 -44 30 -21 18 -110 65 -132 70 -5 1 -39 9 -74 18 -64 17 -202 28 -256 20z"/>
 </g>
<g id="layer103" fill="#fecd16" stroke="none">
 <path d="M2424 1280 c-277 -72 -459 -285 -472 -551 -5 -117 9 -187 55 -280 183 -366 721 -442 1019 -145 114 115 171 236 181 386 17 275 -168 517 -453 590 -99 26 -233 26 -330 0z"/>
 <path d="M544 1191 c-73 -12 -118 -28 -204 -72 -161 -83 -273 -224 -310 -392 -20 -86 -8 -238 24 -322 68 -179 239 -323 439 -370 81 -19 237 -19 312 0 76 19 230 95 272 134 257 238 271 605 32 841 -74 73 -174 131 -277 161 -77 22 -214 32 -288 20z"/>
 </g>
<g id="layer104" fill="#fefcf5" stroke="none">
 <path d="M2660 1145 l-45 -14 66 6 c69 6 128 -7 149 -32 7 -8 -3 -6 -27 6 -20 10 -51 19 -69 19 -47 0 -94 -11 -88 -21 3 -5 -2 -9 -10 -9 -8 0 -17 -4 -20 -8 -3 -5 16 -5 42 -1 74 12 118 1 146 -35 13 -17 52 -60 86 -96 52 -54 63 -72 65 -103 1 -20 -1 -40 -6 -42 -4 -3 -2 -18 6 -33 7 -15 15 -44 18 -66 6 -37 6 -38 -13 -21 -20 18 -20 17 -20 -26 0 -38 -5 -50 -32 -76 -93 -89 -217 -130 -364 -121 -82 6 -108 18 -146 74 -41 59 -55 122 -39 176 18 57 88 128 127 128 40 0 87 -31 107 -71 15 -32 17 -32 17 -9 0 30 -5 37 -48 73 -55 44 -120 33 -180 -32 -37 -39 -34 -26 5 27 34 45 76 65 124 57 51 -9 87 -39 110 -92 20 -47 26 -129 9 -118 -5 3 -10 0 -10 -8 0 -19 -39 -52 -77 -65 -41 -14 -63 4 -63 51 -1 27 -2 29 -11 14 -6 -10 -8 -25 -5 -34 9 -23 -3 -34 -25 -23 -24 14 -26 -8 -4 -51 38 -72 185 -66 265 10 27 25 40 47 40 64 0 14 5 29 10 32 6 3 10 18 9 33 0 24 -1 25 -9 7 -6 -14 -9 6 -8 60 2 96 -11 125 -87 201 -41 41 -65 56 -110 70 -67 19 -144 15 -198 -11 -53 -25 -153 -130 -184 -193 -25 -51 -28 -67 -28 -163 0 -104 1 -107 40 -185 54 -105 130 -183 210 -213 49 -19 80 -23 165 -23 58 0 115 4 127 9 13 5 -33 8 -115 8 -130 0 -140 2 -189 27 -66 35 -115 94 -175 209 -41 78 -48 100 -48 148 0 31 5 74 11 96 13 49 61 134 66 118 3 -7 -4 -24 -14 -39 -14 -21 -19 -53 -21 -133 -3 -91 -1 -115 18 -165 56 -149 221 -238 411 -222 89 7 234 41 267 63 13 8 26 13 28 10 6 -5 -50 -48 -91 -70 -42 -22 -9 -21 40 2 100 47 226 173 246 246 17 60 12 169 -11 254 -20 70 -59 156 -67 147 -2 -2 5 -19 16 -37 22 -35 29 -99 11 -99 -8 0 -10 14 -10 65 0 3 -16 28 -35 55 -39 55 -44 69 -17 49 9 -7 1 4 -17 24 -34 36 -48 47 -36 27 3 -5 0 -10 -7 -10 -7 0 -35 23 -64 51 -68 68 -122 81 -214 54z"/>
 <path d="M486 954 c-81 -41 -157 -86 -168 -99 -11 -14 -25 -24 -32 -23 -16 4 -71 -43 -79 -67 -3 -11 -13 -38 -21 -60 -14 -36 -16 -38 -22 -17 -11 39 -22 24 -35 -49 -25 -142 25 -307 118 -389 210 -185 591 -163 823 47 83 75 112 135 117 238 5 87 -14 158 -62 241 -36 62 -115 104 -220 117 l-40 5 41 -18 c22 -10 59 -21 81 -25 97 -16 183 -154 183 -295 0 -59 -30 -154 -56 -180 -12 -11 -10 -3 6 29 31 63 37 138 15 219 -35 130 -64 167 -166 208 -49 20 -83 27 -144 28 -44 0 -83 5 -86 10 -10 14 -89 -35 -120 -74 -28 -35 -35 -66 -44 -175 -5 -57 1 -58 19 -1 5 15 9 16 21 6 13 -11 18 -10 30 6 8 10 15 26 15 34 0 24 45 70 68 70 11 0 23 3 26 8 7 12 117 7 125 -6 3 -6 23 -18 43 -26 31 -13 37 -22 44 -58 4 -24 7 -65 5 -93 -2 -43 -7 -55 -43 -92 -51 -52 -164 -110 -243 -124 -57 -11 -177 -8 -220 5 -11 4 -6 0 12 -9 57 -26 312 -17 332 12 3 5 29 22 56 38 28 16 65 39 83 52 43 32 40 18 -9 -39 -35 -41 -51 -51 -120 -73 -44 -14 -94 -32 -112 -41 -25 -13 -48 -15 -117 -11 -110 8 -144 19 -204 64 -60 46 -75 73 -26 48 43 -22 46 -15 10 20 -17 16 -30 35 -30 42 0 7 -4 13 -8 13 -4 0 -14 27 -20 59 -11 54 -10 66 9 123 12 35 33 79 48 98 14 19 26 38 26 42 0 12 53 54 148 117 54 35 101 69 104 75 4 6 -4 3 -17 -6 -14 -10 -43 -26 -65 -36 -22 -11 -51 -29 -64 -41 -22 -19 -41 -27 -41 -17 0 3 38 28 84 57 72 45 122 90 99 88 -5 0 -75 -34 -157 -75z m-124 -194 c-18 -17 -38 -30 -45 -30 -6 0 3 14 21 30 18 17 38 30 45 30 6 0 -3 -14 -21 -30z"/>
 </g>

</svg>