<?xml version="1.0" encoding="iso-8859-1"?>
<!-- Generator: Adobe Illustrator 19.0.0, SVG Export Plug-In . SVG Version: 6.00 Build 0)  -->
<svg version="1.1" id="Capa_1" xmlns="http://www.w3.org/2000/svg" xmlns:xlink="http://www.w3.org/1999/xlink" x="0px" y="0px"
	 viewBox="0 0 511.999 511.999" style="enable-background:new 0 0 511.999 511.999;" xml:space="preserve">
<path style="fill:#B37A5B;" d="M35.266,432.646L8.785,406.164c-1.859-1.859-1.859-4.872,0-6.73l116.482-116.482
	c1.859-1.859,4.872-1.859,6.73,0l26.482,26.482c1.859,1.859,1.859,4.872,0,6.73L41.997,432.646
	C40.139,434.505,37.125,434.505,35.266,432.646z"/>
<path style="fill:#A6664C;" d="M158.479,309.433l-26.482-26.482c-1.859-1.859-4.872-1.859-6.731,0l-8.089,8.089l0,0l-9.582,9.582
	c1.859-1.858,4.872-1.858,6.731,0l0,0c10.158,10.158,10.158,26.628,0,36.786l-87.149,87.149l8.089,8.089
	c1.859,1.858,4.872,1.858,6.731,0l116.482-116.482C160.337,314.305,160.337,311.292,158.479,309.433z"/>
<path style="fill:#B37A5B;" d="M105.474,502.854l-26.482-26.482c-1.859-1.859-1.859-4.872,0-6.73L195.475,353.16
	c1.859-1.859,4.872-1.859,6.73,0l26.482,26.482c1.859,1.859,1.859,4.872,0,6.73L112.205,502.854
	C110.346,504.713,107.333,504.713,105.474,502.854z"/>
<g>
	<polygon style="fill:#A6664C;" points="112.204,502.855 112.205,502.854 163.27,451.79 	"/>
	<path style="fill:#A6664C;" d="M228.688,379.642l-26.482-26.482c-1.859-1.859-4.872-1.859-6.731,0l-14.353,14.352
		c1.859-1.858,4.872-1.858,6.73,0l0,0c10.855,10.855,10.855,28.453,0,39.308l-89.206,89.206l6.828,6.828
		c1.859,1.859,4.872,1.859,6.731,0l102.13-102.13l14.353-14.353C230.546,384.513,230.546,381.5,228.688,379.642z"/>
</g>
<path d="M163.712,304.202l-8.006-8.006L439.618,12.99c2.893-2.885,2.898-7.57,0.013-10.463s-7.569-2.898-10.462-0.013
	l-283.927,283.22l-8.013-8.013c-2.295-2.296-5.349-3.561-8.596-3.561c-3.248,0-6.302,1.265-8.597,3.561L3.553,394.204
	c-4.738,4.74-4.738,12.452,0,17.192l26.481,26.482c0.001,0,0.001,0,0.001,0.001c2.37,2.369,5.483,3.553,8.596,3.553
	s6.227-1.185,8.597-3.554L163.71,321.395C168.451,316.654,168.451,308.942,163.712,304.202z M38.632,425.55l-22.75-22.75
	l112.751-112.751l22.75,22.75L38.632,425.55z"/>
<path d="M509.839,72.736c-2.884-2.892-7.568-2.898-10.462-0.013L215.451,355.942l-8.014-8.014
	c-4.739-4.738-12.452-4.738-17.193,0.001L73.761,464.411c-4.739,4.74-4.739,12.452,0.001,17.192l26.481,26.481
	c2.295,2.296,5.349,3.561,8.596,3.561c3.248,0,6.302-1.265,8.597-3.561l116.483-116.481c4.739-4.739,4.739-12.452,0-17.192
	l-8.005-8.006L509.827,83.198C512.719,80.313,512.724,75.628,509.839,72.736z M110.705,497.623l-0.007-0.008
	C110.701,497.618,110.703,497.621,110.705,497.623C110.706,497.624,110.706,497.623,110.705,497.623z M108.839,495.757l-22.75-22.75
	l112.752-112.751l22.75,22.75L108.839,495.757z"/>
<g>
</g>
<g>
</g>
<g>
</g>
<g>
</g>
<g>
</g>
<g>
</g>
<g>
</g>
<g>
</g>
<g>
</g>
<g>
</g>
<g>
</g>
<g>
</g>
<g>
</g>
<g>
</g>
<g>
</g>
</svg>
