<!DOCTYPE svg PUBLIC "-//W3C//DTD SVG 20010904//EN" "http://www.w3.org/TR/2001/REC-SVG-20010904/DTD/svg10.dtd">
<svg version="1.0" xmlns="http://www.w3.org/2000/svg" width="1055px" height="698px" viewBox="0 0 10550 6980" preserveAspectRatio="xMidYMid meet">
<g id="layer101" fill="#070e2b" stroke="none">
 <path d="M6162 4469 c-133 -17 -319 -81 -383 -131 -16 -13 -34 -88 -21 -88 4 0 25 12 45 26 141 96 390 147 602 125 196 -22 350 -75 497 -173 48 -33 109 -84 135 -113 27 -30 51 -55 56 -55 4 0 7 20 7 44 0 42 -4 48 -69 108 -211 195 -558 298 -869 257z"/>
 <path d="M8348 4220 c-14 -10 -30 -32 -36 -47 -12 -30 -103 -685 -212 -1518 -37 -286 -68 -515 -69 -510 -14 117 -44 880 -51 1285 l-9 535 -29 25 c-16 14 -37 40 -46 58 -9 18 -32 40 -50 49 -30 14 -35 14 -58 -1 -55 -36 -54 -16 -26 -664 l27 -597 77 -590 c45 -353 81 -593 88 -597 16 -11 45 -10 89 3 31 8 42 18 57 52 37 81 127 651 180 1143 53 489 85 723 100 738 7 7 10 -1 10 -20 0 -16 32 -442 70 -947 39 -505 70 -922 70 -926 0 -23 44 -51 80 -51 51 0 80 29 74 74 -25 178 -101 1218 -129 1762 -35 698 -37 713 -86 748 -32 22 -91 20 -121 -4z"/>
 <path d="M4027 4070 c-16 -13 -33 -34 -38 -48 -12 -31 66 -2139 82 -2227 17 -96 33 -125 66 -125 35 0 71 24 84 56 5 16 -2 367 -21 967 -32 1007 -34 1125 -22 1145 7 10 37 6 145 -18 76 -17 148 -35 160 -39 15 -6 34 -4 55 5 58 24 62 88 8 128 -33 24 -118 59 -306 127 -149 53 -177 57 -213 29z"/>
 <path d="M3507 4019 c-48 -28 -49 -41 -22 -596 19 -398 25 -632 25 -1011 0 -529 3 -571 46 -591 14 -6 31 -11 37 -11 7 0 18 -20 25 -44 6 -24 19 -51 27 -60 23 -22 61 -20 86 5 16 16 19 28 15 62 -3 23 -38 535 -77 1137 -40 602 -76 1101 -82 1108 -12 15 -55 15 -80 1z"/>
 <path d="M5900 3985 c-22 -23 -25 -37 -28 -123 -2 -53 10 -506 27 -1007 28 -847 32 -915 51 -978 28 -91 50 -106 129 -88 31 8 132 16 224 20 162 6 170 7 188 30 30 37 34 69 13 93 -18 19 -26 20 -135 13 -142 -8 -188 2 -224 49 -33 43 -50 143 -40 242 8 86 14 91 95 69 69 -19 228 -19 252 -1 10 7 22 24 27 38 8 22 5 30 -19 53 -25 24 -41 29 -142 40 -141 17 -189 32 -204 65 -8 16 -19 263 -34 719 -23 744 -21 727 -76 770 -36 28 -75 27 -104 -4z"/>
 <path d="M2749 3973 c-33 -20 -52 -59 -73 -148 -8 -39 -52 -452 -96 -920 -44 -467 -83 -866 -87 -885 -4 -19 -21 380 -38 887 -24 714 -34 925 -44 937 -29 35 -93 8 -116 -48 -11 -26 -5 -223 36 -1215 48 -1167 49 -1184 72 -1225 27 -49 58 -58 92 -26 34 32 40 53 84 285 39 202 72 433 106 730 19 171 64 493 72 519 4 16 7 17 14 5 4 -8 51 -206 104 -439 145 -642 256 -1081 278 -1094 25 -16 68 11 89 54 15 33 15 65 -7 510 -19 373 -24 592 -25 1021 l0 546 -30 38 c-27 33 -30 45 -30 105 0 37 5 92 11 123 14 67 7 100 -23 113 -34 15 -65 6 -91 -25 -22 -27 -24 -39 -30 -211 -11 -303 -8 -554 13 -979 11 -222 19 -406 17 -407 -6 -6 -169 896 -182 1006 -21 185 -28 460 -12 573 14 103 9 134 -27 170 -22 21 -43 21 -77 0z"/>
 <path d="M5043 3840 c-91 -18 -147 -70 -160 -148 -18 -104 -7 -618 21 -1012 31 -431 122 -1195 150 -1248 32 -61 141 -129 226 -139 31 -4 75 1 121 12 66 16 78 23 135 80 91 91 89 82 75 602 -13 477 -80 1485 -107 1613 -25 117 -60 181 -114 210 -64 34 -245 50 -347 30z m323 -230 c15 -32 60 -469 79 -760 27 -418 57 -1292 46 -1330 -14 -49 -67 -96 -123 -111 -43 -12 -50 -11 -94 12 -72 37 -104 84 -120 176 -25 142 -44 304 -74 653 -31 363 -37 630 -21 925 11 185 23 220 130 366 11 16 16 37 20 92 1 4 34 7 73 5 67 -3 74 -5 84 -28z"/>
 <path d="M6913 3840 c-91 -18 -147 -70 -160 -148 -18 -104 -7 -618 21 -1012 31 -431 122 -1195 150 -1248 32 -61 141 -129 226 -139 31 -4 75 1 121 12 66 16 78 23 135 80 91 91 89 82 75 602 -13 477 -80 1485 -107 1613 -25 117 -60 181 -114 210 -64 34 -245 50 -347 30z m323 -230 c15 -32 60 -469 79 -760 27 -418 57 -1292 46 -1330 -14 -49 -67 -96 -123 -111 -43 -12 -50 -11 -94 12 -72 37 -104 84 -120 176 -25 142 -44 304 -74 653 -31 363 -37 630 -21 925 11 185 23 220 130 366 11 16 16 37 20 92 1 4 34 7 73 5 67 -3 74 -5 84 -28z"/>
 </g>

</svg>