<!DOCTYPE svg PUBLIC "-//W3C//DTD SVG 20010904//EN" "http://www.w3.org/TR/2001/REC-SVG-20010904/DTD/svg10.dtd">
<svg version="1.0" xmlns="http://www.w3.org/2000/svg" width="1200px" height="1000px" viewBox="0 0 12000 10000" preserveAspectRatio="xMidYMid meet">
<g id="layer101" fill="#2b2a29" stroke="none">
<path d="M6025 9990 c-541 -27 -1122 -175 -1610 -410 l-130 -63 -85 17 c-965 188 -2040 -25 -2874 -569 -182 -119 -483 -365 -581 -476 -16 -19 -62 -70 -101 -114 -329 -371 -539 -813 -621 -1302 -27 -168 -24 -553 6 -728 74 -422 223 -791 481 -1190 109 -168 212 -364 455 -860 435 -890 726 -1466 905 -1790 63 -115 263 -461 313 -540 95 -152 112 -180 216 -335 531 -790 1005 -1202 1453 -1262 48 -6 90 -10 92 -7 2 2 7 65 11 141 l8 136 -59 7 c-443 54 -978 612 -1597 1665 -110 188 -223 392 -388 702 -58 109 -540 1076 -592 1188 -61 132 -342 696 -402 810 -37 68 -94 167 -127 220 -206 324 -309 528 -392 773 -136 405 -159 832 -65 1212 102 407 311 771 631 1097 595 603 1470 968 2408 1004 162 6 480 -9 508 -25 9 -5 -21 -33 -95 -88 -732 -545 -1204 -1341 -1353 -2283 -69 -441 -66 -978 10 -1477 99 -651 318 -1355 650 -2088 248 -548 620 -1214 998 -1788 50 -76 49 -70 17 -267 -8 -47 -23 -146 -34 -220 -11 -74 -36 -241 -56 -370 -19 -129 -44 -296 -56 -370 -11 -74 -27 -177 -35 -229 -8 -51 -13 -96 -10 -98 6 -7 349 -4 781 7 209 5 598 14 865 20 267 6 778 17 1135 25 358 8 882 19 1165 25 283 5 571 13 638 16 l124 6 -6 32 c-6 38 -19 139 -46 361 -11 94 -27 222 -35 285 -8 63 -26 209 -40 325 -14 116 -32 263 -41 328 -8 64 -12 123 -8 130 4 6 35 55 69 107 182 281 428 690 545 905 24 44 68 125 98 180 127 231 359 724 469 995 302 741 481 1450 534 2110 15 188 15 567 0 744 -44 522 -168 974 -386 1401 -183 361 -374 617 -681 914 -80 78 -142 141 -139 141 4 0 57 13 118 30 817 216 1185 283 1552 284 337 1 531 -52 708 -193 186 -148 291 -368 349 -731 29 -182 31 -621 5 -870 -56 -520 -136 -950 -298 -1595 -33 -132 -66 -262 -73 -290 -91 -332 -139 -499 -222 -775 -48 -157 -53 -175 -72 -240 -84 -281 -259 -807 -372 -1115 -298 -815 -624 -1494 -938 -1955 -251 -368 -523 -639 -775 -770 -94 -49 -238 -100 -284 -100 -24 0 -25 -1 -19 -47 10 -70 38 -238 40 -240 5 -6 201 48 262 73 449 179 898 663 1303 1404 63 114 223 436 270 540 303 674 532 1301 810 2215 135 444 196 659 290 1010 38 142 135 538 156 635 102 479 155 782 197 1145 30 259 33 816 5 995 -63 405 -176 660 -382 865 -240 238 -561 337 -1045 322 -372 -12 -836 -103 -1645 -322 -71 -19 -153 -40 -182 -46 l-51 -11 -119 74 c-155 98 -185 115 -339 191 -135 68 -144 72 -314 142 -552 225 -1206 328 -1875 295z m655 -296 c530 -49 1008 -187 1473 -427 75 -39 137 -74 137 -78 0 -4 -12 -9 -27 -12 -16 -3 -68 -14 -118 -26 -131 -31 -417 -91 -510 -106 l-80 -13 -160 53 c-206 68 -368 108 -575 142 -153 25 -739 30 -911 8 -186 -23 -432 -76 -531 -114 -23 -9 -48 1 -200 77 -95 48 -234 112 -308 141 -74 29 -139 57 -143 61 -15 13 299 126 488 175 485 126 967 165 1465 119z m-2233 -509 c142 -41 259 -83 408 -147 77 -33 142 -62 143 -63 2 -2 -34 -22 -80 -45 -520 -260 -1043 -728 -1345 -1205 -99 -157 -200 -364 -300 -620 -140 -357 -187 -652 -187 -1170 -1 -350 18 -509 94 -790 89 -331 274 -722 489 -1035 203 -296 534 -628 816 -819 339 -230 760 -420 1125 -508 198 -47 268 -53 690 -53 521 0 718 20 970 96 302 92 713 291 970 472 344 241 701 624 914 982 226 378 393 836 441 1210 22 167 17 863 -8 1007 -85 502 -255 930 -525 1323 -267 387 -615 717 -1022 970 l-55 34 60 13 c33 7 174 41 314 74 227 56 256 61 276 48 103 -63 411 -359 541 -519 326 -402 550 -890 654 -1425 53 -267 64 -403 64 -760 1 -354 -8 -473 -55 -775 -144 -919 -524 -1906 -1152 -2995 -133 -230 -272 -454 -460 -742 -37 -56 -67 -112 -67 -125 0 -13 14 -133 30 -268 17 -135 39 -319 50 -410 11 -91 27 -219 35 -285 29 -232 33 -260 29 -266 -2 -3 -146 -9 -321 -12 -426 -9 -1121 -24 -1898 -42 -352 -8 -887 -19 -1190 -25 -302 -6 -571 -12 -597 -15 -27 -2 -48 -1 -48 2 0 4 9 66 20 137 11 72 29 190 40 261 46 303 92 609 111 733 l21 132 -110 168 c-785 1199 -1300 2331 -1526 3352 -154 700 -174 1380 -57 1956 186 910 703 1649 1491 2128 41 25 85 46 97 46 13 0 62 -11 110 -25z m2377 -44 c144 -24 314 -64 451 -107 l90 -28 -95 -12 c-132 -18 -438 -28 -542 -20 l-88 8 0 79 0 79 -310 0 -310 0 0 -50 0 -50 -127 -2 c-163 -4 -351 1 -383 9 l-25 6 30 8 c77 23 335 69 466 83 79 9 160 18 179 20 19 2 148 3 285 1 196 -2 278 -8 379 -24z m-1629 -272 c171 -97 280 -119 592 -119 l203 0 -10 -25 c-13 -34 -38 -184 -46 -276 -19 -220 106 -513 306 -715 104 -106 130 -107 206 -13 147 184 219 315 259 473 32 126 32 233 2 382 l-22 111 275 6 c284 6 409 19 730 73 l155 26 175 -102 c209 -122 205 -119 350 -242 327 -275 580 -573 771 -908 79 -138 139 -271 212 -475 76 -208 116 -364 154 -595 25 -155 27 -185 27 -490 1 -341 -4 -400 -55 -655 -95 -470 -300 -909 -615 -1315 -106 -137 -415 -450 -534 -542 -72 -56 -170 -121 -363 -245 -115 -73 -397 -203 -577 -266 -604 -212 -1303 -228 -1915 -46 -631 188 -1163 540 -1594 1055 -366 437 -605 988 -693 1599 -32 220 -32 615 0 834 24 161 70 380 104 491 139 458 379 894 657 1194 42 46 89 99 104 119 34 46 451 387 568 466 140 95 433 250 474 251 6 0 51 -23 100 -51z m822 -491 c-2 -13 -4 -3 -4 22 0 25 2 35 4 23 2 -13 2 -33 0 -45z m553 -298 c0 -35 -136 -254 -189 -304 l-30 -29 -69 69 c-64 64 -135 162 -176 242 l-17 32 241 0 c158 0 240 -4 240 -10z"/>
<path d="M7420 1273 c0 -14 11 -15 98 -10 53 4 114 7 135 7 20 0 37 5 37 10 0 6 -52 10 -135 10 -119 0 -135 -2 -135 -17z"/>
<path d="M6978 1263 c-103 -7 -63 -23 55 -23 122 0 187 8 187 21 0 9 -120 9 -242 2z"/>
<path d="M4740 1245 c0 -13 23 -15 150 -15 127 0 150 2 150 15 0 13 -23 15 -150 15 -127 0 -150 -2 -150 -15z"/>
<path d="M6537 1253 c-80 -3 -107 -7 -104 -16 2 -7 16 -12 30 -11 15 0 75 1 133 2 79 2 105 5 102 15 -5 14 -14 14 -161 10z"/>
<path d="M5260 1230 c0 -6 63 -10 170 -10 107 0 170 4 170 10 0 6 -63 10 -170 10 -107 0 -170 -4 -170 -10z"/>
<path d="M5860 1230 c0 -6 57 -10 150 -10 93 0 150 4 150 10 0 6 -57 10 -150 10 -93 0 -150 -4 -150 -10z"/>
</g>
<g id="layer102" fill="#fecc12" stroke="none">
<path d="M10420 9663 c-216 -13 -655 -97 -1090 -208 -319 -81 -521 -134 -780 -205 -63 -18 -162 -43 -220 -56 -58 -14 -143 -34 -190 -45 -135 -31 -417 -89 -505 -104 l-80 -13 -160 53 c-206 68 -368 108 -575 142 -153 25 -739 30 -911 8 -186 -23 -432 -76 -531 -114 -23 -9 -48 1 -200 77 -527 267 -1097 402 -1688 402 -855 -1 -1685 -271 -2348 -764 -105 -78 -344 -287 -397 -347 -16 -19 -62 -70 -101 -114 -329 -371 -539 -813 -621 -1302 -27 -168 -24 -553 6 -728 74 -422 223 -791 481 -1190 109 -168 212 -364 455 -860 435 -890 726 -1466 905 -1790 63 -115 263 -461 313 -540 95 -152 112 -180 216 -335 531 -790 1005 -1202 1453 -1262 48 -6 90 -10 92 -7 2 2 7 65 11 141 l8 136 -59 7 c-443 54 -978 612 -1597 1665 -110 188 -223 392 -388 702 -58 109 -540 1076 -592 1188 -61 132 -342 696 -402 810 -37 68 -94 167 -127 220 -157 247 -225 368 -301 541 -147 333 -211 626 -211 959 0 280 44 514 144 765 346 873 1265 1550 2385 1759 242 45 403 60 665 60 435 0 737 -48 1130 -181 87 -29 377 -147 388 -158 2 -2 -34 -22 -80 -45 -520 -260 -1043 -728 -1345 -1205 -99 -157 -200 -364 -300 -620 -140 -357 -187 -652 -187 -1170 -1 -350 18 -509 94 -790 89 -331 274 -722 489 -1035 203 -296 534 -628 816 -819 339 -230 760 -420 1125 -508 198 -47 268 -53 690 -53 521 0 718 20 970 96 302 92 713 291 970 472 344 241 701 624 914 982 226 378 393 836 441 1210 22 167 17 863 -8 1007 -85 502 -255 930 -525 1323 -243 352 -561 666 -907 894 -71 47 -139 91 -149 99 -18 12 -11 15 65 30 93 19 515 124 624 155 65 19 293 78 725 188 565 143 894 197 1215 198 337 1 531 -52 708 -193 186 -148 291 -368 349 -731 29 -182 31 -621 5 -870 -56 -520 -136 -950 -298 -1595 -33 -132 -66 -262 -73 -290 -91 -332 -139 -499 -222 -775 -48 -157 -53 -175 -72 -240 -84 -281 -259 -807 -372 -1115 -298 -815 -624 -1494 -938 -1955 -251 -368 -523 -639 -775 -770 -94 -49 -238 -100 -284 -100 -24 0 -25 -1 -19 -47 10 -70 38 -238 40 -240 5 -6 201 48 262 73 449 179 898 663 1303 1404 63 114 223 436 270 540 303 674 532 1301 810 2215 135 444 196 659 290 1010 38 142 135 538 156 635 102 479 155 782 197 1145 30 259 33 816 5 995 -63 405 -176 660 -382 865 -177 176 -431 287 -722 315 -92 9 -329 10 -453 3z m-3596 -522 c144 -23 314 -64 451 -107 l90 -28 -100 -14 c-63 -9 -200 -15 -369 -16 l-269 -1 7 -275 c4 -151 8 -288 8 -305 1 -16 -2 -92 -7 -167 l-8 -138 -26 0 c-22 0 -30 -9 -50 -56 -30 -69 -129 -219 -170 -258 l-31 -30 -77 80 c-48 49 -99 116 -132 172 -51 87 -56 92 -88 92 l-33 0 -1 138 c-1 75 0 289 1 474 l2 337 -244 -1 c-133 -1 -254 2 -268 7 l-25 8 30 9 c82 23 337 68 466 82 79 9 160 18 179 20 19 2 148 3 285 1 196 -2 278 -8 379 -24z m-1629 -272 c171 -97 280 -119 592 -119 l203 0 -10 -25 c-13 -34 -38 -184 -46 -276 -19 -220 106 -513 306 -715 104 -106 130 -107 206 -13 147 184 219 315 259 473 32 126 32 233 2 382 l-22 111 275 6 c284 6 409 19 730 73 l155 26 175 -102 c209 -122 205 -119 350 -242 327 -275 580 -573 771 -908 79 -138 139 -271 212 -475 76 -208 116 -364 154 -595 25 -155 27 -185 27 -490 1 -341 -4 -400 -55 -655 -95 -470 -300 -909 -615 -1315 -106 -137 -415 -450 -534 -542 -72 -56 -170 -121 -363 -245 -115 -73 -397 -203 -577 -266 -604 -212 -1303 -228 -1915 -46 -631 188 -1163 540 -1594 1055 -366 437 -605 988 -693 1599 -32 220 -32 615 0 834 24 161 70 380 104 491 139 458 379 894 657 1194 42 46 89 99 104 119 34 46 451 387 568 466 140 95 433 250 474 251 6 0 51 -23 100 -51z"/>
</g>
<g id="layer103" fill="#b2b3b3" stroke="none">
<path d="M5930 9239 c-215 -30 -462 -83 -554 -118 -29 -12 -29 -12 -8 -27 12 -8 40 -21 63 -29 37 -14 48 -13 118 4 276 69 512 96 856 95 241 0 298 -3 414 -22 155 -25 336 -69 467 -111 86 -28 95 -29 165 -19 41 6 78 14 82 18 9 8 -222 88 -349 120 -114 29 -255 59 -364 77 -112 18 -783 27 -890 12z"/>
<path d="M4915 8929 c-598 -303 -1153 -834 -1443 -1379 -53 -99 -139 -291 -199 -445 -140 -357 -187 -652 -187 -1170 -1 -350 18 -509 94 -790 89 -331 274 -722 489 -1035 203 -296 534 -628 816 -819 339 -230 760 -420 1125 -508 198 -47 268 -53 690 -53 521 0 718 20 970 96 302 92 713 291 970 472 344 241 701 624 914 982 226 378 393 836 441 1210 22 167 17 863 -8 1007 -85 502 -255 930 -525 1323 -262 380 -604 708 -989 949 -88 54 -104 57 -186 38 l-48 -12 163 -94 c208 -121 228 -134 367 -252 328 -276 581 -574 772 -909 79 -138 139 -271 212 -475 76 -208 116 -364 154 -595 25 -155 27 -185 27 -490 1 -341 -4 -400 -55 -655 -95 -470 -300 -909 -615 -1315 -106 -137 -415 -450 -534 -542 -72 -56 -170 -121 -363 -245 -115 -73 -397 -203 -577 -266 -604 -212 -1303 -228 -1915 -46 -631 188 -1163 540 -1594 1055 -366 437 -605 988 -693 1599 -32 220 -32 615 0 834 24 161 70 380 104 491 139 458 379 894 657 1194 42 46 89 99 104 119 35 46 451 387 570 468 98 66 314 186 397 220 30 12 59 26 64 30 8 7 -63 50 -81 49 -4 -1 -44 -19 -88 -41z"/>
<path d="M5981 8727 c-17 -49 -39 -185 -46 -279 -18 -224 104 -512 305 -714 104 -106 130 -107 206 -13 147 184 219 315 259 473 30 116 32 224 9 347 -27 148 -31 159 -61 159 l-26 0 8 -137 c5 -76 8 -151 8 -168 0 -16 -3 -92 -8 -167 l-8 -138 -26 0 c-22 0 -30 -9 -50 -56 -30 -69 -129 -219 -170 -258 l-31 -30 -77 80 c-48 49 -99 116 -132 172 -51 87 -56 92 -88 92 l-33 0 -2 138 c0 75 0 226 2 335 2 172 1 197 -13 197 -9 0 -20 -15 -26 -33z"/>
<path d="M7650 8500 c-107 -58 -460 -363 -532 -459 -102 -138 -160 -301 -183 -521 -19 -170 -19 -278 0 -405 14 -98 49 -230 63 -239 12 -7 312 42 382 62 223 66 424 178 575 323 109 105 140 154 205 324 29 77 69 181 88 230 42 107 84 267 74 276 -4 4 -21 10 -38 13 -38 8 -33 18 -84 -171 -118 -430 -281 -659 -591 -826 -128 -69 -390 -137 -531 -137 l-34 0 -22 168 c-26 196 -27 214 -7 369 29 217 96 397 199 530 43 55 279 252 386 321 84 55 150 109 150 123 0 14 -31 39 -48 39 -9 -1 -33 -9 -52 -20z"/>
<path d="M4904 8476 c-16 -40 -1 -54 171 -165 124 -80 333 -257 387 -327 132 -172 198 -403 198 -697 0 -139 -18 -318 -33 -334 -10 -9 -221 19 -309 41 -240 61 -384 143 -559 316 -137 137 -116 102 -231 380 -53 127 -85 222 -101 300 l-13 65 -38 3 -39 3 7 -64 c14 -140 150 -482 247 -622 198 -287 514 -454 964 -510 70 -8 130 -13 133 -10 3 3 16 51 29 108 43 187 40 423 -8 660 -26 128 -41 172 -97 287 -55 113 -123 186 -312 336 -264 210 -378 276 -396 230z"/>
<path d="M8756 7229 c-251 -23 -403 -93 -576 -268 -142 -144 -243 -306 -244 -394 -1 -36 2 -41 29 -50 17 -5 62 -24 100 -42 202 -92 419 -117 629 -71 129 29 344 152 479 276 71 65 79 83 48 100 -33 17 -47 12 -121 -50 -210 -176 -423 -270 -607 -270 -66 0 -192 27 -303 63 -41 14 -94 30 -117 36 -24 7 -43 16 -43 21 0 25 41 113 80 171 54 81 220 244 292 287 127 75 290 113 511 116 150 2 157 5 157 59 l0 27 -107 -1 c-60 -1 -152 -6 -207 -10z"/>
<path d="M3580 7061 l0 -39 223 -4 c246 -5 305 -16 427 -77 85 -42 210 -143 283 -228 52 -60 137 -207 126 -217 -2 -2 -35 -19 -74 -38 -119 -59 -190 -79 -325 -90 -263 -20 -359 9 -623 186 -71 47 -133 86 -138 86 -20 0 -49 -21 -49 -35 0 -37 219 -186 364 -249 284 -122 546 -111 826 35 52 28 105 58 116 67 l22 17 -55 100 c-60 110 -105 172 -185 255 -200 208 -374 270 -757 270 l-181 0 0 -39z"/>
<path d="M8125 5955 c-198 -32 -351 -92 -572 -223 -79 -47 -113 -73 -113 -86 0 -45 127 -284 207 -389 127 -165 267 -284 428 -362 201 -98 382 -125 712 -106 107 6 203 16 214 21 22 12 25 39 6 64 -13 17 -23 18 -176 6 -228 -18 -440 -9 -551 23 -47 14 -107 34 -134 46 -144 63 -321 217 -451 390 -66 88 -155 249 -155 279 0 18 31 36 200 122 298 150 569 178 850 88 124 -40 281 -130 435 -249 39 -30 87 -63 107 -74 36 -19 38 -19 57 0 12 10 21 25 21 34 0 18 -355 258 -460 311 -195 98 -426 137 -625 105z"/>
<path d="M4390 5909 c-159 -15 -329 -80 -493 -191 -136 -91 -329 -243 -343 -270 -13 -25 -13 -31 2 -53 9 -14 19 -25 23 -25 7 1 30 19 218 170 151 121 257 188 380 239 l88 36 240 0 c257 0 306 -7 452 -61 81 -30 253 -114 253 -122 -1 -25 -32 -117 -57 -168 -65 -130 -208 -322 -300 -401 -98 -85 -208 -159 -278 -187 -151 -60 -390 -91 -632 -80 l-164 7 3 -39 3 -39 70 -8 c39 -5 158 -6 265 -4 318 8 463 49 658 187 229 161 451 450 513 669 31 106 37 97 -129 178 -158 78 -215 100 -332 132 -67 18 -273 43 -325 40 -11 -1 -63 -6 -115 -10z"/>
<path d="M6345 4831 c-240 -191 -452 -561 -496 -863 -15 -101 -7 -228 21 -338 45 -180 164 -520 182 -520 17 0 68 31 68 41 0 6 -11 35 -25 65 -39 86 -91 243 -126 381 -30 116 -33 143 -33 278 -1 128 3 162 23 230 61 213 274 532 432 649 l37 27 22 -28 c12 -15 63 -72 113 -126 108 -118 140 -159 196 -254 101 -170 145 -333 144 -528 -1 -156 -23 -271 -91 -455 -51 -140 -73 -225 -65 -246 7 -20 47 -17 67 5 9 10 37 85 62 167 24 82 51 169 59 194 96 306 74 546 -76 844 -104 206 -239 371 -410 499 -20 15 -38 27 -40 27 -2 -1 -31 -22 -64 -49z"/>
<path d="M5155 4616 c-71 -16 -157 -51 -280 -114 -158 -81 -299 -237 -395 -437 -51 -104 -89 -215 -97 -282 -5 -47 -4 -53 13 -53 11 0 28 -3 39 -6 18 -4 22 4 36 63 21 87 88 256 133 336 126 224 381 396 628 421 l67 7 5 -33 c20 -125 26 -194 21 -235 -21 -147 -84 -328 -150 -427 -40 -61 -156 -172 -269 -257 -121 -91 -176 -159 -130 -159 9 0 46 15 83 33 159 78 346 254 418 393 89 171 148 469 125 629 -17 114 -31 130 -118 132 -38 1 -96 -4 -129 -11z"/>
<path d="M7337 4559 c-18 -208 -19 -315 -3 -406 42 -234 160 -399 435 -607 118 -90 147 -100 186 -70 20 15 19 16 -15 46 -19 16 -55 44 -80 60 -83 58 -216 167 -259 213 -133 144 -208 373 -197 600 7 162 6 159 82 151 149 -15 334 -99 488 -220 85 -68 202 -279 266 -483 35 -111 46 -121 91 -84 l23 18 -38 104 c-52 141 -90 228 -133 302 -155 267 -419 426 -738 444 l-102 6 -6 -74z"/>
</g>


</svg>