<svg width="512" height="512" viewBox="0 0 512 512" fill="none" xmlns="http://www.w3.org/2000/svg">
<g clip-path="url(#clip0)">
<path d="M421 174.739V61C421 52.716 414.284 46 406 46H346C337.716 46 331 52.716 331 61V84.787L266.606 20.394C260.756 14.543 251.275 14.534 245.415 20.372L4.41504 260.372C-1.45496 266.217 -1.47496 275.715 4.37104 281.585C10.216 287.455 19.714 287.475 25.584 281.629L61 246.36V481C61 489.284 67.716 496 76 496H196C204.284 496 211 489.284 211 481V346H301V481C301 489.284 307.716 496 316 496H436C444.284 496 451 489.284 451 481V246.603L486.452 281.665C492.34 287.488 501.838 287.44 507.665 281.548C513.491 275.658 513.438 266.16 507.548 260.335L421 174.739ZM421 466H331V331C331 322.716 324.284 316 316 316H196C187.716 316 181 322.716 181 331V466H91V216.485L255.978 52.191L335.394 131.607C339.683 135.898 346.135 137.18 351.741 134.859C357.346 132.537 361.001 127.067 361.001 121.001V76H391.001V181C391.001 185.007 392.604 188.847 395.453 191.665L421 216.932V466Z" fill="#E5E5E5"/>
<path d="M256 166C231.187 166 211 186.187 211 211C211 235.813 231.187 256 256 256C280.813 256 301 235.813 301 211C301 186.187 280.813 166 256 166ZM256 226C247.729 226 241 219.271 241 211C241 202.729 247.729 196 256 196C264.271 196 271 202.729 271 211C271 219.271 264.271 226 256 226Z" fill="#E5E5E5"/>
</g>
<defs>
<clipPath id="clip0">
<rect width="512" height="512" fill="white"/>
</clipPath>
</defs>
</svg>
