<svg width="837" height="381" viewBox="0 0 837 381" fill="none" xmlns="http://www.w3.org/2000/svg">
<path d="M506.441 379.694C489.056 377.668 464.744 370.039 456.378 364.08C454.287 362.53 451.934 353.59 453.633 353.59C454.156 353.59 456.901 355.021 459.515 356.689C477.946 368.132 510.493 374.211 538.203 371.589C563.823 368.967 583.952 362.649 603.167 350.968C609.441 347.034 617.414 340.955 620.813 337.498C624.342 333.923 627.479 330.943 628.132 330.943C628.655 330.943 629.047 333.327 629.047 336.187C629.047 341.194 628.525 341.909 620.028 349.061C592.448 372.304 547.092 384.582 506.441 379.694Z" fill="#DEB534"/>
<path d="M792.175 350.014C790.345 348.822 788.253 346.2 787.469 344.412C785.901 340.836 774.006 262.762 759.758 163.47C754.922 129.379 750.87 102.083 750.739 102.679C748.909 116.625 744.988 207.573 744.073 255.848L742.897 319.619L739.106 322.599C737.015 324.268 734.27 327.367 733.093 329.512C731.917 331.658 728.911 334.28 726.558 335.353C722.636 337.022 721.983 337.022 718.977 335.234C711.787 330.943 711.918 333.327 715.578 256.086L719.107 184.925L729.172 114.599C735.054 72.522 739.76 43.9145 740.675 43.4377C742.766 42.1265 746.557 42.2457 752.308 43.7953C756.36 44.7489 757.798 45.9409 759.758 49.9936C764.595 59.6486 776.359 127.591 783.286 186.237C790.214 244.524 794.397 272.417 796.357 274.204C797.272 275.039 797.664 274.085 797.664 271.821C797.664 269.913 801.847 219.135 806.814 158.94C811.912 98.7455 815.964 49.04 815.964 48.5632C815.964 45.8217 821.715 42.4841 826.421 42.4841C833.087 42.4841 836.878 45.9409 836.094 51.3048C832.826 72.522 822.892 196.488 819.232 261.331C814.657 344.531 814.395 346.319 807.991 350.491C803.808 353.113 796.096 352.875 792.175 350.014Z" fill="#DEB534"/>
<path d="M227.373 332.135C225.281 330.585 223.059 328.082 222.406 326.413C220.837 322.718 231.033 71.4492 233.124 60.9598C235.346 49.5168 237.438 46.0601 241.751 46.0601C246.326 46.0601 251.031 48.9208 252.731 52.7351C253.384 54.6423 252.469 96.4807 249.986 167.999C245.803 288.031 245.542 302.097 247.11 304.481C248.025 305.673 251.946 305.196 266.063 302.335C275.997 300.309 285.408 298.163 286.977 297.686C288.938 296.971 291.421 297.21 294.166 298.282C301.747 301.143 302.27 308.772 295.212 313.54C290.898 316.401 279.788 320.572 255.214 328.678C235.738 334.995 232.078 335.472 227.373 332.135Z" fill="#DEB534"/>
<path d="M159.403 326.055C153.129 322.718 152.998 321.168 156.528 255.014C159.011 207.573 159.795 179.681 159.795 134.505C159.795 71.4491 160.187 66.4428 165.808 64.0589C167.638 63.3437 169.86 62.7477 170.644 62.7477C171.559 62.7477 172.997 60.3637 173.912 57.503C174.696 54.6422 176.396 51.4239 177.441 50.3511C180.448 47.7288 185.415 47.9672 188.682 50.9471C190.774 52.8543 191.166 54.2847 190.643 58.3374C190.251 61.0789 185.676 122.108 180.578 193.865C175.35 265.622 170.644 325.102 169.86 325.936C168.292 327.724 162.671 327.724 159.403 326.055Z" fill="#DEB534"/>
<path d="M472.194 322.003C469.319 319.261 468.927 317.592 468.534 307.341C468.273 301.024 469.841 247.027 472.064 187.309C475.723 86.3489 476.246 78.2435 478.73 70.734C482.39 59.887 485.265 58.0991 495.592 60.2446C499.644 61.1982 512.845 62.1518 524.871 62.6286C546.046 63.3438 547.092 63.463 549.444 66.2045C553.366 70.6148 553.889 74.4292 551.144 77.2899C548.791 79.5547 547.745 79.6739 533.498 78.8395C514.937 77.8859 508.924 79.0779 504.218 84.6802C499.905 89.8057 497.683 101.725 498.99 113.526C500.036 123.777 500.82 124.373 511.408 121.751C520.427 119.486 541.21 119.486 544.347 121.631C545.654 122.466 547.222 124.492 547.876 126.161C548.922 128.783 548.529 129.737 545.392 132.478C542.125 135.339 540.033 135.935 526.831 137.246C508.401 139.273 502.127 141.061 500.166 144.994C499.121 146.901 497.683 176.343 495.722 230.697C492.716 319.38 492.977 317.354 485.788 322.48C481.083 325.817 475.985 325.698 472.194 322.003Z" fill="#DEB534"/>
<path d="M60.3243 320.572C56.0108 318.188 53.5273 313.54 50.7824 302.931C49.7367 298.282 43.9854 249.054 38.2341 193.269C32.4829 137.604 27.3851 90.0441 26.8623 87.7793C26.3394 85.5145 24.1174 133.074 21.8953 193.508C18.7582 278.615 17.4511 303.766 16.144 305.196C12.3534 309.368 3.98788 306.149 0.981529 299.474C-0.456291 296.375 0.327975 272.893 5.68712 154.649C11.9612 15.5455 12.092 13.5191 15.0983 8.63202C18.6275 2.79133 22.6795 1.71855 27.1237 5.53288C31.5679 9.34721 32.3521 11.8504 38.1034 39.5042C43.2011 63.5822 47.5146 91.1168 51.9588 126.519C54.4423 146.901 60.3243 185.283 61.37 188.382C61.8928 190.289 62.2849 190.409 63.1999 188.978C63.7228 188.025 69.8662 164.423 76.7939 136.65C95.7469 60.1254 110.256 7.79764 113.131 6.24807C116.399 4.3409 122.02 7.55924 124.765 12.6847C126.725 16.6183 126.725 20.4326 123.85 73.4756C121.366 117.936 120.713 144.041 120.582 195.176V260.258L116.661 264.788C113.131 268.721 112.739 270.152 112.739 277.304C112.739 281.714 113.393 288.27 114.177 291.965C116.007 299.951 115.092 303.885 111.171 305.434C106.727 307.222 102.675 306.149 99.2761 302.454C96.4005 299.236 96.1391 297.806 95.3548 277.304C93.917 241.187 94.3091 211.268 97.054 160.609C98.4919 134.147 99.5375 112.215 99.2761 112.096C98.4919 111.38 77.186 218.897 75.4867 232.009C72.7418 254.06 71.8268 286.839 73.9182 300.309C75.7482 312.586 75.0946 316.281 70.389 320.572C67.5134 323.076 64.7684 323.076 60.3243 320.572Z" fill="#DEB534"/>
<path d="M360.175 304.719C348.28 302.574 340.96 296.375 339.261 287.078C336.908 274.681 338.346 213.414 342.006 166.45C346.058 115.076 357.953 24.0085 361.613 17.691C365.796 10.42 380.043 2.31454 391.153 1.12256C395.206 0.645772 400.957 1.24176 406.97 2.55294C415.596 4.4601 417.165 5.29448 424.615 12.0888C436.51 22.9357 436.249 21.863 434.419 83.8458C432.72 140.703 423.962 260.854 420.433 276.112C417.165 290.058 412.59 297.686 405.532 301.143C397.166 305.196 373.508 307.103 360.175 304.719ZM402.395 277.304C404.355 273.489 410.237 221.4 412.721 186.713C416.25 136.889 420.171 32.71 418.733 28.1804C416.904 22.3398 409.976 16.7375 402.656 14.9495C397.035 13.5191 396.121 13.6383 390.369 16.3799C380.958 20.7902 376.775 26.3925 374.684 37.3587C371.416 54.2847 368.933 73.5948 365.011 115.195C360.959 158.464 360.175 190.289 362.266 225.453C363.704 247.504 365.273 251.676 379.259 269.079C380.697 270.986 381.35 273.489 381.873 280.045C382.004 280.522 386.317 280.88 391.415 280.641C400.173 280.284 401.088 280.045 402.395 277.304Z" fill="#DEB534"/>
<path d="M604.604 304.719C592.71 302.574 585.39 296.375 583.691 287.078C581.338 274.681 582.776 213.414 586.436 166.45C590.488 115.076 602.382 24.0085 606.042 17.691C610.225 10.42 624.473 2.31454 635.583 1.12256C639.635 0.645772 645.386 1.24176 651.399 2.55294C660.026 4.4601 661.594 5.29448 669.045 12.0888C680.94 22.9357 680.678 21.863 678.848 83.8458C677.149 140.703 668.391 260.854 664.862 276.112C661.594 290.058 657.02 297.686 649.961 301.143C641.596 305.196 617.937 307.103 604.604 304.719ZM646.824 277.304C648.785 273.489 654.667 221.4 657.15 186.713C660.679 136.889 664.601 32.71 663.163 28.1804C661.333 22.3398 654.405 16.7375 647.086 14.9495C641.465 13.5191 640.55 13.6383 634.799 16.3799C625.388 20.7902 621.205 26.3925 619.113 37.3587C615.846 54.2847 613.362 73.5948 609.441 115.195C605.389 158.464 604.604 190.289 606.696 225.453C608.134 247.504 609.702 251.676 623.688 269.079C625.126 270.986 625.78 273.489 626.302 280.045C626.433 280.522 630.747 280.88 635.844 280.641C644.602 280.284 645.517 280.045 646.824 277.304Z" fill="#DEB534"/>
</svg>
