<!DOCTYPE svg PUBLIC "-//W3C//DTD SVG 20010904//EN" "http://www.w3.org/TR/2001/REC-SVG-20010904/DTD/svg10.dtd">
<svg version="1.0" xmlns="http://www.w3.org/2000/svg" width="1199px" height="1200px" viewBox="0 0 11990 12000" preserveAspectRatio="xMidYMid meet">
<g id="layer101" fill="#2b2a29" stroke="none">
 <path d="M5640 11994 c-644 -45 -1245 -175 -1801 -390 -1592 -616 -2841 -1867 -3446 -3454 -248 -649 -376 -1318 -390 -2026 -10 -511 34 -948 144 -1439 332 -1489 1248 -2820 2528 -3675 736 -492 1592 -820 2465 -944 339 -49 502 -60 865 -60 353 0 517 11 835 55 984 137 1927 524 2728 1121 419 312 799 678 1121 1083 630 788 1061 1767 1220 2765 64 403 91 844 73 1208 -68 1373 -542 2589 -1418 3637 -201 240 -562 593 -815 798 -674 544 -1482 943 -2332 1152 -294 73 -570 119 -927 155 -104 11 -744 21 -850 14z m925 -149 c1155 -124 2205 -553 3090 -1261 843 -676 1496 -1593 1863 -2615 457 -1274 455 -2693 -7 -3972 -392 -1085 -1094 -2029 -2018 -2714 -567 -420 -1208 -737 -1877 -928 -502 -143 -946 -210 -1486 -221 -832 -19 -1626 131 -2405 456 -625 260 -1250 664 -1730 1121 -284 270 -464 470 -686 764 -683 905 -1084 1975 -1169 3125 -13 175 -13 636 0 815 104 1402 676 2688 1635 3674 838 861 1885 1435 3040 1666 294 59 472 83 800 109 130 10 807 -3 950 -19z"/>
 <path d="M6359 11433 l-57 -24 35 -87 c75 -191 146 -450 193 -702 20 -105 21 -126 11 -240 -36 -397 -191 -752 -471 -1074 l-74 -85 -27 19 c-41 30 -183 184 -250 271 -227 299 -358 646 -361 959 -1 156 67 476 163 765 27 83 50 155 50 160 1 16 -105 55 -114 42 -21 -33 -130 -392 -161 -532 -60 -271 -69 -345 -63 -485 17 -359 177 -740 446 -1061 85 -102 221 -235 283 -276 l37 -25 28 21 c35 27 153 156 220 241 143 183 265 410 332 617 59 178 81 296 88 468 5 129 3 166 -16 265 -47 247 -148 594 -215 741 l-21 47 -56 -25z"/>
 <path d="M8400 10617 c-280 -174 -522 -361 -798 -617 -143 -132 -203 -212 -303 -405 -225 -436 -304 -963 -224 -1511 17 -120 66 -334 89 -388 l14 -34 69 4 c279 18 489 58 745 140 555 179 1043 560 1235 962 157 330 351 898 365 1071 3 35 3 35 -55 46 l-57 12 -6 -26 c-97 -439 -323 -1035 -463 -1220 -302 -402 -801 -693 -1387 -811 -98 -19 -354 -53 -360 -47 -6 6 -63 303 -76 392 -8 54 -13 183 -12 325 0 195 4 257 22 364 51 298 130 524 259 746 84 144 118 185 272 325 241 220 503 420 724 555 49 30 90 57 92 60 5 8 -47 110 -55 110 -3 0 -43 -24 -90 -53z"/>
 <path d="M3368 10588 c-8 -13 -22 -37 -31 -55 l-17 -32 98 -57 c280 -164 647 -441 865 -653 165 -160 344 -533 416 -865 72 -330 68 -753 -9 -1113 l-12 -53 -53 0 c-203 0 -597 87 -836 185 -360 147 -630 339 -865 614 -93 108 -232 397 -358 741 -53 145 -146 460 -146 495 0 8 -7 15 -16 15 -15 0 -106 -21 -112 -25 -5 -4 47 -199 93 -349 104 -336 316 -805 422 -936 80 -99 268 -280 369 -357 203 -154 452 -282 720 -372 245 -82 609 -145 794 -139 l85 3 26 105 c54 215 74 390 74 665 0 277 -16 416 -75 647 -79 315 -271 682 -438 840 -266 250 -624 516 -923 686 l-57 32 -14 -22z"/>
 <path d="M10535 8293 c-88 -7 -297 -35 -410 -54 -265 -44 -522 -194 -780 -453 -196 -198 -346 -422 -440 -659 -34 -85 -36 -83 127 -164 441 -222 951 -272 1379 -137 178 56 556 301 830 537 l43 38 -45 44 -45 45 -83 -71 c-159 -134 -396 -297 -586 -403 -110 -61 -255 -105 -421 -127 -138 -18 -413 -6 -549 24 -151 34 -311 88 -429 145 l-99 47 60 115 c151 294 378 551 631 715 103 66 265 141 353 164 168 43 674 89 817 75 57 -6 62 -5 62 13 0 11 3 41 6 67 l7 46 -194 -2 c-107 -1 -212 -3 -234 -5z"/>
 <path d="M956 8043 l-38 -4 4 -59 c2 -33 6 -61 9 -63 2 -2 67 1 144 6 155 10 496 -3 675 -27 306 -41 668 -274 911 -586 101 -129 225 -339 216 -363 -7 -18 -148 -90 -272 -140 -325 -130 -657 -163 -988 -97 -83 17 -126 33 -232 86 -226 115 -416 233 -583 361 l-83 63 -27 -31 c-58 -68 -58 -62 11 -116 265 -208 677 -440 857 -481 143 -33 220 -42 384 -42 229 0 403 31 647 116 115 40 301 131 402 196 l68 44 -19 25 c-11 13 -42 69 -70 124 -184 368 -477 667 -821 840 -244 122 -377 146 -851 150 -168 2 -322 1 -344 -2z"/>
 <path d="M9320 5943 c-108 -12 -300 -49 -405 -80 -303 -88 -648 -259 -887 -441 -41 -31 -46 -38 -35 -51 8 -9 22 -38 32 -66 30 -84 147 -314 213 -418 259 -412 593 -716 992 -905 285 -135 409 -155 950 -156 283 -1 387 3 515 17 88 10 163 22 167 26 7 6 -5 107 -13 116 -3 2 -59 -3 -124 -11 -167 -21 -686 -30 -901 -15 -213 15 -270 27 -429 90 -409 163 -758 458 -1026 868 -74 115 -219 394 -219 423 0 40 336 229 575 324 414 164 833 205 1238 120 108 -22 141 -35 282 -106 288 -144 597 -339 827 -521 l88 -69 27 33 c59 69 63 59 -50 146 -248 194 -518 364 -822 519 -196 99 -263 120 -480 149 -100 13 -419 18 -515 8z"/>
 <path d="M2400 5860 c-113 -14 -284 -48 -385 -77 -235 -66 -780 -427 -1119 -740 l-59 -55 44 -44 45 -44 79 71 c307 276 818 618 1016 680 222 70 418 94 678 86 326 -10 638 -88 956 -237 82 -38 258 -132 274 -146 8 -8 -45 -137 -119 -289 -265 -542 -683 -950 -1174 -1145 -174 -69 -667 -117 -1093 -107 l-242 6 -7 -56 c-5 -40 -3 -57 6 -63 22 -13 335 -23 515 -16 217 8 356 21 575 52 197 28 231 37 384 106 541 242 994 746 1247 1385 75 189 78 169 -38 241 -299 185 -669 320 -1028 377 -119 19 -450 28 -555 15z"/>
 <path d="M6003 3886 c-99 -83 -282 -267 -366 -369 -357 -430 -567 -967 -567 -1451 0 -134 43 -348 137 -676 65 -230 222 -640 244 -640 6 0 32 11 59 25 l49 25 -35 82 c-132 307 -234 642 -309 1011 -24 121 -25 136 -16 263 42 549 290 1055 732 1491 126 123 164 156 179 151 22 -7 197 -170 274 -253 358 -391 555 -785 631 -1258 25 -156 22 -290 -9 -447 -78 -388 -164 -677 -303 -1016 -4 -10 82 -54 105 -54 27 0 177 430 246 705 96 383 118 553 97 750 -56 525 -312 1040 -727 1460 -117 119 -299 275 -320 275 -7 0 -53 -33 -101 -74z"/>
 <path d="M4016 3519 c-386 -50 -770 -219 -1039 -457 -95 -84 -214 -217 -257 -288 -48 -79 -171 -352 -229 -507 -48 -128 -111 -335 -111 -362 0 -7 25 -17 56 -24 59 -13 73 -8 74 27 0 28 105 333 157 457 143 339 219 453 408 613 210 177 429 290 700 362 104 28 295 63 302 56 2 -1 10 -54 19 -117 24 -169 14 -451 -21 -619 -64 -307 -194 -572 -357 -726 -173 -163 -436 -373 -576 -458 l-62 -38 25 -41 c14 -23 29 -48 34 -56 6 -10 28 -1 96 44 282 186 609 470 704 612 208 311 315 715 297 1119 -5 121 -34 339 -52 397 -6 19 -49 21 -168 6z"/>
 <path d="M7831 3507 c-19 -49 -41 -191 -52 -332 -32 -402 74 -822 288 -1143 78 -116 267 -292 511 -476 113 -85 281 -196 297 -196 10 0 71 99 63 104 -361 231 -672 494 -776 656 -112 172 -195 385 -234 596 -18 100 -21 153 -20 329 0 128 6 237 14 280 l13 70 50 -3 c84 -6 284 -49 398 -87 145 -48 289 -119 421 -205 139 -93 324 -274 385 -376 93 -159 245 -520 305 -728 14 -49 28 -91 30 -93 10 -10 116 21 116 33 0 31 -77 263 -137 414 -91 229 -199 441 -270 531 -124 155 -326 318 -523 423 -237 125 -495 197 -792 221 -76 7 -78 6 -87 -18z"/>
 </g>

</svg>