<!DOCTYPE svg PUBLIC "-//W3C//DTD SVG 20010904//EN" "http://www.w3.org/TR/2001/REC-SVG-20010904/DTD/svg10.dtd">
<svg version="1.0" xmlns="http://www.w3.org/2000/svg" width="1199px" height="1200px" viewBox="0 0 11990 12000" preserveAspectRatio="xMidYMid meet">
<g id="layer101" fill="#2b2a29" stroke="none">
 <path d="M5645 11989 c-1058 -67 -2089 -412 -2960 -992 -331 -221 -583 -426 -879 -717 -554 -545 -982 -1159 -1288 -1848 -596 -1344 -680 -2856 -237 -4256 460 -1451 1451 -2667 2785 -3416 852 -479 1803 -736 2794 -757 1185 -24 2349 300 3341 932 376 240 655 462 983 785 447 439 782 884 1090 1446 311 568 552 1292 646 1934 93 646 93 1164 -1 1815 -132 908 -514 1844 -1064 2605 -601 832 -1438 1518 -2368 1940 -894 405 -1883 589 -2842 529z m925 -143 c224 -23 347 -42 595 -91 971 -195 1882 -637 2640 -1285 491 -419 895 -897 1230 -1455 113 -187 300 -562 382 -765 316 -780 458 -1544 440 -2370 -12 -527 -80 -987 -218 -1473 -226 -797 -597 -1498 -1146 -2170 -123 -150 -538 -572 -687 -698 -940 -794 -2029 -1257 -3261 -1386 -213 -22 -879 -25 -1075 -5 -936 97 -1710 347 -2475 800 -1462 865 -2470 2321 -2774 4008 -70 388 -86 583 -85 1049 0 330 3 421 22 591 128 1176 568 2224 1322 3145 247 302 594 640 915 891 889 695 2009 1132 3120 1218 77 5 158 12 180 14 98 10 730 -4 875 -18z"/>
 <path d="M6783 11143 c-36 -4 -43 -8 -43 -25 0 -12 11 -164 25 -337 14 -174 45 -593 70 -931 25 -338 57 -757 70 -930 14 -173 25 -334 25 -357 l0 -43 -915 0 -914 0 5 48 c3 26 27 378 54 782 27 404 66 968 85 1254 20 285 34 520 31 523 -2 3 -31 7 -64 10 l-59 5 -6 -98 c-26 -388 -121 -1784 -141 -2074 -14 -195 -28 -406 -32 -469 l-7 -114 1047 5 c576 3 1049 8 1051 10 5 4 -42 670 -105 1483 -46 607 -90 1204 -90 1236 0 31 5 30 -87 22z"/>
 <path d="M3226 10927 l-48 -42 59 -70 c242 -289 1173 -1404 1190 -1426 11 -13 3 -22 -50 -61 -34 -24 -217 -156 -407 -293 -190 -137 -416 -300 -503 -363 -87 -63 -162 -110 -166 -106 -5 5 -158 254 -341 554 -183 300 -411 674 -508 831 l-175 287 -51 -31 c-28 -17 -53 -32 -55 -33 -2 -2 54 -96 125 -211 148 -241 867 -1416 928 -1515 22 -38 44 -68 48 -68 4 0 155 107 336 238 181 130 482 347 670 482 188 135 342 248 342 252 0 4 -105 132 -233 285 -128 153 -394 472 -592 708 -197 237 -395 473 -438 525 -44 52 -81 96 -82 97 0 1 -23 -17 -49 -40z"/>
 <path d="M8700 10806 c-140 -163 -781 -908 -1087 -1263 -101 -117 -183 -216 -183 -220 0 -5 98 -81 218 -169 889 -658 1116 -824 1123 -817 6 7 297 465 589 928 104 165 226 358 370 585 78 124 146 233 151 242 7 14 0 23 -35 47 -25 17 -49 31 -54 31 -6 0 -176 -262 -378 -582 -203 -321 -439 -694 -525 -830 l-157 -248 -543 401 c-299 221 -552 409 -561 418 -17 15 -15 20 35 77 28 33 214 249 412 479 198 230 463 537 588 683 249 289 237 267 168 321 l-36 28 -95 -111z"/>
 <path d="M1500 8428 c-6 -24 -13 -50 -16 -58 -3 -13 47 -30 258 -87 145 -40 443 -121 663 -182 403 -110 1153 -315 1430 -391 83 -22 155 -43 162 -45 12 -4 9 -13 -185 -565 -49 -140 -156 -444 -236 -675 -81 -231 -152 -435 -159 -452 -6 -18 -16 -33 -22 -33 -5 0 -93 36 -195 81 -102 44 -250 109 -330 144 -122 53 -966 419 -1535 667 -88 39 -195 85 -238 104 -43 19 -84 34 -91 34 -15 0 -59 -101 -48 -111 4 -3 259 -116 567 -249 825 -358 828 -359 1370 -595 275 -120 519 -226 542 -236 l42 -18 34 102 c19 56 79 226 132 377 53 151 130 370 170 485 40 116 115 327 165 470 151 430 191 547 186 552 -5 5 -149 46 -471 133 -99 27 -288 79 -420 115 -132 36 -411 113 -620 170 -209 57 -545 149 -747 204 -201 56 -373 101 -382 101 -10 0 -19 -16 -26 -42z"/>
 <path d="M10580 8238 c-25 -5 -178 -39 -340 -74 -162 -35 -396 -87 -520 -113 -124 -27 -340 -74 -480 -105 -380 -83 -828 -180 -1070 -233 -118 -25 -216 -47 -217 -48 -1 0 20 -75 46 -165 139 -471 175 -594 236 -800 37 -124 91 -306 120 -405 29 -99 81 -274 115 -390 34 -115 65 -220 67 -232 7 -29 8 -29 101 6 42 17 282 106 532 199 250 94 678 253 950 355 401 150 861 321 987 368 l22 8 -21 61 c-16 49 -24 60 -37 55 -18 -7 -664 -249 -1421 -532 -272 -101 -612 -228 -755 -282 -169 -64 -262 -94 -266 -87 -4 6 -61 196 -127 421 -66 226 -157 534 -202 685 -45 151 -103 349 -130 440 -27 91 -52 173 -55 182 -5 13 -1 19 17 23 12 2 138 30 278 60 249 54 472 103 1030 224 265 58 769 168 1070 233 80 17 148 34 153 38 11 9 -14 120 -27 119 -6 -1 -31 -6 -56 -11z"/>
 <path d="M2335 5734 c-16 -7 -316 -127 -665 -265 -1313 -518 -1242 -489 -1236 -513 12 -50 38 -97 49 -93 7 3 75 30 152 60 77 30 293 116 480 190 187 74 437 173 555 220 118 47 307 122 419 166 112 45 207 81 211 81 4 0 12 -17 17 -37 6 -21 48 -155 93 -298 45 -143 97 -307 115 -365 18 -58 69 -221 114 -364 45 -142 79 -262 74 -266 -4 -4 -118 -33 -253 -63 -135 -31 -371 -86 -525 -122 -401 -94 -629 -148 -1111 -260 -21 -5 -22 -6 -7 -65 9 -35 21 -60 29 -60 7 0 77 16 156 35 79 19 289 68 468 110 179 42 390 91 470 110 201 48 813 190 883 206 31 7 57 16 57 21 0 10 -58 198 -144 473 -32 99 -93 293 -136 430 -43 138 -104 331 -136 430 -31 99 -62 197 -68 218 -11 41 -17 43 -61 21z"/>
 <path d="M9463 5287 c-72 -221 -188 -577 -258 -791 -70 -213 -123 -392 -118 -396 10 -10 2024 -512 2030 -506 10 10 32 111 25 116 -4 3 -430 111 -947 239 -517 129 -943 237 -947 240 -6 5 349 1113 414 1292 l13 36 360 -149 c198 -81 414 -171 480 -198 66 -27 208 -85 315 -130 321 -133 656 -270 662 -270 7 0 52 110 47 114 -2 1 -29 13 -59 25 -30 12 -131 54 -225 93 -93 39 -222 92 -285 118 -196 80 -967 399 -1130 467 -85 35 -176 73 -201 83 l-45 18 -131 -401z"/>
 <path d="M3752 4723 c-27 -43 -183 -289 -347 -548 -164 -258 -328 -517 -365 -575 -37 -58 -174 -274 -305 -480 -130 -206 -275 -434 -321 -506 -46 -72 -84 -133 -84 -136 0 -3 23 -21 52 -39 47 -31 52 -32 62 -16 16 26 245 387 626 987 183 289 427 674 543 855 115 182 214 335 220 341 9 9 59 -23 202 -130 251 -186 612 -452 970 -716 160 -117 294 -217 299 -221 4 -4 -369 -447 -830 -986 -460 -538 -844 -986 -852 -996 -14 -16 -12 -20 28 -55 24 -20 47 -37 51 -37 9 0 1789 2076 1789 2087 0 4 -57 49 -126 100 -69 51 -226 167 -349 258 -123 91 -330 244 -460 340 -131 96 -351 259 -491 363 -139 103 -255 187 -257 187 -3 0 -27 -35 -55 -77z"/>
 <path d="M8160 4746 c-8 -8 -64 -50 -125 -93 -60 -44 -245 -178 -410 -298 -737 -537 -937 -683 -1033 -752 l-102 -75 42 -50 c111 -131 533 -632 1088 -1293 157 -186 303 -360 325 -385 22 -25 103 -121 180 -213 77 -92 142 -167 145 -167 3 1 25 18 49 39 l44 39 -61 74 c-67 82 -142 170 -476 567 -496 588 -686 814 -801 951 -66 79 -171 203 -232 276 -62 73 -113 135 -113 137 0 5 128 99 775 571 143 104 357 260 477 348 119 87 219 158 221 158 6 0 49 -68 915 -1460 91 -146 234 -377 319 -513 l155 -248 31 19 c18 10 42 25 54 32 l22 14 -21 36 c-33 53 -542 871 -868 1395 -75 121 -213 342 -305 490 -290 467 -263 432 -295 401z"/>
 <path d="M5150 2460 c0 -48 136 -1933 146 -2027 l5 -53 47 0 c84 0 81 -59 28 677 -75 1052 -85 1185 -90 1241 l-5 52 700 0 699 0 0 -23 c0 -12 -9 -132 -20 -267 -11 -135 -40 -524 -65 -865 -25 -341 -49 -661 -53 -712 -9 -104 -9 -103 75 -103 l41 0 6 48 c3 26 8 83 11 127 3 44 25 346 50 670 24 325 53 716 64 870 11 154 23 304 26 333 l5 52 -835 0 c-833 0 -835 0 -835 -20z"/>
 </g>

</svg>