<!DOCTYPE svg PUBLIC "-//W3C//DTD SVG 20010904//EN" "http://www.w3.org/TR/2001/REC-SVG-20010904/DTD/svg10.dtd">
<svg version="1.0" xmlns="http://www.w3.org/2000/svg" width="1199px" height="1200px" viewBox="0 0 11990 12000" preserveAspectRatio="xMidYMid meet">
<g id="layer101" fill="#1e1e1e" stroke="none">
<path d="M0 6000 l0 -6000 5995 0 5995 0 0 6000 0 6000 -5995 0 -5995 0 0 -6000z"/>
</g>
<g id="layer102" fill="#313131" stroke="none">
<path d="M0 6000 l0 -6000 5995 0 5995 0 0 2955 c0 2948 0 2955 -20 2955 -13 0 -20 -7 -20 -20 0 -11 5 -20 11 -20 7 0 9 -11 5 -30 -15 -72 -16 -95 -2 -50 l14 45 1 -63 c1 -40 -3 -61 -9 -57 -6 4 -8 -27 -6 -87 4 -71 3 -82 -4 -48 -6 32 -7 14 -4 -65 3 -76 -2 -158 -16 -265 -25 -199 -39 -290 -45 -300 -3 -4 -9 -39 -15 -78 -9 -65 -60 -285 -114 -487 -34 -126 -135 -430 -185 -555 -24 -58 -55 -134 -69 -170 -14 -36 -39 -90 -54 -120 -15 -30 -28 -60 -28 -66 0 -6 -9 -21 -20 -34 -11 -13 -20 -29 -20 -36 0 -21 -155 -319 -215 -414 -20 -32 -91 -150 -126 -210 -7 -14 -20 -29 -26 -33 -7 -4 -13 -12 -13 -17 0 -9 -58 -100 -70 -110 -9 -7 -120 -169 -120 -175 0 -5 -40 -53 -72 -87 -10 -10 -18 -21 -18 -24 0 -7 -117 -153 -145 -179 -11 -11 -27 -29 -35 -41 -8 -11 -33 -41 -54 -67 -34 -39 -44 -45 -68 -40 -23 5 -28 2 -28 -15 0 -11 6 -22 13 -25 19 -7 -437 -455 -535 -526 -11 -7 -33 -26 -49 -42 -16 -16 -53 -46 -82 -67 -28 -22 -58 -46 -66 -55 -7 -10 -17 -17 -22 -17 -4 0 -25 -16 -46 -35 -42 -38 -53 -43 -53 -20 0 8 -9 15 -20 15 -15 0 -20 -7 -20 -25 0 -28 -29 -60 -97 -107 -27 -17 -52 -36 -58 -41 -5 -4 -68 -46 -140 -92 -71 -47 -140 -92 -153 -100 -21 -15 -22 -15 -22 5 0 13 -7 20 -20 20 -13 0 -20 -7 -20 -20 0 -11 6 -20 12 -20 29 0 -126 -88 -342 -195 -63 -31 -123 -61 -132 -65 -26 -14 -239 -110 -244 -110 -2 0 -4 7 -4 15 0 9 -9 15 -21 15 -17 0 -20 -5 -17 -23 4 -18 -2 -26 -21 -35 -117 -49 -151 -58 -151 -37 0 8 -9 15 -20 15 -14 0 -20 -7 -20 -24 0 -17 -9 -27 -32 -36 -18 -7 -46 -19 -63 -26 -34 -14 -226 -74 -237 -74 -5 0 -8 7 -8 15 0 8 -9 15 -20 15 -15 0 -20 -7 -20 -25 0 -14 -1 -25 -2 -25 -2 0 -93 -23 -202 -50 -185 -46 -281 -62 -248 -41 11 7 10 10 -3 15 -31 12 -45 6 -45 -17 0 -22 -7 -25 -87 -41 -236 -46 -526 -80 -610 -72 -42 4 -62 3 -65 -5 -3 -8 -52 -8 -193 0 -163 10 -562 12 -497 3 12 -2 22 -8 22 -14 0 -6 -12 -8 -31 -4 -17 3 -64 7 -103 8 l-71 1 60 8 c38 4 13 5 -68 3 -161 -5 -207 1 -207 29 0 17 -5 19 -31 13 -17 -3 -37 -6 -43 -7 -6 -1 0 -5 14 -10 31 -11 -89 -3 -175 12 -160 27 -240 42 -352 66 -115 25 -123 28 -123 50 0 16 -6 23 -20 23 -12 0 -20 -7 -20 -16 0 -13 -7 -15 -42 -9 -66 11 -88 22 -88 45 0 13 -7 20 -20 20 -11 0 -20 -7 -20 -16 0 -10 -6 -14 -17 -10 -10 3 -45 12 -78 20 -33 9 -94 27 -135 42 -41 14 -88 30 -105 34 -30 8 -174 60 -227 81 -20 8 -28 19 -28 35 0 17 -6 24 -20 24 -11 0 -20 -7 -20 -15 0 -8 -4 -15 -10 -15 -5 0 -10 5 -10 11 0 5 -4 8 -9 5 -5 -3 -53 14 -107 39 -55 25 -105 45 -111 45 -9 0 -11 10 -6 30 5 26 3 30 -16 30 -12 0 -21 -6 -21 -15 0 -8 -4 -15 -9 -15 -5 0 -77 34 -160 75 -83 41 -156 75 -161 75 -6 0 -10 4 -10 9 0 5 -10 13 -23 17 -12 4 -40 18 -62 33 -22 14 -60 36 -85 50 -68 36 -85 53 -82 78 4 25 -15 30 -46 14 -16 -8 -56 14 -159 87 -10 7 -52 35 -93 63 -41 28 -76 55 -76 60 -1 5 -2 18 -3 29 -1 14 -8 20 -25 20 -13 0 -26 -5 -28 -11 -3 -8 -8 -7 -18 2 -8 8 -37 32 -64 54 -26 22 -43 41 -37 43 6 2 11 12 11 23 0 24 -35 26 -44 3 -5 -13 -14 -9 -49 22 -24 22 -77 66 -117 99 -201 164 -551 512 -723 720 -55 66 -104 122 -109 123 -4 2 -8 10 -8 18 0 8 -4 14 -9 14 -5 0 -12 7 -15 16 -4 12 -2 15 9 10 11 -4 15 1 15 19 0 18 -5 25 -19 25 -11 0 -22 6 -25 13 -3 6 -3 1 1 -13 5 -22 4 -23 -10 -12 -8 7 -35 39 -59 70 -24 31 -46 59 -51 60 -4 2 -7 10 -7 17 0 8 -6 20 -13 27 -7 7 -35 47 -62 88 -28 41 -53 77 -56 80 -24 19 -219 350 -219 371 0 5 5 9 10 9 6 0 10 9 10 20 0 22 -35 29 -42 8 -3 -8 -10 -3 -18 12 -13 24 -12 24 5 10 17 -14 18 -13 12 3 -4 10 -7 20 -7 23 0 2 -6 1 -12 -1 -17 -6 -183 322 -269 530 -18 44 -37 84 -41 89 -4 6 -8 16 -8 24 0 8 -6 28 -14 45 -8 18 -27 68 -42 112 -14 44 -44 130 -64 190 -51 148 -83 262 -124 435 -112 474 -146 724 -142 1060 1 137 -1 194 -6 156 -11 -86 -18 -81 -18 12 0 66 3 82 15 82 12 0 15 18 15 104 0 68 -4 106 -11 108 -8 3 -8 19 1 59 10 43 10 75 1 139 -14 103 -14 180 -1 180 13 0 13 27 -1 32 -10 3 16 266 41 408 32 191 45 256 67 350 13 58 25 111 25 118 1 6 12 12 25 12 16 0 23 6 23 20 0 11 -7 20 -15 20 -20 0 -19 21 6 110 78 278 184 592 245 727 8 17 14 34 14 37 0 9 35 88 84 186 35 73 44 85 64 82 16 -3 22 2 22 16 0 11 -4 22 -10 24 -6 2 -6 14 -1 33 5 17 10 24 10 18 2 -22 41 -15 41 7 0 11 -7 20 -15 20 -18 0 -19 5 -4 28 8 12 20 17 35 14 19 -3 24 0 24 17 0 19 -11 26 -35 21 -5 -1 -2 7 8 18 9 10 17 21 17 25 0 3 14 30 31 59 18 29 44 76 58 103 15 28 34 61 42 75 71 113 99 153 99 145 0 -6 9 8 19 30 11 22 20 34 20 28 1 -7 10 -13 21 -13 25 0 28 35 4 44 -15 6 -15 8 1 26 10 11 22 17 28 13 6 -3 7 -1 3 5 -4 7 0 22 8 34 9 12 16 17 16 10 0 -6 9 -12 20 -12 16 0 20 7 20 33 0 23 -3 28 -10 17 -5 -8 -12 -11 -15 -8 -6 6 46 92 64 108 3 3 33 41 66 85 78 104 74 98 147 186 35 42 74 91 88 108 20 25 30 30 49 26 21 -5 23 -4 12 9 -11 13 -10 18 3 31 9 9 16 12 16 6 0 -6 9 -11 20 -11 25 0 27 37 3 42 -13 3 54 76 245 266 144 144 267 262 272 262 6 0 25 15 43 33 17 18 44 41 58 52 25 19 135 109 169 138 8 7 49 37 90 67 41 29 77 56 80 60 15 21 80 50 113 50 25 0 37 4 37 14 0 8 -5 16 -12 18 -12 4 93 88 111 88 5 0 30 16 55 35 26 19 53 35 61 35 8 0 15 5 15 10 0 6 10 15 23 20 12 6 45 24 72 40 98 58 185 100 183 88 -2 -7 7 -14 20 -16 23 -4 32 21 11 33 -11 8 103 76 196 117 80 35 105 42 105 29 0 -6 10 -11 21 -11 17 0 20 5 17 23 -4 18 2 26 21 34 14 6 60 25 101 43 41 17 89 37 106 45 28 12 31 12 30 -3 0 -9 7 -18 17 -20 13 -3 17 3 17 22 0 19 7 29 28 38 15 6 41 16 57 23 17 7 80 29 140 49 61 20 118 41 127 46 10 6 23 10 30 10 7 0 63 15 123 34 149 48 393 106 411 99 7 -3 14 -9 14 -14 0 -5 9 -9 20 -9 13 0 20 7 20 18 0 16 20 23 118 45 64 14 153 30 197 36 44 6 95 13 113 17 28 6 32 4 32 -15 0 -14 6 -21 20 -21 15 0 20 7 20 25 0 22 4 25 33 25 19 0 76 2 128 5 52 3 84 1 71 -3 -12 -4 43 -8 123 -9 139 -2 145 -1 145 18 0 20 6 20 278 18 239 -2 271 -4 232 -15 l-45 -12 65 4 c49 3 59 1 40 -6 -19 -7 -15 -8 20 -3 25 3 48 10 51 15 7 11 173 -2 409 -33 85 -11 176 -23 203 -26 26 -3 50 -10 53 -14 3 -5 17 -9 32 -9 29 0 101 -14 247 -49 50 -12 110 -26 135 -32 25 -5 90 -24 145 -40 55 -17 132 -40 170 -51 39 -11 86 -25 105 -32 64 -24 104 -38 160 -56 51 -17 86 -31 195 -80 22 -9 65 -27 95 -39 126 -51 390 -180 536 -263 62 -35 70 -43 66 -64 -3 -19 0 -24 17 -24 11 0 21 5 21 10 0 17 15 11 86 -31 38 -23 82 -48 97 -58 76 -44 122 -86 119 -108 -3 -18 2 -23 17 -23 12 0 21 4 21 10 0 18 85 -29 103 -57 4 -7 15 -13 22 -13 8 0 15 -4 15 -8 0 -4 15 -16 33 -27 17 -10 37 -24 43 -29 6 -6 22 -18 34 -26 12 -8 28 -19 34 -25 6 -5 38 -31 71 -57 33 -26 74 -59 90 -73 17 -14 50 -41 75 -61 130 -104 396 -360 539 -518 64 -71 135 -150 158 -175 23 -25 42 -49 43 -53 0 -4 10 -17 23 -30 12 -13 42 -50 66 -83 25 -33 48 -62 51 -65 4 -3 37 -48 75 -100 38 -52 72 -97 75 -100 4 -3 34 -48 68 -100 34 -52 66 -100 72 -107 5 -7 10 -15 10 -19 0 -4 6 -15 14 -23 8 -9 23 -32 34 -51 10 -19 45 -76 76 -127 76 -125 289 -548 336 -668 5 -11 23 -56 41 -100 31 -79 89 -240 89 -250 0 -3 -7 -5 -15 -5 -9 0 -15 -9 -15 -21 0 -17 5 -20 25 -17 21 4 26 -1 41 -36 9 -23 25 -72 35 -111 11 -38 26 -92 35 -120 35 -117 97 -364 105 -418 5 -32 17 -93 28 -135 10 -42 24 -115 30 -162 7 -47 17 -107 22 -133 14 -71 12 -107 -6 -107 -8 0 -15 -9 -15 -20 0 -13 7 -20 19 -20 16 0 21 -9 26 -42 9 -60 11 -277 4 -373 -3 -44 -4 -63 -2 -42 7 61 23 42 23 -28 0 -53 -3 -63 -15 -59 -11 5 -15 -1 -15 -20 0 -19 5 -26 20 -26 20 0 20 7 20 2940 l0 2940 -5995 0 -5995 0 0 -6000z m5739 5974 c13 -12 -16 -15 -86 -8 -76 8 -77 9 -33 15 42 6 110 2 119 -7z m-5710 -5761 c-1 -21 -5 -51 -9 -68 -6 -23 -8 -15 -9 38 -1 39 3 67 9 67 6 0 9 -17 9 -37z m-2 -685 c-2 -18 -4 -4 -4 32 0 36 2 50 4 33 2 -18 2 -48 0 -65z m6113 -5508 c14 -5 -57 -8 -165 -8 -110 1 -171 4 -145 8 63 10 280 10 310 0z"/>
<path d="M5790 11890 c0 -11 -6 -20 -13 -20 -116 0 -528 -41 -707 -70 -36 -6 -83 -13 -105 -16 -22 -3 -49 -9 -60 -14 -11 -5 -38 -11 -60 -14 -22 -2 -71 -12 -110 -21 -38 -8 -83 -18 -98 -22 -21 -4 -27 -2 -25 8 2 8 -7 15 -19 17 -18 3 -23 -1 -23 -20 0 -22 -7 -26 -82 -43 -46 -10 -92 -22 -103 -26 -11 -4 -60 -20 -110 -35 -88 -26 -400 -135 -440 -153 -11 -5 -51 -22 -90 -36 -122 -47 -679 -327 -705 -355 -3 -3 -25 -16 -50 -29 -25 -13 -64 -37 -88 -53 -50 -32 -52 -33 -52 -13 0 9 -9 15 -21 15 -16 0 -20 -5 -17 -24 4 -30 -14 -46 -147 -134 -55 -37 -104 -70 -110 -74 -5 -5 -34 -27 -64 -50 -34 -27 -56 -38 -59 -30 -2 6 -13 12 -24 12 -16 0 -19 -5 -16 -24 6 -31 3 -36 -52 -75 -43 -31 -114 -91 -185 -156 -17 -16 -54 -48 -81 -70 -138 -113 -545 -545 -674 -714 -19 -25 -39 -52 -45 -58 -12 -15 -69 -92 -160 -216 -36 -49 -65 -84 -65 -78 0 6 -9 11 -20 11 -17 0 -20 -7 -20 -40 0 -60 -18 -90 -53 -90 -27 0 -29 -2 -24 -29 7 -33 -10 -69 -111 -238 -84 -140 -248 -468 -292 -583 -15 -40 -30 -60 -30 -42 0 7 -7 12 -15 12 -8 0 -15 -9 -15 -20 0 -11 5 -20 11 -20 14 0 6 -26 -66 -212 -36 -91 -45 -120 -80 -233 -21 -66 -43 -138 -50 -160 -23 -68 -64 -225 -86 -325 -11 -52 -27 -124 -35 -160 -8 -36 -20 -94 -25 -130 -5 -36 -14 -81 -18 -100 -5 -19 -12 -62 -15 -95 -13 -122 -17 -135 -37 -135 -20 0 -24 -21 -9 -55 8 -19 9 -19 9 -1 1 11 4 17 7 14 3 -3 -2 -93 -10 -200 -18 -219 -21 -689 -6 -893 19 -255 57 -548 94 -720 54 -250 53 -245 31 -245 -8 0 -15 -9 -15 -20 0 -14 7 -20 23 -20 19 0 25 -11 46 -83 55 -194 76 -261 126 -412 30 -88 68 -194 86 -235 17 -41 43 -102 56 -135 14 -33 37 -87 51 -120 31 -73 203 -409 265 -520 32 -57 40 -81 31 -83 -8 -2 -14 -13 -14 -24 0 -17 5 -20 29 -15 21 4 31 2 35 -9 12 -31 157 -248 289 -434 65 -90 60 -85 149 -191 35 -41 83 -99 108 -129 25 -30 67 -79 95 -109 72 -82 412 -419 469 -466 26 -22 62 -53 80 -70 17 -16 49 -43 71 -59 22 -17 42 -32 45 -35 12 -14 88 -78 114 -96 36 -26 111 -81 156 -115 67 -50 249 -170 260 -170 5 0 10 -4 10 -8 0 -7 58 -43 238 -150 75 -45 399 -210 482 -246 36 -15 85 -37 110 -48 93 -42 237 -101 290 -118 30 -10 96 -33 145 -50 165 -58 436 -135 580 -164 39 -8 113 -23 165 -34 52 -11 129 -26 170 -32 41 -7 95 -15 120 -20 25 -5 97 -13 160 -20 63 -6 151 -16 195 -21 127 -17 701 -23 860 -10 222 17 610 64 613 73 2 4 14 8 28 8 79 0 516 100 719 165 61 19 128 40 150 47 22 7 51 18 65 25 14 7 30 13 37 13 20 0 176 59 286 109 37 16 67 27 67 24 0 -3 9 2 19 11 19 17 19 17 14 -3 -4 -16 -1 -21 16 -21 15 0 21 6 21 24 0 17 9 27 33 37 184 74 649 335 887 499 164 113 333 244 515 398 298 252 652 632 897 962 34 47 67 90 73 97 30 36 35 43 35 48 0 3 41 67 90 142 50 74 90 138 90 140 0 3 8 17 19 31 31 44 170 298 242 442 59 119 199 439 199 456 0 5 13 36 41 99 5 11 18 49 29 85 12 36 24 72 27 80 4 8 16 44 28 80 16 51 25 66 43 68 26 4 31 42 6 42 -10 0 -14 6 -10 18 43 142 133 518 146 614 6 39 12 73 15 77 3 6 35 232 35 253 0 4 9 8 20 8 22 0 26 16 10 40 -6 10 -10 11 -10 3 0 -7 -4 -13 -10 -13 -5 0 -7 6 -5 13 9 25 35 382 35 487 0 122 4 140 31 140 17 0 19 8 19 60 0 52 -2 60 -19 60 -11 0 -22 -6 -24 -12 -3 -7 -6 48 -6 122 -2 248 -52 725 -95 899 -8 31 -17 79 -20 106 -13 98 -131 548 -167 630 -4 11 -13 40 -20 65 -6 25 -14 50 -18 55 -4 6 -17 42 -30 80 -12 39 -27 79 -31 90 -20 47 -22 65 -6 65 10 0 16 9 16 21 0 16 -5 20 -26 17 -24 -3 -29 4 -75 112 -50 119 -56 140 -39 140 6 0 10 9 10 20 0 22 -35 28 -43 8 -3 -8 -6 -6 -6 4 -1 10 -14 43 -31 73 -16 30 -30 61 -30 67 0 6 -6 19 -14 27 -7 9 -37 61 -66 116 -81 154 -109 205 -155 275 -86 133 -95 150 -85 150 5 0 10 14 10 30 0 23 -4 30 -20 30 -11 0 -20 -5 -20 -12 0 -6 -27 27 -59 73 -82 116 -123 171 -141 191 -29 33 -40 47 -40 54 0 6 -47 65 -140 174 -17 19 -42 51 -58 71 -25 33 -67 79 -154 171 -21 22 -38 43 -38 48 0 5 -6 11 -12 14 -10 5 -10 7 0 12 20 10 15 44 -8 44 -12 0 -20 -7 -20 -17 0 -15 -2 -16 -10 -3 -6 10 -6 16 0 18 19 7 11 42 -10 42 -12 0 -20 -7 -20 -17 0 -12 -15 -2 -50 32 -44 44 -50 53 -44 79 6 28 5 29 -22 23 -25 -5 -38 2 -85 46 -112 103 -191 171 -306 263 -65 52 -128 103 -139 114 -12 11 -26 20 -32 20 -6 0 -12 4 -14 8 -1 4 -25 23 -53 42 -27 19 -52 37 -55 40 -3 3 -29 21 -57 40 -29 19 -53 38 -53 43 0 4 -7 7 -16 7 -11 0 -14 5 -9 18 4 9 9 23 12 30 4 10 -2 13 -23 10 -16 -1 -32 -7 -35 -12 -4 -5 -31 7 -60 26 -67 44 -213 130 -257 152 -25 13 -32 22 -27 34 5 14 4 15 -6 5 -21 -21 -29 -15 -22 17 4 24 2 30 -11 30 -9 0 -19 -6 -22 -14 -4 -9 -53 11 -185 75 -99 49 -183 89 -187 89 -4 0 -32 13 -62 28 -30 15 -100 45 -155 66 -55 22 -113 45 -130 52 -16 7 -52 19 -80 27 -27 9 -90 30 -140 47 -162 57 -366 116 -542 157 -58 13 -73 20 -73 35 0 14 -8 18 -41 18 -30 0 -40 -4 -36 -14 4 -10 -12 -9 -76 7 -118 28 -324 54 -629 79 -242 20 -268 24 -268 40 0 11 -7 18 -20 18 -11 0 -20 -6 -20 -14 0 -23 -24 -26 -181 -26 -142 0 -149 1 -149 20 0 13 -7 20 -20 20 -13 0 -20 -7 -20 -20z m-438 -750 c7 0 8 -16 5 -42 -6 -40 -18 -125 -52 -358 -7 -52 -22 -166 -34 -253 -11 -86 -22 -161 -25 -165 -3 -5 -15 -80 -26 -168 -23 -167 -42 -305 -61 -439 -7 -51 -17 -83 -26 -89 -13 -7 -13 -10 -2 -17 11 -7 10 -9 -3 -9 -11 0 -18 -8 -18 -20 0 -11 5 -20 11 -20 12 0 11 -18 -14 -204 l-14 -99 196 -191 c107 -105 310 -305 450 -444 286 -283 253 -265 336 -185 138 130 295 275 318 293 23 18 27 19 27 5 0 -22 34 -15 38 8 3 12 -3 17 -20 17 -21 0 -21 2 12 30 19 17 80 72 135 124 55 52 138 130 185 174 47 44 99 91 115 105 l31 25 -7 84 c-5 46 -12 130 -18 188 -7 79 -7 106 2 112 8 5 14 -2 19 -20 5 -20 6 -15 5 18 -2 37 -6 46 -23 48 -19 3 -22 12 -28 90 -3 48 -10 130 -16 182 -21 214 -31 323 -45 485 -8 94 -19 204 -24 245 -14 105 -22 312 -12 275 5 -16 9 -23 10 -14 0 9 4 31 7 48 6 27 4 31 -14 31 -17 0 -22 8 -28 46 -3 25 -3 49 2 54 5 4 33 10 63 12 53 3 54 3 57 -27 4 -36 19 -203 39 -425 8 -91 19 -210 25 -265 23 -235 24 -275 6 -275 -9 0 -16 -8 -16 -20 0 -13 7 -20 18 -20 19 0 26 -50 63 -432 5 -54 13 -142 19 -195 5 -54 12 -136 16 -183 l6 -86 -163 -153 c-90 -85 -165 -149 -167 -143 -7 21 -42 14 -42 -8 0 -11 6 -20 13 -20 6 0 4 -5 -7 -11 -14 -9 -20 -8 -27 2 -6 10 -9 8 -9 -8 0 -13 -6 -23 -12 -24 -10 0 -10 -2 -1 -5 12 -5 8 -10 -118 -127 -36 -34 -128 -120 -204 -192 -76 -71 -157 -147 -179 -168 -23 -21 -42 -33 -44 -27 -2 5 -13 10 -24 10 -16 0 -19 -5 -16 -25 3 -14 -1 -30 -8 -36 -11 -9 -14 -7 -15 7 -1 11 -4 6 -8 -11 -3 -16 -9 -30 -12 -30 -13 0 -380 365 -368 366 8 0 3 5 -11 11 -15 6 -20 12 -12 15 21 8 14 43 -8 43 -11 0 -20 -5 -20 -11 0 -5 -4 -8 -9 -5 -4 3 -6 17 -3 31 3 18 0 25 -12 25 -9 0 -16 -8 -16 -17 0 -14 -2 -15 -9 -5 -4 7 -6 24 -3 37 4 22 1 24 -29 24 -31 -1 -55 19 -286 247 l-252 249 10 70 c14 106 17 115 39 115 14 0 20 7 20 21 0 16 -5 20 -20 16 -23 -6 -25 4 -11 66 5 23 15 75 21 115 10 60 15 72 31 72 20 0 23 10 12 49 -6 23 -7 23 -14 5 -11 -29 -11 34 0 93 6 26 13 69 16 96 5 38 10 47 26 47 15 0 19 7 19 38 l0 37 -21 -25 c-11 -14 -18 -20 -15 -13 4 6 13 63 21 125 8 62 19 142 25 178 6 36 18 112 26 170 8 58 21 148 29 200 7 52 21 147 30 210 30 213 28 205 53 208 12 2 22 9 22 17 0 15 27 25 48 19 8 -2 18 -4 24 -4z m3699 -782 l40 -43 -65 -62 c-36 -35 -69 -63 -73 -63 -3 0 -20 -15 -37 -32 -17 -18 -60 -58 -96 -88 -36 -30 -90 -78 -120 -106 -30 -29 -68 -63 -85 -75 -16 -13 -50 -42 -74 -64 -58 -54 -66 -61 -140 -125 -35 -30 -80 -70 -99 -89 -20 -19 -38 -29 -40 -22 -2 6 -12 11 -23 11 -14 0 -19 -7 -19 -29 0 -30 -3 -33 -171 -182 -211 -189 -277 -247 -309 -273 -19 -16 -73 -64 -119 -107 -45 -44 -85 -79 -87 -79 -3 0 0 9 6 19 14 27 13 30 -11 24 -16 -4 -20 -12 -16 -29 4 -22 -4 -29 -26 -25 -5 1 -5 -3 -2 -10 7 -11 -8 -27 -126 -129 -35 -30 -90 -81 -124 -112 -39 -37 -61 -52 -63 -42 -2 8 -12 14 -23 14 -17 0 -25 -21 -20 -52 0 -5 -9 -8 -21 -8 -19 0 -20 -2 -8 -10 12 -8 6 -18 -34 -52 -27 -24 -99 -88 -160 -143 -61 -54 -117 -104 -124 -110 -7 -5 -27 -24 -45 -40 -18 -17 -49 -43 -70 -59 -20 -16 -54 -45 -76 -65 -128 -121 -144 -134 -139 -113 5 17 2 22 -14 22 -15 0 -19 -6 -16 -27 2 -15 -2 -28 -9 -30 -7 -3 -13 1 -13 9 0 10 -2 10 -8 1 -5 -8 174 -194 523 -544 292 -293 524 -534 518 -536 -21 -7 -15 -43 6 -43 11 0 21 5 23 11 2 7 9 5 17 -5 11 -14 11 -16 -3 -16 -9 0 -16 -7 -16 -15 0 -17 36 -21 42 -4 2 7 9 5 17 -5 9 -11 10 -16 2 -16 -6 0 -11 -9 -11 -20 0 -11 7 -20 15 -20 8 0 15 7 15 16 0 14 2 14 16 3 10 -8 12 -15 5 -17 -20 -7 -13 -42 9 -42 11 0 20 5 20 11 0 5 5 7 12 3 9 -6 9 -9 0 -12 -21 -7 -14 -42 8 -42 11 0 20 5 20 11 0 5 5 7 12 3 9 -6 9 -9 0 -12 -7 -2 -12 -12 -12 -23 0 -22 35 -27 43 -6 4 9 8 8 16 -3 8 -11 7 -16 -4 -18 -22 -5 -18 -32 5 -32 11 0 20 5 20 11 0 8 5 7 16 -2 14 -11 14 -13 0 -21 -23 -13 -20 -38 4 -38 12 0 20 7 20 16 0 14 2 14 16 3 10 -8 12 -15 5 -17 -19 -6 -13 -42 8 -42 11 0 21 5 23 11 2 6 21 -6 41 -25 21 -20 42 -36 46 -36 4 0 32 28 62 61 30 34 95 107 144 162 50 55 101 114 115 131 13 17 39 45 57 62 18 17 33 35 33 41 0 6 4 13 8 15 8 3 167 177 272 298 30 35 78 88 105 118 28 30 58 64 68 76 48 55 147 163 190 208 26 27 47 52 47 56 0 4 41 51 91 104 50 54 105 115 122 137 38 47 259 295 296 332 14 14 44 47 66 74 48 59 72 80 88 80 7 0 13 10 15 23 2 12 8 22 13 22 6 0 7 -4 4 -10 -4 -6 5 -10 19 -10 21 0 26 5 26 25 0 18 -4 23 -15 19 -30 -12 -31 -13 129 166 97 108 118 130 128 130 5 0 7 3 5 8 -2 4 8 18 21 31 14 13 23 17 19 9 -4 -11 1 -14 19 -10 25 5 34 37 12 44 -6 2 14 33 47 69 32 35 74 82 94 104 20 22 46 52 58 67 l21 28 46 -36 c25 -19 46 -39 46 -43 0 -8 -20 -31 -160 -186 -30 -34 -82 -92 -115 -128 -33 -37 -61 -63 -63 -57 -2 5 -12 10 -23 10 -20 0 -28 -35 -9 -42 14 -4 -85 -122 -247 -295 -23 -24 -44 -50 -47 -56 -5 -9 -7 -9 -12 1 -10 20 -44 15 -44 -8 0 -11 5 -20 10 -20 12 0 -16 -47 -42 -70 -9 -8 -49 -53 -90 -100 -140 -162 -148 -169 -180 -163 -24 5 -28 2 -28 -16 0 -11 5 -21 11 -21 20 0 -25 -58 -121 -159 -16 -17 -142 -159 -195 -220 -62 -72 -121 -137 -161 -178 -22 -23 -53 -59 -69 -80 -16 -21 -44 -52 -62 -69 -18 -17 -33 -33 -33 -37 0 -3 -10 -17 -22 -29 -57 -58 -204 -222 -211 -234 -5 -8 -30 -37 -58 -65 -27 -27 -49 -52 -49 -54 0 -3 -8 -13 -17 -23 -24 -24 -158 -173 -203 -225 -19 -22 -51 -57 -70 -77 -19 -21 -43 -49 -53 -63 -10 -14 -38 -45 -62 -70 l-44 -44 -308 307 c-170 170 -332 333 -361 364 -30 31 -58 56 -63 56 -5 0 -9 7 -9 15 0 8 -4 15 -9 15 -5 0 -24 16 -43 35 -40 42 -502 513 -709 721 -82 83 -149 158 -149 165 1 10 4 9 11 -3 5 -10 16 -15 24 -12 18 7 20 44 3 44 -12 0 39 50 149 146 32 29 80 72 107 95 71 63 89 75 94 61 2 -7 11 -12 19 -12 11 0 14 7 10 27 -5 29 24 64 123 144 25 20 77 65 115 101 74 68 95 88 172 154 27 22 89 78 140 122 50 45 96 82 102 82 5 0 15 8 21 18 11 16 11 16 6 0 -4 -14 0 -18 19 -18 18 0 25 5 25 20 0 12 -7 20 -17 20 -14 0 -10 7 14 28 80 69 189 166 249 222 23 22 70 63 105 92 35 29 76 64 91 78 70 67 266 240 271 240 2 0 26 21 54 48 142 133 283 249 283 232 0 -6 9 -10 20 -10 13 0 20 7 20 20 0 11 -5 20 -12 20 -12 0 53 65 119 120 17 14 65 57 108 95 43 39 89 79 101 90 53 46 150 132 183 162 20 18 37 33 39 33 2 0 21 -19 43 -42z m-6038 -14 c38 -37 47 -52 47 -80 0 -27 4 -34 19 -34 11 0 21 7 23 16 2 11 36 -14 113 -83 61 -55 123 -110 139 -124 16 -13 46 -41 67 -61 20 -21 41 -38 47 -38 6 0 12 -4 14 -8 2 -5 57 -57 123 -116 66 -60 146 -132 178 -162 32 -29 66 -59 76 -66 10 -7 63 -54 117 -104 55 -50 115 -104 134 -120 19 -16 54 -48 77 -71 24 -24 45 -43 49 -43 3 0 12 -7 20 -15 14 -13 14 -15 0 -15 -9 0 -16 -7 -16 -15 0 -8 7 -15 15 -15 8 0 15 5 15 10 0 21 20 8 102 -67 47 -43 120 -109 162 -146 67 -60 76 -73 76 -103 0 -27 4 -34 20 -34 11 0 20 5 20 10 0 25 7 20 162 -122 85 -77 153 -139 268 -240 36 -31 81 -71 100 -88 19 -18 64 -57 100 -88 36 -32 74 -67 85 -79 11 -13 24 -23 28 -23 4 0 45 -35 90 -79 45 -43 111 -103 147 -132 36 -30 74 -62 85 -72 20 -18 13 -25 -415 -448 -277 -274 -436 -425 -438 -415 -5 24 -42 20 -42 -4 0 -12 7 -20 18 -20 13 0 14 -2 4 -9 -7 -4 -24 -6 -38 -3 -17 3 -24 0 -24 -12 0 -9 8 -16 18 -16 13 0 14 -2 4 -9 -7 -4 -25 -6 -39 -3 -23 4 -25 2 -21 -20 4 -22 2 -24 -20 -20 -22 4 -24 2 -20 -21 3 -14 1 -32 -3 -39 -7 -10 -9 -9 -9 5 0 10 -8 17 -20 17 -13 0 -20 -7 -20 -20 0 -11 5 -20 11 -20 5 0 7 -5 3 -12 -6 -9 -9 -9 -12 0 -7 21 -42 14 -42 -8 0 -11 5 -20 11 -20 5 0 7 -5 3 -12 -6 -9 -9 -9 -12 0 -7 21 -42 14 -42 -8 0 -12 7 -20 18 -20 14 0 15 -2 2 -10 -8 -5 -25 -10 -38 -10 -13 0 -20 -4 -17 -10 4 -6 11 -7 17 -4 29 18 -19 -41 -88 -107 -42 -41 -82 -80 -88 -87 -6 -7 -20 -21 -30 -30 -11 -9 -80 -77 -155 -149 -75 -73 -138 -133 -140 -133 -5 0 -55 55 -131 142 -30 34 -73 83 -95 108 -23 25 -56 63 -74 85 -19 22 -57 65 -85 95 -60 64 -93 112 -72 104 10 -4 12 2 9 21 -4 20 -10 25 -32 23 -17 -2 -25 1 -23 10 1 8 -2 11 -9 7 -10 -7 -28 11 -108 101 -107 124 -159 181 -178 200 -13 12 -23 24 -23 27 0 4 -21 28 -47 54 -27 27 -55 60 -65 73 -9 14 -59 72 -112 130 -141 154 -177 194 -184 206 -4 7 -45 53 -91 103 -82 89 -119 141 -100 141 5 0 9 9 9 20 0 21 -35 29 -42 10 -1 -5 -8 -6 -13 -2 -14 9 -305 339 -305 345 0 2 -21 27 -47 55 -27 28 -59 63 -72 79 -13 15 -57 64 -97 108 -73 78 -84 95 -64 95 6 0 10 9 10 20 0 13 -7 20 -20 20 -11 0 -20 -5 -20 -12 0 -8 -6 -6 -17 4 -13 14 -14 20 -3 32 7 10 8 16 2 16 -6 0 -12 -6 -15 -12 -2 -8 -20 5 -43 31 -21 24 -52 59 -69 77 -91 98 -225 256 -225 264 0 4 18 24 40 44 l40 36 33 -33 c17 -18 54 -59 82 -92 27 -33 79 -92 115 -131 36 -39 119 -133 185 -208 66 -76 136 -156 156 -178 32 -36 35 -44 23 -55 -8 -8 -14 -19 -14 -24 0 -13 38 -11 42 2 2 6 26 -14 53 -43 91 -99 261 -291 280 -316 6 -7 24 -28 40 -45 17 -18 64 -71 105 -117 41 -46 82 -92 90 -101 8 -9 23 -27 33 -40 16 -21 16 -24 2 -27 -22 -5 -18 -32 5 -32 11 0 20 6 20 12 0 12 73 -61 129 -128 13 -16 60 -69 105 -119 44 -49 86 -97 93 -105 7 -8 23 -26 35 -40 13 -14 38 -43 57 -65 19 -22 62 -71 97 -110 96 -108 108 -125 90 -125 -9 0 -16 -8 -16 -20 0 -13 7 -20 20 -20 12 0 20 7 20 18 0 13 7 9 28 -15 69 -80 166 -189 222 -249 22 -23 63 -70 92 -105 66 -80 106 -126 136 -154 l23 -22 488 486 c268 267 597 594 732 727 286 281 278 272 258 284 -20 13 -162 136 -225 197 -30 28 -58 53 -63 55 -7 2 -121 105 -221 198 -14 14 -53 48 -86 75 -60 51 -126 110 -224 201 -30 29 -73 67 -95 85 -68 57 -130 121 -127 132 2 5 -4 7 -12 4 -9 -4 -18 -2 -21 3 -4 6 -1 10 4 10 6 0 11 9 11 20 0 24 -27 27 -32 4 -2 -12 -28 6 -94 67 -50 46 -123 113 -162 147 -41 36 -69 68 -65 75 4 6 0 8 -10 4 -13 -5 -15 0 -10 29 5 30 3 34 -16 34 -13 0 -21 -6 -21 -17 -1 -17 -1 -17 -11 0 -5 9 -15 17 -22 17 -7 0 -52 39 -102 85 -49 47 -106 98 -125 113 -19 14 -45 36 -56 47 -12 11 -35 32 -50 46 -16 14 -83 73 -149 133 -66 59 -144 129 -173 156 -30 28 -55 50 -58 50 -2 0 -12 8 -22 18 -45 43 -210 192 -242 218 -19 16 -53 47 -75 69 -22 22 -53 48 -68 58 -44 28 -44 44 -1 88 21 21 41 39 44 39 3 0 27 -21 53 -46z m6337 -3299 c58 -8 147 -21 198 -27 86 -11 92 -13 92 -35 0 -16 6 -23 20 -23 11 0 20 7 20 15 0 10 10 15 28 15 27 0 267 -30 442 -56 202 -29 310 -44 455 -64 83 -11 200 -27 260 -36 61 -8 135 -19 165 -22 l55 -7 -1 -36 c-1 -20 -4 -48 -8 -63 -6 -24 -11 -27 -34 -22 -15 3 -61 9 -102 13 -41 3 -77 9 -80 13 -3 3 -54 12 -115 19 -178 20 -185 21 -185 42 0 21 -3 22 -50 13 -22 -5 -28 -9 -18 -15 8 -6 2 -7 -17 -4 -16 3 -84 12 -150 20 -114 15 -183 24 -433 60 -59 9 -172 24 -252 35 -80 11 -172 24 -205 30 -33 5 -101 15 -152 21 -88 11 -92 11 -114 -10 -13 -12 -25 -17 -27 -11 -7 19 -42 11 -42 -10 0 -11 5 -20 11 -20 5 0 7 -5 3 -12 -6 -9 -9 -9 -12 0 -6 20 -42 14 -42 -7 0 -11 5 -21 10 -23 15 -5 34 15 -680 -719 -93 -96 -90 -81 -29 -146 31 -33 48 -58 41 -61 -17 -5 -15 -42 2 -42 8 0 16 7 18 16 2 12 9 10 30 -13 14 -15 66 -69 115 -120 48 -51 104 -109 123 -130 19 -21 118 -126 220 -232 194 -203 218 -231 201 -231 -6 0 -11 -9 -11 -20 0 -19 5 -20 83 -15 45 2 127 9 182 14 125 13 164 14 147 2 -11 -7 -10 -10 3 -15 29 -11 45 -7 45 13 0 16 14 20 128 30 70 7 154 16 187 21 33 5 89 11 125 15 36 3 112 10 170 15 180 18 309 30 475 45 88 7 210 19 272 26 62 7 114 11 117 8 2 -2 7 -29 11 -60 l7 -56 -64 -7 c-34 -4 -78 -9 -95 -13 -29 -4 -33 -2 -33 16 0 14 -6 21 -20 21 -13 0 -20 -7 -20 -19 0 -24 9 -23 -405 -61 -60 -6 -164 -17 -230 -24 -66 -8 -158 -17 -205 -21 -47 -3 -143 -12 -215 -20 -127 -14 -245 -25 -470 -46 -60 -5 -125 -12 -143 -14 -36 -4 -59 16 -211 181 -46 51 -299 319 -385 408 -17 18 -24 32 -18 34 21 7 14 42 -8 42 -11 0 -20 -5 -20 -11 0 -10 -83 74 -302 305 l-75 79 166 171 c91 94 254 261 362 371 107 110 219 225 248 255 29 30 93 97 144 149 l92 93 50 -6 c28 -3 97 -13 155 -21z m-6461 -22 c18 -21 118 -126 220 -233 267 -278 274 -287 256 -294 -8 -3 -15 -12 -15 -21 0 -17 36 -21 42 -4 5 16 41 -7 59 -37 12 -20 93 -106 325 -344 l63 -65 -71 -75 c-82 -86 -300 -312 -527 -546 -86 -89 -180 -187 -208 -218 -56 -60 -63 -64 -63 -41 0 8 -7 15 -15 15 -17 0 -21 -36 -5 -42 6 -2 -17 -34 -52 -72 l-63 -68 -45 6 c-25 4 -126 17 -225 30 -99 13 -170 24 -157 25 27 1 30 31 3 31 -11 0 -21 -5 -23 -11 -2 -6 -21 -11 -43 -12 -36 -1 -273 30 -415 53 -30 5 -137 19 -237 32 -177 22 -183 23 -183 45 0 16 -6 23 -20 23 -11 0 -20 -6 -20 -14 0 -16 -24 -28 -42 -21 -19 7 -130 23 -341 50 -104 12 -190 25 -193 28 -9 9 9 117 20 117 29 0 248 -30 256 -35 5 -3 7 -12 3 -20 -3 -10 2 -15 16 -15 12 0 21 6 21 14 0 16 41 14 170 -5 96 -14 351 -48 545 -73 161 -20 170 -22 173 -43 4 -25 42 -33 42 -9 0 15 27 29 40 21 9 -6 86 -18 300 -46 85 -12 180 -25 210 -29 84 -13 94 -12 118 13 12 12 92 93 177 180 86 86 160 157 165 157 6 0 10 -6 10 -12 0 -9 3 -8 9 2 6 8 7 18 5 22 -3 4 0 16 5 25 6 10 11 12 11 6 0 -18 40 -16 40 1 0 8 -6 16 -12 19 -10 4 -10 7 0 18 9 9 12 10 12 1 0 -7 9 -12 20 -12 13 0 20 7 20 20 0 11 -7 20 -15 20 -8 0 41 57 109 128 219 225 295 307 296 318 0 5 -16 25 -34 43 -29 28 -34 39 -29 62 4 22 2 29 -10 29 -9 0 -19 -5 -23 -11 -4 -8 -10 -7 -18 1 -8 9 -8 14 2 17 6 3 12 13 12 24 0 15 -7 19 -33 19 -28 0 -48 16 -160 133 -178 183 -250 259 -417 435 l-145 154 -42 -4 c-24 -2 -43 0 -43 4 0 5 6 8 13 8 19 0 -15 20 -35 20 -11 0 -18 -8 -18 -19 0 -21 -21 -27 -135 -36 -38 -4 -128 -13 -200 -20 -71 -8 -184 -19 -250 -25 -66 -6 -217 -22 -335 -35 -276 -30 -494 -53 -593 -61 -62 -5 -77 -4 -75 7 2 8 -7 15 -19 17 -17 3 -23 -2 -23 -16 0 -17 -9 -20 -58 -25 -31 -2 -58 -4 -58 -3 -1 0 -4 29 -7 64 l-5 62 48 0 c27 0 82 5 122 10 40 6 147 17 238 25 91 9 203 20 250 25 244 26 270 27 264 8 -4 -14 0 -18 20 -18 19 0 26 5 26 19 0 22 13 25 170 41 230 23 392 40 530 55 80 8 163 16 185 18 22 2 49 4 60 5 12 1 34 -13 54 -35z m676 -213 c3 -5 4 -10 1 -10 -3 0 -8 5 -11 10 -3 6 -4 10 -1 10 3 0 8 -4 11 -10z m4453 -1168 c20 -24 51 -58 67 -75 17 -18 40 -44 51 -59 12 -15 51 -60 87 -100 99 -110 112 -128 93 -128 -10 0 -16 -9 -16 -21 0 -18 4 -20 33 -16 30 5 36 1 120 -96 48 -56 110 -127 138 -157 27 -30 61 -68 74 -85 13 -16 39 -48 59 -70 20 -22 63 -69 95 -105 100 -111 133 -154 122 -158 -6 -2 -11 -13 -11 -24 0 -17 5 -20 28 -15 25 5 35 -1 83 -55 30 -33 62 -69 72 -80 10 -10 54 -60 98 -111 72 -83 157 -180 184 -210 6 -7 46 -52 89 -102 43 -49 87 -97 97 -107 11 -9 19 -19 19 -23 0 -4 23 -30 50 -57 28 -27 50 -52 50 -55 0 -3 33 -42 73 -87 110 -124 115 -131 95 -123 -14 5 -18 1 -18 -18 0 -18 5 -25 20 -25 12 0 20 7 20 18 0 13 7 9 28 -15 69 -80 166 -189 222 -249 22 -23 63 -70 92 -105 29 -35 57 -69 63 -75 74 -80 78 -86 60 -96 -9 -6 -31 -23 -48 -38 l-31 -27 -40 46 c-23 25 -64 70 -92 101 -28 30 -60 69 -73 85 -12 17 -46 55 -74 85 -29 31 -63 68 -77 84 l-25 29 24 -13 c21 -11 23 -10 18 5 -4 9 -7 21 -7 26 0 6 -13 8 -30 5 -16 -2 -30 -1 -30 2 0 4 -17 26 -37 48 -21 23 -63 70 -93 105 -30 35 -82 92 -115 127 -33 35 -62 69 -64 75 -2 6 -16 22 -32 36 -15 14 -42 44 -59 66 -17 22 -51 60 -74 85 -73 79 -112 133 -98 137 6 3 12 13 12 24 0 14 -7 19 -26 19 -14 0 -22 -4 -19 -10 3 -6 -1 -7 -10 -4 -10 4 -14 13 -10 28 5 15 4 17 -3 8 -10 -15 -32 3 -77 61 -11 14 -58 66 -104 116 -45 50 -96 107 -113 128 -16 21 -62 74 -103 118 -40 44 -85 96 -101 115 -16 19 -41 48 -56 64 -29 32 -35 46 -18 46 6 0 10 10 10 21 0 18 -4 21 -29 16 -32 -7 -22 -16 -191 173 -41 47 -90 100 -107 119 -18 19 -33 39 -33 43 0 4 -21 30 -47 57 -27 27 -59 62 -72 78 -55 66 -148 168 -168 187 -13 11 -23 23 -23 27 0 5 -22 31 -50 59 -27 27 -54 59 -60 71 -6 11 -15 19 -20 17 -5 -2 -343 -336 -750 -743 l-741 -739 38 -34 c21 -19 72 -64 113 -102 41 -37 95 -85 120 -106 25 -22 47 -42 50 -45 6 -7 308 -279 363 -326 20 -18 37 -37 37 -43 0 -5 5 -10 10 -10 6 0 10 -13 10 -30 0 -23 5 -30 19 -30 11 0 21 5 23 11 3 10 67 -44 323 -275 39 -35 90 -81 114 -102 24 -22 57 -51 72 -65 16 -15 58 -53 95 -85 129 -114 144 -131 144 -164 0 -23 4 -30 19 -30 11 0 21 5 23 11 4 12 185 -142 313 -266 17 -16 53 -48 80 -70 27 -22 86 -74 130 -115 45 -41 97 -88 115 -105 19 -16 62 -54 95 -85 33 -30 89 -80 124 -110 35 -30 88 -78 118 -106 30 -29 71 -65 91 -80 67 -54 66 -51 20 -100 -47 -50 -38 -52 -128 31 -31 27 -94 84 -139 125 -46 41 -107 96 -135 122 -28 26 -54 48 -58 48 -4 0 -5 13 -2 29 5 24 2 29 -19 33 -20 4 -24 2 -19 -11 5 -14 4 -14 -14 -1 -10 8 -51 44 -90 80 -127 117 -247 224 -283 253 -19 15 -71 62 -116 105 -44 42 -99 90 -120 107 -66 50 -179 167 -135 140 6 -4 10 5 10 19 0 21 -5 26 -25 26 -18 0 -23 -4 -19 -15 4 -8 4 -15 1 -15 -7 0 -154 131 -304 271 -29 27 -57 49 -62 49 -5 0 -11 4 -13 8 -1 4 -57 57 -123 116 -66 60 -150 136 -187 169 -37 34 -65 65 -62 69 3 4 -3 8 -13 9 -10 0 -13 3 -5 6 6 2 12 13 12 24 0 23 -37 27 -42 4 -2 -10 -17 -2 -49 28 -36 34 -148 134 -213 192 -97 86 -295 265 -311 280 -11 11 -55 51 -98 90 l-78 70 838 832 838 833 48 -53 c26 -28 64 -72 85 -95z m-3083 -702 l830 -831 -60 -57 c-33 -31 -145 -131 -249 -222 -104 -91 -232 -205 -285 -253 -67 -62 -97 -84 -99 -73 -5 24 -42 20 -42 -4 0 -11 6 -20 13 -21 6 -1 1 -4 -13 -8 -14 -4 -25 -13 -25 -21 0 -16 -31 -49 -120 -125 -32 -27 -65 -57 -75 -65 -9 -8 -46 -40 -81 -70 -35 -30 -77 -68 -94 -85 -17 -16 -51 -46 -75 -66 -25 -20 -80 -69 -123 -109 -47 -44 -77 -66 -77 -56 0 10 -8 16 -21 16 -17 0 -20 -5 -17 -25 3 -15 -1 -30 -10 -37 -13 -11 -15 -10 -9 2 4 8 2 6 -5 -5 -22 -33 -212 -213 -304 -287 -49 -39 -312 -273 -334 -297 -8 -9 -33 -29 -55 -46 -22 -16 -50 -39 -61 -50 -12 -11 -35 -32 -50 -46 -16 -14 -73 -65 -126 -113 -59 -52 -98 -81 -98 -72 0 9 -8 16 -20 16 -18 0 -26 -20 -21 -52 0 -5 -9 -8 -22 -8 -17 0 -19 -2 -8 -9 12 -8 7 -16 -21 -43 -37 -34 -146 -132 -195 -174 l-28 -24 -37 37 c-21 20 -38 43 -38 49 0 7 32 41 71 76 39 35 91 82 116 105 24 24 48 43 53 43 5 0 13 6 17 13 4 6 28 29 53 51 25 21 80 71 124 110 81 74 126 104 126 86 0 -22 38 -10 42 14 4 19 1 22 -16 18 -25 -6 -22 -3 54 63 78 67 199 174 238 211 18 18 44 40 58 50 15 11 43 35 64 54 21 19 82 73 135 120 54 47 106 93 116 103 16 14 19 14 19 2 0 -26 37 -18 42 9 4 17 1 23 -9 19 -7 -3 -13 0 -13 6 0 6 4 11 8 11 5 0 30 19 55 43 25 23 74 67 109 98 35 31 90 80 123 109 33 30 66 59 73 65 7 5 28 24 45 40 18 17 62 55 97 85 36 30 83 71 105 92 22 21 46 38 53 38 6 0 12 6 13 13 0 9 2 9 6 0 8 -21 43 -15 43 7 0 11 -6 20 -12 20 -7 1 -3 9 9 19 12 10 56 49 98 87 109 98 114 102 190 169 38 33 76 67 85 75 8 8 53 47 100 86 47 40 101 88 120 109 33 35 99 78 86 56 -5 -7 3 -11 18 -11 19 0 26 5 26 20 0 13 -7 20 -18 20 -28 0 -42 20 -35 51 4 22 2 29 -10 29 -8 0 -17 -4 -19 -10 -2 -6 -9 -5 -18 1 -11 8 -12 12 -2 16 6 2 12 11 12 19 0 17 -37 19 -42 2 -3 -7 -7 -6 -11 5 -3 9 -2 17 3 17 6 0 10 9 10 20 0 13 -7 20 -20 20 -11 0 -20 -5 -20 -11 0 -5 -5 -7 -12 -3 -9 6 -9 9 0 12 21 7 14 42 -8 42 -11 0 -20 -5 -20 -11 0 -5 -5 -7 -12 -3 -9 6 -9 9 0 12 7 2 12 12 12 23 0 22 -35 27 -43 7 -2 -8 -8 -9 -13 -4 -5 5 -4 11 4 13 21 8 14 43 -8 43 -11 0 -20 -4 -20 -10 0 -5 -5 -10 -11 -10 -7 0 -8 11 -4 31 7 30 6 31 -19 27 -15 -3 -29 -1 -32 3 -3 5 0 9 5 9 6 0 11 9 11 20 0 13 -7 20 -20 20 -11 0 -20 -5 -20 -11 0 -5 -5 -7 -12 -3 -9 6 -9 9 0 12 21 7 14 42 -8 42 -11 0 -20 -5 -20 -11 0 -5 -5 -7 -12 -3 -9 6 -9 9 0 12 21 7 14 42 -8 42 -11 0 -20 -5 -20 -11 0 -5 -5 -7 -12 -3 -9 6 -9 9 0 12 21 7 14 42 -8 42 -12 0 -20 -7 -20 -16 0 -14 -3 -14 -15 -4 -11 9 -13 16 -5 24 17 17 11 36 -10 36 -11 0 -20 -5 -20 -12 0 -9 -3 -8 -12 1 -10 11 -10 14 0 18 21 8 14 43 -8 43 -11 0 -20 -5 -20 -11 0 -5 -5 -7 -12 -3 -9 6 -9 9 0 12 21 7 14 42 -8 42 -12 0 -20 -7 -20 -16 0 -13 -3 -14 -15 -4 -8 7 -12 17 -8 23 3 5 2 7 -4 4 -5 -3 -128 114 -272 261 -578 588 -601 610 -601 583 0 -5 -25 -34 -55 -66 -30 -31 -55 -58 -55 -61 0 -2 -8 -12 -17 -22 -31 -32 -189 -206 -224 -246 -19 -21 -51 -56 -71 -78 -21 -21 -38 -43 -38 -47 0 -5 -7 -14 -15 -21 -12 -10 -15 -10 -15 4 0 9 -8 16 -20 16 -13 0 -20 -7 -20 -20 0 -11 5 -20 10 -20 12 0 -16 -48 -41 -70 -9 -8 -49 -53 -89 -100 -40 -47 -78 -90 -84 -95 -6 -6 -29 -31 -51 -56 -56 -64 -196 -219 -220 -244 -11 -12 -36 -41 -57 -66 -70 -86 -138 -152 -138 -135 0 9 -8 16 -20 16 -15 0 -20 -7 -20 -25 0 -19 4 -23 18 -18 21 8 15 0 -108 -137 -47 -52 -89 -100 -95 -106 -5 -6 -28 -32 -49 -57 -34 -39 -44 -45 -68 -40 -24 5 -28 2 -28 -16 0 -11 5 -21 11 -21 6 0 1 -12 -11 -27 -29 -37 -215 -246 -263 -295 -20 -21 -37 -41 -37 -43 0 -3 -8 -13 -17 -23 -15 -15 -134 -145 -218 -238 -11 -12 -40 -46 -64 -74 -65 -76 -74 -85 -79 -71 -6 19 -42 13 -42 -8 0 -11 5 -21 11 -23 6 -2 -19 -38 -56 -81 l-66 -78 -45 37 c-24 20 -44 39 -44 42 0 3 19 26 43 52 40 44 117 134 127 150 3 4 15 10 27 14 11 4 29 23 37 44 9 20 15 27 12 15 -3 -19 0 -23 20 -23 17 0 24 6 24 20 0 11 -4 20 -10 20 -5 0 -10 3 -10 8 0 10 108 133 266 304 24 26 44 49 44 52 0 3 10 16 23 28 39 41 184 202 213 238 52 62 92 100 107 100 8 0 18 12 22 28 4 15 10 21 12 15 3 -7 13 -13 24 -13 14 0 19 7 19 25 0 19 -4 23 -17 18 -10 -4 25 40 77 97 51 58 103 115 115 128 52 62 74 82 87 79 7 -2 10 -2 5 0 -16 10 6 23 39 23 19 0 34 3 34 8 0 12 -14 29 -28 33 -8 3 5 23 35 54 26 28 79 86 118 130 38 44 92 105 120 135 27 31 70 78 94 105 24 28 71 79 105 115 34 36 83 92 110 123 26 31 59 60 73 63 14 4 22 12 19 20 -3 7 3 18 12 26 11 9 14 10 8 1 -5 -9 1 -13 18 -13 19 0 26 5 26 19 0 11 -5 21 -12 23 -9 3 -8 10 3 26 15 21 171 196 255 284 24 26 44 50 44 52 0 3 26 33 57 66 31 33 63 70 70 80 8 11 20 20 26 20 7 0 386 -374 842 -830z m1158 -1155 c54 -52 91 -95 83 -95 -9 0 -16 -9 -16 -20 0 -13 7 -20 20 -20 11 0 20 5 20 10 0 21 18 8 100 -71 431 -415 557 -536 639 -615 l94 -91 -17 -134 c-9 -74 -23 -179 -31 -234 -17 -116 -51 -371 -94 -705 -17 -129 -37 -280 -45 -335 -8 -55 -27 -198 -42 -319 l-27 -218 -61 7 c-34 3 -62 7 -63 8 -1 1 3 24 9 50 7 36 14 47 29 47 16 0 19 7 18 38 -1 20 -3 29 -6 20 -2 -10 -8 -18 -13 -18 -14 0 -17 24 -10 80 5 30 20 147 34 260 32 252 31 250 56 250 21 0 24 10 13 49 -6 23 -7 23 -14 5 -13 -32 -10 28 6 146 24 175 55 415 55 423 0 4 9 7 20 7 20 0 25 15 14 44 -6 15 -8 15 -21 -1 -8 -10 -12 -12 -8 -6 3 7 12 62 20 123 8 60 22 161 30 223 8 61 15 116 15 120 0 5 5 5 11 1 8 -4 8 0 0 15 -8 14 -8 21 -1 21 5 0 10 9 10 20 0 13 -7 20 -20 20 -11 0 -20 -5 -20 -11 0 -5 -5 -7 -10 -4 -6 3 -7 17 -4 31 6 25 -12 34 -31 15 -6 -6 -62 41 -147 122 -75 73 -216 209 -313 302 -97 94 -182 175 -189 180 -7 6 -55 51 -107 102 l-94 92 -180 -174 c-110 -106 -181 -168 -183 -159 -5 22 -42 17 -42 -6 0 -11 6 -20 13 -20 6 0 4 -5 -6 -11 -14 -8 -22 -8 -30 0 -6 6 -16 11 -21 11 -6 0 -4 -5 4 -10 13 -9 13 -10 0 -10 -12 0 -13 -2 -1 -9 12 -8 12 -11 0 -26 -24 -29 -252 -255 -358 -355 l-101 -95 10 -110 c6 -61 13 -127 16 -147 5 -34 3 -38 -15 -38 -14 0 -21 -6 -21 -20 0 -14 7 -20 24 -20 21 0 24 -5 29 -67 11 -108 9 -173 -5 -173 -6 0 -4 -6 5 -12 18 -13 18 -17 52 -323 19 -173 19 -185 0 -185 -8 0 -15 -9 -15 -20 0 -13 7 -20 18 -20 17 0 20 -18 36 -167 9 -93 21 -197 26 -233 5 -36 16 -126 23 -202 l13 -136 -29 -6 c-16 -3 -44 -6 -61 -6 l-32 0 -17 147 c-21 185 -21 183 3 183 13 0 20 7 20 20 0 13 -7 20 -19 20 -11 0 -22 8 -25 18 -5 16 -18 126 -51 442 -19 177 -27 314 -16 275 5 -16 9 -23 10 -14 0 9 4 31 7 48 6 27 4 31 -15 31 -16 0 -21 6 -21 26 0 15 -4 54 -10 88 -5 33 -17 133 -25 221 -9 88 -23 218 -31 290 l-15 130 108 105 c134 131 183 173 183 160 0 -5 10 -10 21 -10 17 0 20 5 17 23 -4 20 -1 23 19 19 18 -3 23 0 23 17 0 11 -5 21 -10 21 -9 0 82 91 360 356 52 50 142 137 200 192 58 56 110 101 115 102 6 0 54 -43 108 -95z"/>
<path d="M11952 6430 c0 -14 2 -19 5 -12 2 6 2 18 0 25 -3 6 -5 1 -5 -13z"/>
<path d="M32 6395 c0 -16 2 -22 5 -12 2 9 2 23 0 30 -3 6 -5 -1 -5 -18z"/>
<path d="M9475 1170 c4 -6 11 -8 16 -5 14 9 11 15 -7 15 -8 0 -12 -5 -9 -10z"/>
<path d="M6338 33 c6 -2 18 -2 25 0 6 3 1 5 -13 5 -14 0 -19 -2 -12 -5z"/>
</g>
<g id="layer103" fill="#4e4e4e" stroke="none">
<path d="M0 6000 l0 -6000 5995 0 5995 0 0 2955 c0 2948 0 2955 -20 2955 -13 0 -20 -7 -20 -20 0 -11 5 -20 11 -20 7 0 9 -11 5 -30 -15 -72 -16 -95 -2 -50 l14 45 1 -67 c1 -38 -3 -68 -7 -68 -5 0 -8 -46 -6 -102 2 -67 0 -94 -5 -78 -6 17 -7 4 -4 -40 6 -82 -26 -358 -62 -530 -8 -36 -16 -84 -20 -108 -5 -42 -63 -283 -109 -457 -34 -126 -135 -430 -185 -555 -24 -58 -55 -134 -69 -170 -14 -36 -39 -90 -54 -120 -15 -30 -28 -60 -28 -66 0 -6 -9 -21 -20 -34 -11 -13 -20 -29 -20 -36 0 -21 -155 -319 -215 -414 -20 -32 -91 -150 -126 -210 -7 -14 -20 -29 -26 -33 -7 -4 -13 -12 -13 -17 0 -9 -58 -100 -70 -110 -9 -7 -120 -169 -120 -175 0 -5 -40 -53 -72 -87 -10 -10 -18 -21 -18 -24 0 -7 -117 -153 -145 -179 -11 -11 -27 -29 -35 -41 -8 -11 -33 -41 -54 -67 -34 -39 -44 -45 -68 -40 -23 5 -28 2 -28 -15 0 -11 6 -22 13 -25 19 -7 -437 -455 -535 -526 -11 -7 -33 -26 -49 -42 -16 -16 -53 -46 -82 -67 -28 -22 -58 -46 -66 -55 -7 -10 -17 -17 -22 -17 -4 0 -25 -16 -46 -35 -24 -23 -48 -35 -66 -35 -16 0 -26 -4 -22 -10 8 -13 -4 -24 -85 -80 -36 -24 -69 -48 -75 -53 -5 -4 -68 -46 -140 -92 -71 -47 -140 -92 -153 -100 -21 -15 -22 -15 -22 5 0 12 -7 20 -16 20 -12 0 -15 -7 -12 -24 3 -16 -2 -27 -16 -36 -48 -31 -181 -102 -307 -165 -74 -36 -142 -70 -151 -75 -26 -14 -239 -110 -244 -110 -2 0 -4 7 -4 15 0 9 -9 15 -21 15 -17 0 -20 -5 -17 -23 4 -18 -2 -26 -21 -35 -117 -49 -151 -58 -151 -37 0 8 -9 15 -20 15 -14 0 -20 -7 -20 -24 0 -17 -9 -27 -32 -36 -18 -7 -46 -19 -63 -26 -34 -14 -226 -74 -237 -74 -5 0 -8 7 -8 15 0 8 -9 15 -20 15 -15 0 -20 -7 -20 -25 0 -14 -1 -25 -2 -25 -2 0 -93 -23 -202 -50 -185 -46 -281 -62 -248 -41 11 7 10 10 -3 15 -31 12 -45 6 -45 -17 0 -25 -24 -32 -230 -67 -133 -23 -420 -52 -470 -47 -37 3 -49 2 -35 -4 12 -6 -36 -7 -127 -3 -103 4 -148 2 -148 -5 0 -17 -377 -15 -383 2 -3 9 -9 9 -24 1 -14 -9 -71 -8 -223 2 -113 7 -206 13 -207 13 -2 1 -3 11 -3 22 0 19 -4 21 -31 15 -17 -3 -37 -6 -43 -7 -6 -1 0 -5 14 -10 31 -11 -89 -3 -175 12 -160 27 -240 42 -352 66 -115 25 -123 28 -123 50 0 16 -6 23 -20 23 -12 0 -20 -7 -20 -16 0 -13 -7 -15 -42 -9 -66 11 -88 22 -88 45 0 13 -7 20 -20 20 -11 0 -20 -7 -20 -16 0 -10 -6 -14 -17 -10 -10 3 -45 12 -78 20 -33 9 -94 27 -135 42 -41 14 -88 30 -105 34 -30 8 -174 60 -227 81 -20 8 -28 19 -28 35 0 17 -6 24 -20 24 -11 0 -20 -7 -20 -15 0 -8 -4 -15 -10 -15 -5 0 -10 5 -10 11 0 5 -4 8 -9 5 -5 -3 -53 14 -107 39 -55 25 -105 45 -111 45 -9 0 -11 10 -6 30 5 26 3 30 -16 30 -12 0 -21 -6 -21 -15 0 -8 -4 -15 -9 -15 -5 0 -77 34 -160 75 -83 41 -156 75 -161 75 -6 0 -10 4 -10 9 0 5 -10 13 -23 17 -12 4 -40 18 -62 33 -22 14 -60 36 -85 50 -68 36 -85 53 -82 78 4 25 -15 30 -46 14 -16 -8 -56 14 -159 87 -10 7 -52 35 -93 63 -41 28 -76 55 -76 60 -1 5 -2 18 -3 29 -1 14 -8 20 -25 20 -13 0 -26 -5 -28 -11 -3 -8 -8 -7 -18 2 -8 8 -37 32 -64 54 -26 22 -43 41 -37 43 6 2 11 12 11 23 0 24 -35 26 -44 3 -5 -13 -14 -9 -49 22 -24 22 -77 66 -117 99 -201 164 -551 512 -723 720 -55 66 -104 122 -109 123 -4 2 -8 10 -8 18 0 8 -4 14 -9 14 -5 0 -12 7 -15 16 -4 12 -2 15 9 10 11 -4 15 1 15 19 0 18 -5 25 -19 25 -11 0 -22 6 -25 13 -3 6 -3 1 1 -13 5 -22 4 -23 -10 -12 -8 7 -35 39 -59 70 -24 31 -46 59 -51 60 -4 2 -7 10 -7 17 0 8 -6 20 -13 27 -7 7 -35 47 -62 88 -28 41 -53 77 -56 80 -24 19 -219 350 -219 371 0 5 5 9 10 9 6 0 10 9 10 20 0 22 -35 29 -42 8 -3 -8 -10 -3 -18 12 -13 24 -12 24 5 10 17 -14 18 -13 12 3 -4 10 -7 20 -7 23 0 2 -6 1 -12 -1 -17 -6 -183 322 -269 530 -18 44 -37 84 -41 89 -4 6 -8 16 -8 24 0 8 -6 28 -14 45 -8 18 -27 68 -42 112 -14 44 -44 130 -64 190 -80 235 -147 503 -216 865 -29 151 -57 428 -58 568 0 78 -4 142 -8 142 -4 0 -8 38 -8 85 0 69 3 85 15 85 12 0 15 18 15 104 0 70 -4 106 -12 108 -15 5 -25 168 -9 168 8 0 9 34 5 118 -6 111 14 351 46 532 33 194 45 256 67 350 13 58 25 111 25 118 1 6 12 12 25 12 16 0 23 6 23 20 0 11 -7 20 -15 20 -20 0 -19 21 6 110 78 278 184 592 245 727 8 17 14 34 14 37 0 9 35 88 84 186 35 73 44 85 64 82 16 -3 22 2 22 16 0 11 -4 22 -10 24 -6 2 -6 14 -1 33 5 17 10 24 10 18 2 -22 41 -15 41 7 0 11 -7 20 -15 20 -18 0 -19 9 -1 33 7 9 23 17 35 17 12 0 21 6 21 15 0 14 -13 20 -35 15 -5 -1 -2 7 8 18 9 10 17 21 17 25 0 3 14 30 31 59 18 29 44 76 58 103 15 28 34 61 42 75 71 113 99 153 99 145 0 -6 9 8 19 30 11 22 20 34 20 28 1 -7 10 -13 21 -13 25 0 28 35 4 44 -15 6 -15 8 1 26 10 11 22 17 28 13 6 -3 7 -1 3 5 -4 7 0 22 8 34 9 12 16 17 16 10 0 -6 9 -12 20 -12 16 0 20 7 20 33 0 23 -3 28 -10 17 -5 -8 -12 -11 -15 -8 -6 6 46 92 64 108 3 3 33 41 66 85 78 104 74 98 147 186 35 42 74 91 88 108 20 25 30 30 49 26 21 -5 23 -4 12 9 -11 13 -10 18 3 31 9 9 16 12 16 6 0 -6 9 -11 20 -11 25 0 27 37 3 42 -13 3 54 76 245 266 144 144 267 262 272 262 6 0 25 15 43 33 17 18 44 41 58 52 25 19 135 109 169 138 8 7 49 37 90 67 41 29 77 56 80 60 15 21 80 50 113 50 25 0 37 4 37 14 0 8 -5 16 -12 18 -12 4 93 88 111 88 5 0 30 16 55 35 26 19 53 35 61 35 8 0 15 5 15 10 0 6 10 15 23 20 12 6 45 24 72 40 98 58 185 100 183 88 -2 -7 7 -14 20 -16 23 -4 32 21 11 33 -11 8 103 76 196 117 80 35 105 42 105 29 0 -6 10 -11 21 -11 17 0 20 5 17 23 -4 18 2 26 21 34 14 6 60 25 101 43 41 17 89 37 106 45 28 12 31 12 30 -3 0 -9 7 -18 17 -20 13 -3 17 3 17 22 0 19 7 29 28 38 15 6 41 16 57 23 17 7 80 29 140 49 61 20 118 41 127 46 10 6 23 10 30 10 7 0 63 15 123 34 149 48 393 106 411 99 7 -3 14 -9 14 -14 0 -5 9 -9 20 -9 13 0 20 7 20 18 0 16 20 23 118 45 64 14 153 30 197 36 44 6 95 13 113 17 28 6 32 4 32 -15 0 -14 6 -21 20 -21 14 0 20 7 20 24 0 22 3 23 104 30 57 3 156 2 221 -4 64 -6 119 -9 122 -7 2 3 -31 9 -74 13 l-78 8 50 7 c90 13 112 11 118 -11 7 -27 37 -26 37 1 0 20 4 20 273 19 291 -2 512 -16 777 -51 91 -12 183 -24 205 -26 22 -3 44 -9 49 -14 6 -5 21 -9 36 -9 27 0 101 -15 245 -49 50 -12 110 -26 135 -32 25 -5 90 -24 145 -40 55 -17 132 -40 170 -51 39 -11 86 -25 105 -32 64 -24 104 -38 160 -56 51 -17 86 -31 195 -80 22 -9 65 -27 95 -39 126 -51 390 -180 536 -263 62 -35 70 -43 66 -64 -3 -19 0 -24 17 -24 11 0 21 5 21 10 0 17 15 11 86 -31 38 -23 82 -48 97 -58 76 -44 122 -86 119 -108 -3 -18 2 -23 17 -23 12 0 21 4 21 10 0 18 85 -29 103 -57 4 -7 15 -13 22 -13 8 0 15 -4 15 -8 0 -4 15 -16 33 -27 17 -10 37 -24 43 -29 6 -6 22 -18 34 -26 12 -8 28 -19 34 -25 6 -5 38 -31 71 -57 33 -26 74 -59 90 -73 17 -14 50 -41 75 -61 130 -104 396 -360 539 -518 64 -71 135 -150 158 -175 23 -25 42 -49 43 -53 0 -4 10 -17 23 -30 12 -13 42 -50 66 -83 25 -33 48 -62 51 -65 4 -3 37 -48 75 -100 38 -52 72 -97 75 -100 4 -3 34 -48 68 -100 34 -52 66 -100 72 -107 5 -7 10 -15 10 -19 0 -4 6 -15 14 -23 8 -9 23 -32 34 -51 10 -19 45 -76 76 -127 76 -125 289 -548 336 -668 5 -11 23 -56 41 -100 31 -79 89 -240 89 -250 0 -3 -7 -5 -15 -5 -9 0 -15 -9 -15 -21 0 -17 5 -20 25 -17 21 4 26 -1 41 -36 9 -23 25 -72 35 -111 11 -38 26 -92 35 -120 35 -117 97 -364 105 -418 5 -32 17 -93 28 -135 10 -42 24 -115 30 -162 7 -47 17 -107 22 -133 14 -71 12 -107 -6 -107 -8 0 -15 -9 -15 -20 0 -13 7 -20 19 -20 27 0 35 -56 36 -257 0 -90 3 -163 8 -163 4 0 7 -29 7 -65 0 -53 -3 -63 -15 -59 -11 5 -15 -1 -15 -20 0 -19 5 -26 20 -26 20 0 20 7 20 2940 l0 2940 -5995 0 -5995 0 0 -6000z"/>
<path d="M6270 11970 c-20 -6 -21 -8 -5 -8 11 0 31 4 45 8 20 6 21 8 5 8 -11 0 -31 -4 -45 -8z"/>
<path d="M6378 11963 c6 -2 18 -2 25 0 6 3 1 5 -13 5 -14 0 -19 -2 -12 -5z"/>
<path d="M5790 11890 c0 -11 -6 -20 -13 -20 -116 0 -528 -41 -707 -70 -36 -6 -83 -13 -105 -16 -22 -3 -49 -9 -60 -14 -11 -5 -38 -11 -60 -14 -22 -2 -71 -12 -110 -21 -38 -8 -83 -18 -98 -22 -21 -4 -27 -2 -25 8 2 8 -7 15 -19 17 -18 3 -23 -1 -23 -20 0 -22 -7 -26 -82 -43 -46 -10 -92 -22 -103 -26 -11 -4 -60 -20 -110 -35 -88 -26 -400 -135 -440 -153 -11 -5 -51 -22 -90 -36 -122 -47 -679 -327 -705 -355 -3 -3 -25 -16 -50 -29 -25 -13 -64 -37 -88 -53 -50 -32 -52 -33 -52 -13 0 9 -9 15 -21 15 -16 0 -20 -5 -17 -24 4 -30 -14 -46 -147 -134 -55 -37 -104 -70 -110 -74 -5 -5 -34 -27 -64 -50 -34 -27 -56 -38 -59 -30 -2 6 -13 12 -24 12 -16 0 -19 -5 -16 -24 6 -31 3 -36 -52 -75 -43 -31 -114 -91 -185 -156 -17 -16 -54 -48 -81 -70 -138 -113 -545 -545 -674 -714 -19 -25 -39 -52 -45 -58 -12 -15 -69 -92 -160 -216 -36 -49 -65 -84 -65 -78 0 6 -9 11 -20 11 -17 0 -20 -7 -20 -40 0 -60 -18 -90 -53 -90 -27 0 -29 -2 -24 -29 7 -33 -10 -69 -111 -238 -84 -140 -248 -468 -292 -583 -15 -40 -30 -60 -30 -42 0 7 -7 12 -15 12 -8 0 -15 -9 -15 -20 0 -11 5 -20 11 -20 14 0 6 -26 -66 -212 -36 -91 -45 -120 -80 -233 -21 -66 -43 -138 -50 -160 -23 -68 -64 -225 -86 -325 -11 -52 -27 -124 -35 -160 -8 -36 -20 -94 -25 -130 -5 -36 -14 -81 -18 -100 -5 -19 -12 -62 -15 -95 -13 -122 -17 -135 -37 -135 -20 0 -24 -21 -9 -55 8 -19 9 -19 9 -1 1 11 4 17 7 14 3 -3 -2 -93 -10 -200 -18 -219 -21 -689 -6 -893 19 -255 57 -548 94 -720 54 -250 53 -245 31 -245 -8 0 -15 -9 -15 -20 0 -14 7 -20 23 -20 19 0 25 -11 46 -83 55 -194 76 -261 126 -412 30 -88 68 -194 86 -235 17 -41 43 -102 56 -135 14 -33 37 -87 51 -120 31 -73 203 -409 265 -520 32 -57 40 -81 31 -83 -8 -2 -14 -13 -14 -24 0 -17 5 -20 29 -15 21 4 31 2 35 -9 12 -31 157 -248 289 -434 65 -90 60 -85 149 -191 35 -41 83 -99 108 -129 25 -30 67 -79 95 -109 72 -82 412 -419 469 -466 26 -22 62 -53 80 -70 17 -16 49 -43 71 -59 22 -17 42 -32 45 -35 12 -14 88 -78 114 -96 36 -26 111 -81 156 -115 67 -50 249 -170 260 -170 5 0 10 -4 10 -8 0 -7 58 -43 238 -150 75 -45 399 -210 482 -246 36 -15 85 -37 110 -48 93 -42 237 -101 290 -118 30 -10 96 -33 145 -50 165 -58 436 -135 580 -164 39 -8 113 -23 165 -34 52 -11 129 -26 170 -32 41 -7 95 -15 120 -20 25 -5 97 -13 160 -20 63 -6 151 -16 195 -21 127 -17 701 -23 860 -10 222 17 610 64 613 73 2 4 14 8 28 8 79 0 516 100 719 165 61 19 128 40 150 47 22 7 51 18 65 25 14 7 30 13 37 13 20 0 176 59 286 109 37 16 67 27 67 24 0 -3 9 2 19 11 19 17 19 17 14 -3 -4 -16 -1 -21 16 -21 15 0 21 6 21 24 0 17 9 27 33 37 184 74 649 335 887 499 164 113 333 244 515 398 298 252 652 632 897 962 34 47 67 90 73 97 30 36 35 43 35 48 0 3 41 67 90 142 50 74 90 138 90 140 0 3 8 17 19 31 31 44 170 298 242 442 59 119 199 439 199 456 0 5 13 36 41 99 5 11 18 49 29 85 12 36 24 72 27 80 4 8 16 44 28 80 16 51 25 66 43 68 26 4 31 42 6 42 -10 0 -14 6 -10 18 43 142 133 518 146 614 6 39 12 73 15 77 3 6 35 232 35 253 0 4 9 8 20 8 22 0 26 16 10 40 -6 10 -10 11 -10 3 0 -7 -4 -13 -10 -13 -5 0 -7 6 -5 13 9 25 35 382 35 487 0 122 4 140 31 140 17 0 19 8 19 60 0 52 -2 60 -19 60 -11 0 -22 -6 -24 -12 -3 -7 -6 48 -6 122 -2 248 -52 725 -95 899 -8 31 -17 79 -20 106 -13 98 -131 548 -167 630 -4 11 -13 40 -20 65 -6 25 -14 50 -18 55 -4 6 -17 42 -30 80 -12 39 -27 79 -31 90 -20 47 -22 65 -6 65 10 0 16 9 16 21 0 16 -5 20 -26 17 -24 -3 -29 4 -75 112 -50 119 -56 140 -39 140 6 0 10 9 10 20 0 22 -35 28 -43 8 -3 -8 -6 -6 -6 4 -1 10 -14 43 -31 73 -16 30 -30 61 -30 67 0 6 -6 19 -14 27 -7 9 -37 61 -66 116 -81 154 -109 205 -155 275 -86 133 -95 150 -85 150 5 0 10 14 10 30 0 23 -4 30 -20 30 -11 0 -20 -5 -20 -12 0 -6 -27 27 -59 73 -82 116 -123 171 -141 191 -29 33 -40 47 -40 54 0 6 -47 65 -140 174 -17 19 -42 51 -58 71 -25 33 -67 79 -154 171 -21 22 -38 43 -38 48 0 5 -6 11 -12 14 -10 5 -10 7 0 12 20 10 15 44 -8 44 -12 0 -20 -7 -20 -17 0 -15 -2 -16 -10 -3 -6 10 -6 16 0 18 19 7 11 42 -10 42 -12 0 -20 -7 -20 -17 0 -12 -15 -2 -50 32 -44 44 -50 53 -44 79 6 28 5 29 -22 23 -25 -5 -38 2 -85 46 -112 103 -191 171 -306 263 -65 52 -128 103 -139 114 -12 11 -26 20 -32 20 -6 0 -12 4 -14 8 -1 4 -25 23 -53 42 -27 19 -52 37 -55 40 -3 3 -29 21 -57 40 -29 19 -53 38 -53 43 0 4 -7 7 -16 7 -10 0 -14 6 -10 15 4 10 -1 15 -14 15 -11 0 -19 3 -19 8 3 19 -2 26 -10 13 -7 -11 -19 -7 -62 21 -67 44 -213 130 -257 152 -25 13 -32 22 -27 34 5 14 4 15 -6 5 -21 -21 -29 -15 -22 17 4 24 2 30 -11 30 -9 0 -19 -6 -22 -14 -4 -9 -53 11 -185 75 -99 49 -183 89 -187 89 -4 0 -32 13 -62 28 -30 15 -100 45 -155 66 -55 22 -113 45 -130 52 -16 7 -52 19 -80 27 -27 9 -90 30 -140 47 -162 57 -366 116 -542 157 -58 13 -73 20 -73 35 0 14 -8 18 -41 18 -30 0 -40 -4 -36 -14 4 -10 -12 -9 -76 7 -118 28 -324 54 -629 79 -242 20 -268 24 -268 40 0 11 -7 18 -20 18 -11 0 -20 -6 -20 -14 0 -23 -24 -26 -181 -26 -142 0 -149 1 -149 20 0 13 -7 20 -20 20 -13 0 -20 -7 -20 -20z m-438 -750 c7 0 8 -16 5 -42 -6 -40 -18 -125 -52 -358 -7 -52 -22 -166 -34 -253 -11 -86 -22 -161 -25 -165 -3 -5 -15 -80 -26 -168 -34 -254 -66 -480 -90 -634 -6 -41 -17 -117 -24 -169 l-13 -94 196 -191 c107 -105 310 -305 450 -444 286 -283 253 -265 336 -185 269 254 345 321 345 304 0 -6 9 -11 20 -11 11 0 20 7 20 15 0 9 -9 15 -22 15 -21 0 -20 3 12 30 19 17 80 72 135 124 55 52 138 130 185 174 47 44 99 91 115 105 l31 25 -7 84 c-5 46 -12 130 -18 188 -7 79 -7 106 2 112 8 5 14 -2 19 -20 5 -20 6 -15 5 18 -2 37 -6 46 -23 48 -19 3 -22 12 -28 90 -3 48 -10 130 -16 182 -21 214 -31 323 -45 485 -8 94 -19 204 -24 245 -14 105 -22 312 -12 275 5 -16 9 -23 10 -14 0 9 4 31 7 48 6 27 4 31 -14 31 -17 0 -22 8 -28 46 -3 25 -3 49 2 54 5 4 33 10 63 12 53 3 54 3 57 -27 4 -36 19 -203 39 -425 8 -91 19 -210 25 -265 23 -235 24 -275 6 -275 -9 0 -16 -8 -16 -20 0 -13 7 -20 18 -20 19 0 26 -50 63 -432 5 -54 13 -142 19 -195 5 -54 12 -136 16 -183 l6 -86 -163 -153 c-90 -85 -165 -149 -167 -143 -7 21 -42 14 -42 -8 0 -11 6 -20 13 -20 6 0 4 -5 -7 -11 -14 -9 -20 -8 -27 2 -6 10 -9 8 -9 -8 0 -13 -6 -23 -12 -24 -10 0 -10 -2 -1 -5 12 -5 8 -10 -118 -127 -36 -34 -128 -120 -204 -192 -76 -71 -157 -147 -179 -168 -23 -21 -42 -33 -44 -27 -2 5 -13 10 -24 10 -16 0 -19 -5 -16 -25 3 -14 -1 -30 -8 -36 -11 -9 -14 -7 -15 7 -1 11 -4 6 -8 -11 -3 -16 -9 -30 -12 -30 -13 0 -380 365 -368 366 8 0 3 5 -11 11 -15 6 -20 12 -12 15 21 8 14 43 -8 43 -11 0 -20 -5 -20 -11 0 -5 -4 -8 -9 -5 -4 3 -6 17 -3 31 3 18 0 25 -12 25 -9 0 -16 -8 -16 -17 0 -14 -2 -15 -9 -5 -4 7 -6 24 -3 37 4 22 1 24 -29 24 -31 -1 -55 19 -286 247 l-252 249 10 70 c14 106 17 115 39 115 14 0 20 7 20 21 0 16 -5 20 -20 16 -23 -6 -25 4 -11 66 5 23 15 75 21 115 10 60 15 72 31 72 20 0 23 10 12 49 -6 23 -7 23 -14 5 -11 -29 -11 34 0 93 6 26 13 69 16 96 5 38 10 47 26 47 15 0 19 7 19 38 l0 37 -21 -25 c-11 -14 -18 -20 -15 -13 4 6 13 63 21 125 8 62 19 142 25 178 6 36 18 112 26 170 8 58 21 148 29 200 7 52 21 147 30 210 30 213 28 205 53 208 12 2 22 9 22 17 0 15 27 25 48 19 8 -2 18 -4 24 -4z m3699 -782 l40 -43 -65 -62 c-36 -35 -69 -63 -73 -63 -3 0 -20 -15 -37 -32 -17 -18 -60 -58 -96 -88 -36 -30 -90 -78 -120 -106 -30 -29 -68 -63 -85 -75 -16 -13 -50 -42 -74 -64 -58 -54 -66 -61 -140 -125 -35 -30 -80 -70 -99 -89 -20 -19 -38 -29 -40 -22 -2 6 -12 11 -23 11 -14 0 -19 -7 -19 -29 0 -30 -3 -33 -171 -182 -211 -189 -277 -247 -309 -273 -19 -16 -73 -64 -119 -107 -45 -44 -85 -79 -87 -79 -3 0 0 9 6 19 14 27 13 30 -11 24 -16 -4 -20 -12 -16 -29 4 -22 -4 -29 -26 -25 -5 1 -5 -3 -2 -10 7 -11 -8 -27 -126 -129 -35 -30 -90 -81 -124 -112 -39 -37 -61 -52 -63 -42 -2 8 -12 14 -23 14 -17 0 -25 -21 -20 -52 0 -5 -9 -8 -21 -8 -19 0 -20 -2 -8 -10 12 -8 6 -18 -34 -52 -27 -24 -99 -88 -160 -143 -61 -54 -117 -104 -124 -110 -7 -5 -27 -24 -45 -40 -18 -17 -49 -43 -70 -59 -20 -16 -54 -45 -76 -65 -128 -121 -144 -134 -139 -113 5 17 2 22 -14 22 -15 0 -19 -6 -16 -27 2 -15 -2 -28 -9 -30 -7 -3 -13 1 -13 9 0 10 -2 10 -8 1 -5 -8 174 -194 523 -544 292 -293 524 -534 518 -536 -21 -7 -15 -43 6 -43 11 0 21 5 23 11 2 7 9 5 17 -5 11 -14 11 -16 -3 -16 -9 0 -16 -7 -16 -15 0 -17 36 -21 42 -4 2 7 9 5 17 -5 9 -11 10 -16 2 -16 -6 0 -11 -9 -11 -20 0 -11 7 -20 15 -20 8 0 15 7 15 16 0 14 2 14 16 3 10 -8 12 -15 5 -17 -20 -7 -13 -42 9 -42 11 0 20 5 20 11 0 5 5 7 12 3 9 -6 9 -9 0 -12 -21 -7 -14 -42 8 -42 11 0 20 5 20 11 0 5 5 7 12 3 9 -6 9 -9 0 -12 -7 -2 -12 -12 -12 -23 0 -22 35 -27 43 -6 4 9 8 8 16 -3 8 -11 7 -16 -4 -18 -22 -5 -18 -32 5 -32 11 0 20 5 20 11 0 8 5 7 16 -2 14 -11 14 -13 0 -21 -23 -13 -20 -38 4 -38 12 0 20 7 20 16 0 14 2 14 16 3 10 -8 12 -15 5 -17 -19 -6 -13 -42 8 -42 11 0 21 5 23 11 2 6 21 -6 41 -25 21 -20 42 -36 46 -36 4 0 32 28 62 61 30 34 95 107 144 162 50 55 101 114 115 131 13 17 39 45 57 62 18 17 33 35 33 41 0 6 4 13 8 15 8 3 167 177 272 298 30 35 78 88 105 118 28 30 58 64 68 76 48 55 147 163 190 208 26 27 47 52 47 56 0 4 41 51 91 104 50 54 105 115 122 137 38 47 259 295 296 332 14 14 44 47 66 74 48 59 72 80 88 80 7 0 13 10 15 23 2 12 8 22 13 22 6 0 7 -4 4 -10 -4 -6 5 -10 19 -10 21 0 26 5 26 25 0 18 -4 23 -15 19 -30 -12 -31 -13 129 166 97 108 118 130 128 130 5 0 7 3 5 8 -2 4 8 18 21 31 14 13 23 17 19 9 -4 -11 1 -14 19 -10 25 5 34 37 12 44 -6 2 14 33 47 69 32 35 74 82 94 104 20 22 46 52 58 67 l21 28 46 -36 c25 -19 46 -39 46 -43 0 -8 -20 -31 -160 -186 -30 -34 -82 -92 -115 -128 -33 -37 -61 -63 -63 -57 -2 5 -12 10 -23 10 -20 0 -28 -35 -9 -42 14 -4 -85 -122 -247 -295 -23 -24 -44 -50 -47 -56 -5 -9 -7 -9 -12 1 -10 20 -44 15 -44 -8 0 -11 5 -20 10 -20 12 0 -16 -47 -42 -70 -9 -8 -49 -53 -90 -100 -140 -162 -148 -169 -180 -163 -24 5 -28 2 -28 -16 0 -11 5 -21 11 -21 20 0 -25 -58 -121 -159 -16 -17 -142 -159 -195 -220 -62 -72 -121 -137 -161 -178 -22 -23 -53 -59 -69 -80 -16 -21 -44 -52 -62 -69 -18 -17 -33 -33 -33 -37 0 -3 -10 -17 -22 -29 -57 -58 -204 -222 -211 -234 -5 -8 -30 -37 -58 -65 -27 -27 -49 -52 -49 -54 0 -3 -8 -13 -17 -23 -24 -24 -158 -173 -203 -225 -19 -22 -51 -57 -70 -77 -19 -21 -43 -49 -53 -63 -10 -14 -38 -45 -62 -70 l-44 -44 -308 307 c-170 170 -332 333 -361 364 -30 31 -58 56 -63 56 -5 0 -9 7 -9 15 0 8 -4 15 -9 15 -5 0 -24 16 -43 35 -40 42 -502 513 -709 721 -82 83 -149 158 -149 165 1 10 4 9 11 -3 5 -10 16 -15 24 -12 18 7 20 44 3 44 -12 0 39 50 149 146 32 29 80 72 107 95 71 63 89 75 94 61 2 -7 11 -12 19 -12 11 0 14 7 10 27 -5 29 24 64 123 144 25 20 77 65 115 101 74 68 95 88 172 154 27 22 89 78 140 122 50 45 96 82 102 82 5 0 15 8 21 18 11 16 11 16 6 0 -4 -14 0 -18 19 -18 18 0 25 5 25 20 0 12 -7 20 -17 20 -14 0 -10 7 14 28 80 69 189 166 249 222 23 22 70 63 105 92 35 29 76 64 91 78 70 67 266 240 271 240 2 0 26 21 54 48 142 133 283 249 283 232 0 -6 9 -10 20 -10 13 0 20 7 20 20 0 11 -5 20 -12 20 -12 0 53 65 119 120 17 14 65 57 108 95 43 39 89 79 101 90 53 46 150 132 183 162 20 18 37 33 39 33 2 0 21 -19 43 -42z m-6038 -14 c38 -37 47 -52 47 -80 0 -27 4 -34 19 -34 11 0 21 7 23 16 2 11 36 -14 113 -83 61 -55 123 -110 139 -124 16 -13 46 -41 67 -61 20 -21 41 -38 47 -38 6 0 12 -4 14 -8 2 -5 57 -57 123 -116 66 -60 146 -132 178 -162 32 -29 66 -59 76 -66 10 -7 63 -54 117 -104 55 -50 115 -104 134 -120 19 -16 54 -48 77 -71 24 -24 45 -43 49 -43 3 0 12 -7 20 -15 14 -13 14 -15 0 -15 -9 0 -16 -7 -16 -15 0 -8 7 -15 15 -15 8 0 15 5 15 10 0 21 20 8 102 -67 47 -43 120 -109 162 -146 67 -60 76 -73 76 -103 0 -27 4 -34 20 -34 11 0 20 5 20 10 0 25 7 20 162 -122 85 -77 153 -139 268 -240 36 -31 81 -71 100 -88 19 -18 64 -57 100 -88 36 -32 74 -67 85 -79 11 -13 24 -23 28 -23 4 0 45 -35 90 -79 45 -43 111 -103 147 -132 36 -30 74 -62 85 -72 20 -18 13 -25 -415 -448 -277 -274 -436 -425 -438 -415 -5 24 -42 20 -42 -4 0 -12 7 -20 18 -20 13 0 14 -2 4 -9 -7 -4 -24 -6 -38 -3 -17 3 -24 0 -24 -12 0 -9 8 -16 18 -16 13 0 14 -2 4 -9 -7 -4 -25 -6 -39 -3 -23 4 -25 2 -21 -20 4 -22 2 -24 -20 -20 -22 4 -24 2 -20 -21 3 -14 1 -32 -3 -39 -7 -10 -9 -9 -9 5 0 9 -7 17 -15 17 -18 0 -20 -37 -3 -42 7 -3 6 -7 -5 -11 -9 -3 -17 -2 -17 3 0 6 -9 10 -20 10 -13 0 -20 -7 -20 -20 0 -11 5 -20 11 -20 5 0 7 -5 3 -12 -6 -9 -9 -9 -12 0 -7 21 -42 14 -42 -8 0 -12 7 -20 18 -20 14 0 15 -2 2 -10 -8 -5 -25 -10 -38 -10 -13 0 -20 -4 -17 -10 4 -6 11 -7 17 -4 29 18 -19 -41 -88 -107 -42 -41 -82 -80 -88 -87 -6 -7 -20 -21 -30 -30 -11 -9 -80 -77 -155 -149 -75 -73 -138 -133 -140 -133 -5 0 -55 55 -131 142 -30 34 -73 83 -95 108 -23 25 -56 63 -74 85 -19 22 -57 65 -85 95 -60 64 -93 112 -72 104 10 -4 12 2 9 21 -4 20 -10 25 -32 23 -17 -2 -25 1 -23 10 1 8 -2 11 -9 7 -10 -7 -28 11 -108 101 -107 124 -159 181 -178 200 -13 12 -23 24 -23 27 0 4 -21 28 -47 54 -27 27 -55 60 -65 73 -9 14 -59 72 -112 130 -141 154 -177 194 -184 206 -4 7 -45 53 -91 103 -82 89 -119 141 -100 141 5 0 9 9 9 20 0 21 -35 29 -42 10 -1 -5 -8 -6 -13 -2 -14 9 -305 339 -305 345 0 2 -21 27 -47 55 -27 28 -59 63 -72 79 -13 15 -57 64 -97 108 -73 78 -84 95 -64 95 6 0 10 9 10 20 0 13 -7 20 -20 20 -11 0 -20 -5 -20 -12 0 -8 -6 -6 -17 4 -13 14 -14 20 -3 32 7 10 8 16 2 16 -6 0 -12 -6 -15 -12 -2 -8 -20 5 -43 31 -21 24 -52 59 -69 77 -91 98 -225 256 -225 264 0 4 18 24 40 44 l40 36 33 -33 c17 -18 54 -59 82 -92 27 -33 79 -92 115 -131 36 -39 119 -133 185 -208 66 -76 136 -156 156 -178 32 -36 35 -44 23 -55 -8 -8 -14 -19 -14 -24 0 -13 38 -11 42 2 2 6 26 -14 53 -43 91 -99 261 -291 280 -316 6 -7 24 -28 40 -45 17 -18 64 -71 105 -117 41 -46 82 -92 90 -101 8 -9 23 -27 33 -40 16 -21 16 -24 2 -27 -22 -5 -18 -32 5 -32 11 0 20 6 20 12 0 12 73 -61 129 -128 13 -16 60 -69 105 -119 44 -49 86 -97 93 -105 7 -8 23 -26 35 -40 13 -14 38 -43 57 -65 19 -22 62 -71 97 -110 96 -108 108 -125 90 -125 -9 0 -16 -8 -16 -20 0 -13 7 -20 20 -20 12 0 20 7 20 18 0 13 7 9 28 -15 69 -80 166 -189 222 -249 22 -23 63 -70 92 -105 66 -80 106 -126 136 -154 l23 -22 488 486 c268 267 597 594 732 727 286 281 278 272 258 284 -20 13 -162 136 -225 197 -30 28 -58 53 -63 55 -7 2 -121 105 -221 198 -14 14 -53 48 -86 75 -60 51 -126 110 -224 201 -30 29 -73 67 -95 85 -68 57 -130 121 -127 132 2 5 -4 7 -12 4 -9 -4 -18 -2 -21 3 -4 6 -1 10 4 10 6 0 11 9 11 20 0 24 -27 27 -32 4 -2 -12 -28 6 -94 67 -50 46 -123 113 -162 147 -41 36 -69 68 -65 75 4 6 0 8 -10 4 -13 -5 -15 0 -10 29 5 30 3 34 -16 34 -13 0 -21 -6 -21 -17 -1 -17 -1 -17 -11 0 -5 9 -15 17 -22 17 -7 0 -52 39 -102 85 -49 47 -106 98 -125 113 -19 14 -45 36 -56 47 -12 11 -35 32 -50 46 -16 14 -83 73 -149 133 -66 59 -144 129 -173 156 -30 28 -55 50 -58 50 -2 0 -12 8 -22 18 -45 43 -210 192 -242 218 -19 16 -53 47 -75 69 -22 22 -53 48 -68 58 -44 28 -44 44 -1 88 21 21 41 39 44 39 3 0 27 -21 53 -46z m6337 -3299 c58 -8 147 -21 198 -27 86 -11 92 -13 92 -35 0 -16 6 -23 20 -23 11 0 20 7 20 15 0 10 10 15 28 15 27 0 267 -30 442 -56 202 -29 310 -44 455 -64 83 -11 200 -27 260 -36 61 -8 135 -19 165 -22 l55 -7 -1 -36 c-1 -20 -4 -48 -8 -63 -6 -24 -11 -27 -34 -22 -15 3 -61 9 -102 13 -41 3 -77 9 -80 13 -3 3 -54 12 -115 19 -178 20 -185 21 -185 42 0 21 -3 22 -50 13 -22 -5 -28 -9 -18 -15 8 -6 2 -7 -17 -4 -16 3 -84 12 -150 20 -114 15 -183 24 -433 60 -59 9 -172 24 -252 35 -80 11 -172 24 -205 30 -33 5 -101 15 -152 21 -88 11 -92 11 -114 -10 -13 -12 -25 -17 -27 -11 -7 19 -42 11 -42 -10 0 -11 5 -20 11 -20 5 0 7 -5 3 -12 -6 -9 -9 -9 -12 0 -6 20 -42 14 -42 -7 0 -11 5 -21 10 -23 15 -5 34 15 -680 -719 -93 -96 -90 -81 -29 -146 31 -33 48 -58 41 -61 -17 -5 -15 -42 2 -42 8 0 16 7 18 16 2 12 9 10 30 -13 14 -15 66 -69 115 -120 48 -51 104 -109 123 -130 19 -21 118 -126 220 -232 194 -203 218 -231 201 -231 -6 0 -11 -9 -11 -20 0 -19 5 -20 83 -15 45 2 127 9 182 14 125 13 164 14 147 2 -11 -7 -10 -10 3 -15 29 -11 45 -7 45 13 0 16 14 20 128 30 70 7 154 16 187 21 33 5 89 11 125 15 36 3 112 10 170 15 180 18 309 30 475 45 88 7 210 19 272 26 62 7 114 11 117 8 2 -2 7 -29 11 -60 l7 -56 -64 -7 c-34 -4 -78 -9 -95 -13 -29 -4 -33 -2 -33 16 0 14 -6 21 -20 21 -13 0 -20 -7 -20 -19 0 -24 9 -23 -405 -61 -60 -6 -164 -17 -230 -24 -66 -8 -158 -17 -205 -21 -47 -3 -143 -12 -215 -20 -127 -14 -245 -25 -470 -46 -60 -5 -125 -12 -143 -14 -36 -4 -59 16 -211 181 -46 51 -299 319 -385 408 -17 18 -24 32 -18 34 21 7 14 42 -8 42 -11 0 -20 -5 -20 -11 0 -10 -83 74 -302 305 l-75 79 166 171 c91 94 254 261 362 371 107 110 219 225 248 255 29 30 93 97 144 149 l92 93 50 -6 c28 -3 97 -13 155 -21z m-6461 -22 c18 -21 118 -126 220 -233 267 -278 274 -287 256 -294 -8 -3 -15 -12 -15 -21 0 -17 36 -21 42 -4 5 16 41 -7 59 -37 12 -20 93 -106 325 -344 l63 -65 -71 -75 c-82 -86 -300 -312 -527 -546 -86 -89 -180 -187 -208 -218 -56 -60 -63 -64 -63 -41 0 8 -7 15 -15 15 -17 0 -21 -36 -5 -42 6 -2 -17 -34 -52 -72 l-63 -68 -45 6 c-25 4 -126 17 -225 30 -99 13 -170 24 -157 25 27 1 30 31 3 31 -11 0 -21 -5 -23 -11 -2 -6 -21 -11 -43 -12 -36 -1 -273 30 -415 53 -30 5 -137 19 -237 32 -177 22 -183 23 -183 45 0 16 -6 23 -20 23 -11 0 -20 -6 -20 -14 0 -16 -24 -28 -42 -21 -19 7 -130 23 -341 50 -104 12 -190 25 -193 28 -9 9 9 117 20 117 29 0 248 -30 256 -35 5 -3 7 -12 3 -20 -3 -10 2 -15 16 -15 12 0 21 6 21 14 0 16 41 14 170 -5 96 -14 351 -48 545 -73 161 -20 170 -22 173 -43 4 -25 42 -33 42 -9 0 15 27 29 40 21 9 -6 86 -18 300 -46 85 -12 180 -25 210 -29 84 -13 94 -12 118 13 12 12 92 93 177 180 86 86 160 157 165 157 6 0 10 -6 10 -12 0 -9 3 -8 9 2 6 8 7 18 5 22 -3 4 0 16 5 25 6 10 11 12 11 6 0 -18 40 -16 40 1 0 8 -6 16 -12 19 -10 4 -10 7 0 18 9 9 12 10 12 1 0 -7 9 -12 20 -12 13 0 20 7 20 20 0 11 -7 20 -15 20 -8 0 41 57 109 128 219 225 295 307 296 318 0 5 -16 25 -34 43 -29 28 -34 39 -29 62 4 22 2 29 -10 29 -9 0 -19 -5 -23 -11 -4 -8 -10 -7 -18 1 -8 9 -8 14 2 17 6 3 12 13 12 24 0 15 -7 19 -33 19 -28 0 -48 16 -160 133 -178 183 -250 259 -417 435 l-145 154 -42 -4 c-24 -2 -43 0 -43 4 0 5 6 8 13 8 19 0 -15 20 -35 20 -11 0 -18 -8 -18 -19 0 -21 -21 -27 -135 -36 -38 -4 -128 -13 -200 -20 -71 -8 -184 -19 -250 -25 -66 -6 -217 -22 -335 -35 -276 -30 -494 -53 -593 -61 -62 -5 -77 -4 -75 7 2 8 -7 15 -19 17 -17 3 -23 -2 -23 -16 0 -17 -9 -20 -58 -25 -31 -2 -58 -4 -58 -3 -1 0 -4 29 -7 64 l-5 62 48 0 c27 0 82 5 122 10 40 6 147 17 238 25 91 9 203 20 250 25 244 26 270 27 264 8 -4 -14 0 -18 20 -18 19 0 26 5 26 19 0 22 13 25 170 41 230 23 392 40 530 55 80 8 163 16 185 18 22 2 49 4 60 5 12 1 34 -13 54 -35z m676 -213 c3 -5 4 -10 1 -10 -3 0 -8 5 -11 10 -3 6 -4 10 -1 10 3 0 8 -4 11 -10z m4453 -1168 c20 -24 51 -58 67 -75 17 -18 40 -44 51 -59 12 -15 51 -60 87 -100 99 -110 112 -128 93 -128 -10 0 -16 -9 -16 -21 0 -18 4 -20 33 -16 30 5 36 1 120 -96 48 -56 110 -127 138 -157 27 -30 61 -68 74 -85 13 -16 39 -48 59 -70 20 -22 63 -69 95 -105 100 -111 133 -154 122 -158 -6 -2 -11 -13 -11 -24 0 -17 5 -20 28 -15 25 5 35 -1 83 -55 30 -33 62 -69 72 -80 10 -10 54 -60 98 -111 72 -83 157 -180 184 -210 6 -7 46 -52 89 -102 43 -49 87 -97 97 -107 11 -9 19 -19 19 -23 0 -4 23 -30 50 -57 28 -27 50 -52 50 -55 0 -3 33 -42 73 -87 110 -124 115 -131 95 -123 -14 5 -18 1 -18 -18 0 -18 5 -25 20 -25 12 0 20 7 20 18 0 13 7 9 28 -15 69 -80 166 -189 222 -249 22 -23 63 -70 92 -105 29 -35 57 -69 63 -75 74 -80 78 -86 60 -96 -9 -6 -31 -23 -48 -38 l-31 -27 -40 46 c-23 25 -64 70 -92 101 -28 30 -60 69 -73 85 -12 17 -46 55 -74 85 -29 31 -63 68 -77 84 l-25 29 24 -13 c21 -11 23 -10 18 5 -4 9 -7 21 -7 26 0 6 -13 8 -30 5 -16 -2 -30 -1 -30 2 0 4 -17 26 -37 48 -21 23 -63 70 -93 105 -30 35 -82 92 -115 127 -33 35 -62 69 -64 75 -2 6 -16 22 -32 36 -15 14 -42 44 -59 66 -17 22 -51 60 -74 85 -73 79 -112 133 -98 137 6 3 12 13 12 24 0 14 -7 19 -26 19 -14 0 -22 -4 -19 -10 3 -6 -1 -7 -10 -4 -10 4 -14 13 -10 28 5 15 4 17 -3 8 -10 -15 -32 3 -77 61 -11 14 -58 66 -104 116 -45 50 -96 107 -113 128 -16 21 -62 74 -103 118 -40 44 -85 96 -101 115 -16 19 -41 48 -56 64 -29 32 -35 46 -18 46 6 0 10 10 10 21 0 18 -4 21 -29 16 -32 -7 -22 -16 -191 173 -41 47 -90 100 -107 119 -18 19 -33 39 -33 43 0 4 -21 30 -47 57 -27 27 -59 62 -72 78 -55 66 -148 168 -168 187 -13 11 -23 23 -23 27 0 5 -22 31 -50 59 -27 27 -54 59 -60 71 -6 11 -15 19 -20 17 -5 -2 -343 -336 -750 -743 l-741 -739 38 -34 c21 -19 72 -64 113 -102 41 -37 95 -85 120 -106 25 -22 47 -42 50 -45 6 -7 308 -279 363 -326 20 -18 37 -37 37 -43 0 -5 5 -10 10 -10 6 0 10 -13 10 -30 0 -23 5 -30 19 -30 11 0 21 5 23 11 3 10 67 -44 323 -275 39 -35 90 -81 114 -102 24 -22 57 -51 72 -65 16 -15 58 -53 95 -85 101 -89 144 -132 144 -144 0 -5 8 -10 18 -11 10 0 12 -3 5 -6 -7 -2 -13 -11 -13 -19 0 -17 27 -19 32 -3 4 12 185 -142 313 -266 17 -16 53 -48 80 -70 27 -22 86 -74 130 -115 45 -41 97 -88 115 -105 19 -16 62 -54 95 -85 33 -30 89 -80 124 -110 35 -30 88 -78 118 -106 30 -29 71 -65 91 -80 67 -54 66 -51 20 -100 -47 -50 -38 -52 -128 31 -31 27 -94 84 -139 125 -46 41 -107 96 -135 122 -28 26 -54 48 -58 48 -4 0 -5 13 -2 29 5 24 2 29 -19 33 -20 4 -24 2 -19 -11 5 -14 4 -14 -14 -1 -10 8 -51 44 -90 80 -127 117 -247 224 -283 253 -19 15 -71 62 -116 105 -44 42 -99 90 -120 107 -66 50 -179 167 -135 140 6 -4 10 5 10 19 0 21 -5 26 -25 26 -18 0 -23 -4 -19 -15 4 -8 4 -15 1 -15 -7 0 -154 131 -304 271 -29 27 -57 49 -62 49 -5 0 -11 4 -13 8 -1 4 -57 57 -123 116 -66 60 -150 136 -187 169 -37 34 -65 65 -62 69 3 4 -3 8 -13 9 -10 0 -13 3 -5 6 6 2 12 13 12 24 0 23 -37 27 -42 4 -2 -10 -17 -2 -49 28 -36 34 -148 134 -213 192 -97 86 -295 265 -311 280 -11 11 -55 51 -98 90 l-78 70 838 832 838 833 48 -53 c26 -28 64 -72 85 -95z m-3083 -702 l830 -831 -60 -57 c-33 -31 -145 -131 -249 -222 -104 -91 -232 -205 -285 -253 -67 -62 -97 -84 -99 -73 -5 24 -42 20 -42 -4 0 -11 6 -20 13 -21 6 -1 1 -4 -13 -8 -14 -4 -25 -13 -25 -21 0 -16 -31 -49 -120 -125 -32 -27 -65 -57 -75 -65 -9 -8 -46 -40 -81 -70 -35 -30 -77 -68 -94 -85 -17 -16 -51 -46 -75 -66 -25 -20 -80 -69 -123 -109 -47 -44 -77 -66 -77 -56 0 10 -8 16 -21 16 -17 0 -20 -5 -17 -25 3 -15 -1 -30 -10 -37 -13 -11 -15 -10 -9 2 4 8 2 6 -5 -5 -22 -33 -212 -213 -304 -287 -49 -39 -312 -273 -334 -297 -8 -9 -33 -29 -55 -46 -22 -16 -50 -39 -61 -50 -12 -11 -35 -32 -50 -46 -16 -14 -73 -65 -126 -113 -59 -52 -98 -81 -98 -72 0 9 -8 16 -20 16 -18 0 -26 -20 -21 -52 0 -5 -9 -8 -22 -8 -17 0 -19 -2 -8 -9 12 -8 7 -16 -21 -43 -37 -34 -146 -132 -195 -174 l-28 -24 -37 37 c-21 20 -38 43 -38 49 0 7 32 41 71 76 39 35 91 82 116 105 24 24 48 43 53 43 5 0 13 6 17 13 4 6 28 29 53 51 25 21 80 71 124 110 81 74 126 104 126 86 0 -22 38 -10 42 14 4 19 1 22 -16 18 -25 -6 -22 -3 54 63 78 67 199 174 238 211 18 18 44 40 58 50 15 11 43 35 64 54 21 19 82 73 135 120 54 47 106 93 116 103 16 14 19 14 19 2 0 -26 37 -18 42 9 4 17 1 23 -9 19 -7 -3 -13 0 -13 6 0 6 4 11 8 11 5 0 30 19 55 43 25 23 74 67 109 98 35 31 90 80 123 109 33 30 66 59 73 65 7 5 28 24 45 40 18 17 62 55 97 85 36 30 83 71 105 92 22 21 46 38 53 38 6 0 12 6 13 13 0 9 2 9 6 0 8 -21 43 -15 43 7 0 11 -6 20 -12 20 -7 1 -3 9 9 19 12 10 56 49 98 87 109 98 114 102 190 169 38 33 76 67 85 75 8 8 53 47 100 86 47 40 101 88 120 109 33 35 99 78 86 56 -5 -7 3 -11 18 -11 19 0 26 5 26 20 0 13 -7 20 -18 20 -28 0 -42 20 -35 51 4 22 2 29 -10 29 -8 0 -17 -4 -19 -10 -2 -6 -9 -5 -18 1 -11 8 -12 12 -2 16 6 2 12 11 12 19 0 17 -37 19 -42 2 -3 -7 -7 -6 -11 5 -3 9 -2 17 3 17 6 0 10 9 10 20 0 13 -7 20 -20 20 -11 0 -20 -5 -20 -11 0 -5 -5 -7 -12 -3 -9 6 -9 9 0 12 21 7 14 42 -8 42 -11 0 -20 -5 -20 -11 0 -5 -5 -7 -12 -3 -9 6 -9 9 0 12 7 2 12 12 12 23 0 22 -35 27 -43 7 -2 -8 -8 -9 -13 -4 -5 5 -4 11 4 13 21 8 14 43 -8 43 -11 0 -20 -4 -20 -10 0 -5 -5 -10 -11 -10 -7 0 -8 11 -4 31 7 30 6 31 -19 27 -15 -3 -29 -1 -32 3 -3 5 0 9 5 9 6 0 11 9 11 20 0 13 -7 20 -20 20 -11 0 -20 -5 -20 -11 0 -5 -5 -7 -12 -3 -9 6 -9 9 0 12 21 7 14 42 -8 42 -11 0 -20 -5 -20 -11 0 -5 -5 -7 -12 -3 -9 6 -9 9 0 12 21 7 14 42 -8 42 -11 0 -20 -5 -20 -11 0 -5 -5 -7 -12 -3 -9 6 -9 9 0 12 21 7 14 42 -8 42 -12 0 -20 -7 -20 -16 0 -14 -3 -14 -15 -4 -11 9 -13 16 -5 24 17 17 11 36 -10 36 -11 0 -20 -5 -20 -12 0 -9 -3 -8 -12 1 -10 11 -10 14 0 18 21 8 14 43 -8 43 -11 0 -20 -5 -20 -11 0 -5 -5 -7 -12 -3 -9 6 -9 9 0 12 21 7 14 42 -8 42 -12 0 -20 -7 -20 -16 0 -13 -3 -14 -15 -4 -8 7 -12 17 -8 23 3 5 2 7 -4 4 -5 -3 -128 114 -272 261 -578 588 -601 610 -601 583 0 -5 -25 -34 -55 -66 -30 -31 -55 -58 -55 -61 0 -2 -8 -12 -17 -22 -31 -32 -189 -206 -224 -246 -19 -21 -51 -56 -71 -78 -21 -21 -38 -43 -38 -47 0 -5 -7 -14 -15 -21 -12 -10 -15 -10 -15 4 0 9 -7 16 -16 16 -12 0 -15 -6 -11 -21 6 -22 -14 -63 -44 -89 -9 -8 -49 -53 -89 -100 -40 -47 -78 -90 -84 -95 -6 -6 -29 -31 -51 -56 -56 -64 -196 -219 -220 -244 -11 -12 -36 -41 -57 -66 -70 -86 -138 -152 -138 -135 0 9 -8 16 -20 16 -15 0 -20 -7 -20 -25 0 -19 4 -23 18 -18 21 8 15 0 -108 -137 -47 -52 -89 -100 -95 -106 -5 -6 -28 -32 -49 -57 -34 -39 -44 -45 -68 -40 -24 5 -28 2 -28 -16 0 -11 5 -21 11 -21 6 0 1 -12 -11 -27 -29 -37 -215 -246 -263 -295 -20 -21 -37 -41 -37 -43 0 -3 -8 -13 -17 -23 -15 -15 -134 -145 -218 -238 -11 -12 -40 -46 -64 -74 -65 -76 -74 -85 -79 -71 -6 19 -42 13 -42 -8 0 -11 5 -21 11 -23 6 -2 -19 -38 -56 -81 l-66 -78 -45 37 c-24 20 -44 39 -44 42 0 3 19 26 43 52 40 44 117 134 127 150 3 4 15 10 27 14 11 4 29 23 37 44 9 20 15 27 12 15 -3 -19 0 -23 20 -23 17 0 24 6 24 20 0 11 -4 20 -10 20 -5 0 -10 3 -10 8 0 10 108 133 266 304 24 26 44 49 44 52 0 3 10 16 23 28 39 41 184 202 213 238 52 62 92 100 107 100 8 0 18 12 22 28 4 15 10 21 12 15 3 -7 13 -13 24 -13 14 0 19 7 19 25 0 19 -4 23 -17 18 -10 -4 25 40 77 97 51 58 103 115 115 128 58 69 74 82 92 76 14 -4 15 -4 4 4 -11 8 -10 12 7 21 11 6 28 11 36 11 21 0 21 28 0 32 -11 2 -2 17 33 53 26 28 79 86 118 130 38 44 92 105 120 135 27 31 70 78 94 105 24 28 71 79 105 115 34 36 83 92 110 123 26 31 59 60 73 63 14 4 22 12 19 20 -3 7 3 18 12 26 11 9 14 10 8 1 -5 -9 1 -13 18 -13 19 0 26 5 26 19 0 11 -5 21 -12 23 -9 3 -8 10 3 26 15 21 171 196 255 284 24 26 44 50 44 52 0 3 26 33 57 66 31 33 63 70 70 80 8 11 20 20 26 20 7 0 386 -374 842 -830z m1158 -1155 c54 -52 91 -95 83 -95 -9 0 -16 -9 -16 -20 0 -13 7 -20 20 -20 11 0 20 5 20 10 0 21 18 8 100 -71 431 -415 557 -536 639 -615 l94 -91 -17 -134 c-9 -74 -23 -179 -31 -234 -17 -116 -51 -371 -94 -705 -17 -129 -37 -280 -45 -335 -8 -55 -27 -198 -42 -319 l-27 -218 -61 7 c-34 3 -62 7 -63 8 -1 1 3 24 9 50 7 36 14 47 29 47 16 0 19 7 18 38 -1 20 -3 29 -6 20 -2 -10 -8 -18 -13 -18 -14 0 -17 24 -10 80 5 30 20 147 34 260 32 252 31 250 56 250 21 0 24 10 13 49 -6 23 -7 23 -14 5 -13 -32 -10 28 6 146 24 175 55 415 55 423 0 4 9 7 20 7 20 0 25 15 14 44 -6 15 -8 15 -21 -1 -8 -10 -12 -12 -8 -6 3 7 12 62 20 123 8 60 22 161 30 223 8 61 15 116 15 120 0 5 5 5 11 1 8 -4 8 0 0 15 -8 14 -8 21 -1 21 5 0 10 9 10 20 0 13 -7 20 -20 20 -11 0 -20 -5 -20 -11 0 -5 -5 -7 -10 -4 -6 3 -7 17 -4 31 6 25 -12 34 -31 15 -6 -6 -62 41 -147 122 -75 73 -216 209 -313 302 -97 94 -182 175 -189 180 -7 6 -55 51 -107 102 l-94 92 -180 -174 c-110 -106 -181 -168 -183 -159 -5 22 -42 17 -42 -6 0 -11 6 -20 13 -20 6 0 4 -5 -6 -11 -14 -8 -22 -8 -30 0 -6 6 -16 11 -21 11 -6 0 -4 -5 4 -10 13 -9 13 -10 0 -10 -12 0 -13 -2 -1 -9 12 -8 12 -11 0 -26 -24 -29 -252 -255 -358 -355 l-101 -95 10 -110 c6 -61 13 -127 16 -147 5 -34 3 -38 -15 -38 -14 0 -21 -6 -21 -20 0 -15 7 -20 25 -20 21 0 25 -5 25 -27 0 -16 5 -73 11 -128 6 -55 13 -116 15 -135 2 -19 8 -89 14 -155 6 -66 15 -149 20 -185 14 -96 13 -130 -5 -130 -8 0 -15 -9 -15 -20 0 -13 7 -20 18 -20 17 0 20 -18 36 -167 9 -93 21 -197 26 -233 5 -36 16 -126 23 -202 l13 -136 -29 -6 c-16 -3 -44 -6 -61 -6 l-32 0 -17 147 c-21 185 -21 183 3 183 13 0 20 7 20 20 0 13 -7 20 -19 20 -11 0 -22 8 -25 18 -5 16 -18 126 -51 442 -19 177 -27 314 -16 275 5 -16 9 -23 10 -14 0 9 4 31 7 48 6 27 4 31 -15 31 -16 0 -21 6 -21 26 0 15 -4 54 -10 88 -5 33 -17 133 -25 221 -9 88 -23 218 -31 290 l-15 130 108 105 c134 131 183 173 183 160 0 -5 10 -10 21 -10 17 0 20 5 17 23 -4 20 -1 23 19 19 18 -3 23 0 23 17 0 11 -5 21 -10 21 -9 0 82 91 360 356 52 50 142 137 200 192 58 56 110 101 115 102 6 0 54 -43 108 -95z"/>
<path d="M8180 9540 c0 -7 3 -10 7 -7 3 4 3 10 0 14 -4 3 -7 0 -7 -7z"/>
<path d="M9990 8780 c0 -5 5 -10 11 -10 5 0 7 5 4 10 -3 6 -8 10 -11 10 -2 0 -4 -4 -4 -10z"/>
<path d="M2570 7959 c0 -5 5 -7 10 -4 6 3 10 8 10 11 0 2 -4 4 -10 4 -5 0 -10 -5 -10 -11z"/>
<path d="M8490 5670 c0 -7 3 -10 7 -7 3 4 3 10 0 14 -4 3 -7 0 -7 -7z"/>
<path d="M8610 4800 c0 -7 3 -10 7 -7 3 4 3 10 0 14 -4 3 -7 0 -7 -7z"/>
<path d="M4963 4763 c4 -3 10 -3 14 0 3 4 0 7 -7 7 -7 0 -10 -3 -7 -7z"/>
<path d="M10114 10218 c-4 -7 -3 -8 4 -4 12 7 16 16 8 16 -3 0 -8 -5 -12 -12z"/>
<path d="M10162 10170 c0 -14 2 -19 5 -12 2 6 2 18 0 25 -3 6 -5 1 -5 -13z"/>
<path d="M1040 9330 c0 -7 3 -10 7 -7 3 4 3 10 0 14 -4 3 -7 0 -7 -7z"/>
<path d="M581 8494 c0 -11 3 -14 6 -6 3 7 2 16 -1 19 -3 4 -6 -2 -5 -13z"/>
<path d="M340 7700 c0 -11 7 -20 15 -20 8 0 15 9 15 20 0 11 -7 20 -15 20 -8 0 -15 -9 -15 -20z"/>
<path d="M330 7640 c0 -7 3 -10 7 -7 3 4 3 10 0 14 -4 3 -7 0 -7 -7z"/>
<path d="M31 6474 c0 -11 3 -14 6 -6 3 7 2 16 -1 19 -3 4 -6 -2 -5 -13z"/>
<path d="M32 5800 c0 -19 2 -27 5 -17 2 9 2 25 0 35 -3 9 -5 1 -5 -18z"/>
<path d="M2363 1253 c4 -3 10 -3 14 0 3 4 0 7 -7 7 -7 0 -10 -3 -7 -7z"/>
<path d="M8985 830 c-3 -5 -2 -10 4 -10 5 0 13 5 16 10 3 6 2 10 -4 10 -5 0 -13 -4 -16 -10z"/>
<path d="M5708 33 c6 -2 18 -2 25 0 6 3 1 5 -13 5 -14 0 -19 -2 -12 -5z"/>
</g>
<g id="layer104" fill="#d3d3d3" stroke="none">
<path d="M2 9058 c0 -1688 4 -2862 9 -2753 8 175 36 464 59 595 34 201 47 265 86 435 54 232 71 296 135 500 46 144 117 339 155 422 8 17 14 34 14 37 0 7 28 71 76 173 19 39 34 74 34 78 0 6 105 219 120 245 27 43 98 169 113 200 10 19 31 55 47 80 16 25 48 79 71 120 23 41 45 77 49 80 4 3 40 55 80 115 40 61 76 112 79 115 3 3 33 41 66 85 78 104 73 98 150 190 36 44 80 98 98 120 18 22 54 64 81 95 74 83 517 520 527 520 5 0 24 15 42 33 17 18 44 41 58 52 25 19 135 109 169 138 8 7 49 37 90 67 41 30 84 62 94 72 11 10 23 18 27 18 3 0 22 13 40 30 19 16 38 30 42 30 4 0 32 18 62 40 30 22 58 40 64 40 5 0 30 16 55 35 26 19 53 35 61 35 8 0 15 5 15 10 0 6 10 15 23 20 12 6 43 22 68 38 217 128 597 322 633 322 3 0 48 19 99 43 50 24 112 50 137 57 25 8 50 17 55 20 6 4 66 26 135 49 69 23 133 46 142 51 10 6 23 10 30 10 7 0 63 15 123 34 121 39 430 116 463 116 11 0 67 11 124 24 56 13 132 27 168 31 36 4 83 11 105 15 51 11 239 29 475 45 154 10 -300 12 -2732 14 l-2918 1 2 -2942z"/>
<path d="M6210 11993 c196 -9 412 -28 585 -50 110 -14 218 -28 240 -30 22 -3 44 -9 50 -14 5 -5 20 -9 35 -9 27 0 101 -15 245 -49 50 -12 110 -26 135 -32 25 -5 90 -24 145 -40 55 -17 132 -40 170 -51 39 -11 86 -25 105 -32 64 -24 104 -38 160 -56 51 -17 86 -31 195 -80 22 -9 65 -27 95 -39 207 -83 577 -276 800 -416 19 -12 64 -41 100 -63 98 -61 160 -105 178 -124 9 -10 22 -18 29 -18 7 0 13 -4 13 -8 0 -4 15 -16 33 -27 17 -10 37 -24 43 -29 6 -6 22 -18 34 -26 12 -8 28 -19 34 -25 6 -5 38 -31 71 -57 33 -26 74 -59 90 -73 17 -14 50 -41 75 -61 130 -104 396 -360 539 -518 64 -71 135 -150 158 -175 23 -25 42 -49 43 -53 0 -4 10 -17 23 -30 12 -13 42 -50 66 -83 25 -33 48 -62 51 -65 4 -3 37 -48 75 -100 38 -52 72 -97 75 -100 4 -3 34 -48 68 -100 34 -52 66 -100 72 -107 5 -7 10 -15 10 -19 0 -4 6 -15 14 -23 8 -9 23 -32 34 -51 10 -19 45 -76 76 -127 76 -125 287 -543 337 -668 64 -162 88 -224 94 -245 4 -14 16 -43 26 -65 24 -54 56 -145 80 -230 11 -38 26 -92 35 -120 35 -117 97 -364 105 -418 5 -32 17 -93 28 -135 10 -42 24 -115 30 -162 7 -47 16 -107 21 -135 20 -115 47 -424 53 -610 2 -44 4 1233 5 2838 l2 2917 -2917 -2 c-1605 -1 -2893 -3 -2863 -5z"/>
<path d="M2 2938 l-2 -2938 5995 0 5995 0 -1 2918 c-1 1689 -5 2848 -10 2752 -12 -230 -49 -552 -84 -720 -8 -36 -16 -84 -20 -108 -5 -42 -63 -283 -109 -457 -34 -126 -135 -430 -185 -555 -24 -58 -55 -134 -69 -170 -14 -36 -39 -90 -54 -120 -15 -30 -28 -60 -28 -66 0 -6 -9 -21 -20 -34 -11 -13 -20 -29 -20 -36 0 -21 -155 -319 -215 -414 -20 -32 -91 -150 -126 -210 -7 -14 -20 -29 -26 -33 -7 -4 -13 -12 -13 -17 0 -9 -58 -100 -70 -110 -9 -7 -120 -169 -120 -175 0 -5 -40 -53 -72 -87 -10 -10 -18 -21 -18 -24 0 -7 -117 -153 -145 -179 -11 -11 -27 -29 -35 -41 -83 -117 -554 -588 -672 -673 -11 -7 -33 -26 -49 -42 -16 -16 -53 -46 -82 -67 -28 -22 -58 -46 -66 -55 -7 -10 -17 -17 -22 -17 -5 0 -17 -8 -27 -18 -34 -32 -82 -72 -87 -72 -5 0 -160 -106 -180 -123 -9 -7 -232 -153 -300 -196 -128 -81 -490 -263 -735 -371 -120 -52 -131 -57 -210 -83 -70 -24 -126 -45 -175 -67 -69 -30 -447 -136 -605 -170 -385 -81 -378 -80 -670 -116 -169 -21 -266 -26 -550 -31 -692 -11 -1096 39 -1785 222 -65 17 -258 79 -315 100 -19 8 -87 32 -150 55 -63 23 -165 63 -226 91 -62 27 -118 49 -126 49 -8 0 -18 4 -24 10 -12 12 -332 170 -345 170 -5 0 -9 4 -9 9 0 5 -10 13 -23 17 -12 3 -41 19 -65 35 -24 16 -45 29 -47 29 -13 0 -308 181 -325 200 -6 6 -125 85 -185 123 -22 13 -51 35 -65 47 -14 13 -56 47 -95 76 -38 30 -95 75 -126 102 -31 26 -90 74 -130 107 -116 94 -545 527 -659 665 -57 69 -107 127 -112 128 -4 2 -8 8 -8 13 0 5 -8 17 -17 27 -10 11 -43 52 -73 92 -30 40 -61 78 -67 85 -7 8 -13 18 -13 24 0 5 -6 16 -13 23 -7 7 -35 47 -62 88 -28 41 -53 77 -56 80 -13 10 -120 182 -163 262 -25 46 -53 93 -63 104 -28 31 -238 460 -304 619 -18 44 -37 84 -41 89 -4 6 -8 16 -8 24 0 8 -6 28 -14 45 -8 18 -27 68 -42 112 -14 44 -44 130 -64 190 -80 235 -146 501 -216 865 -26 136 -64 502 -73 695 -5 113 -9 -1001 -9 -2747z"/>
</g>
<g id="layer105" fill="#ffffff" stroke="none">
<path d="M1 9188 l1 -2813 29 230 c27 224 33 264 65 450 18 100 93 429 124 545 56 202 167 528 226 657 8 17 14 34 14 37 0 7 28 71 76 173 19 39 34 74 34 78 0 6 105 219 120 245 27 43 98 169 113 200 10 19 31 55 47 80 16 25 48 79 71 120 23 41 45 77 49 80 4 3 40 55 80 115 40 61 76 112 79 115 3 3 33 41 66 85 78 104 73 98 150 190 36 44 80 98 98 120 18 22 54 64 81 95 74 83 517 520 527 520 5 0 24 15 42 33 17 18 44 41 58 52 25 19 135 109 169 138 8 7 49 37 90 67 41 30 84 62 94 72 11 10 23 18 27 18 3 0 22 13 40 30 19 16 38 30 42 30 4 0 32 18 62 40 30 22 58 40 64 40 5 0 30 16 55 35 26 19 53 35 61 35 8 0 15 5 15 10 0 6 10 15 23 20 12 6 43 22 68 38 217 128 597 322 633 322 3 0 48 19 99 43 50 24 112 50 137 57 25 8 50 17 55 20 6 4 66 26 135 49 69 23 133 46 142 51 10 6 23 10 30 10 7 0 63 15 123 34 122 39 431 116 463 116 11 0 58 9 104 20 80 20 203 39 373 60 143 17 379 40 435 43 30 2 -1238 4 -2817 5 l-2873 2 1 -2812z"/>
<path d="M6305 11994 c11 -1 79 -8 150 -14 72 -6 222 -23 335 -37 113 -14 223 -28 245 -30 22 -3 44 -9 49 -14 6 -5 21 -9 36 -9 27 0 101 -15 245 -49 50 -12 110 -26 135 -32 25 -5 90 -24 145 -40 55 -17 132 -40 170 -51 39 -11 86 -25 105 -32 64 -24 104 -38 160 -56 51 -17 86 -31 195 -80 22 -9 65 -27 95 -39 207 -83 577 -276 800 -416 19 -12 64 -41 100 -63 98 -61 160 -105 178 -124 9 -10 22 -18 29 -18 7 0 13 -4 13 -8 0 -4 15 -16 33 -27 17 -10 37 -24 43 -29 6 -6 22 -18 34 -26 12 -8 28 -19 34 -25 6 -5 38 -31 71 -57 33 -26 74 -59 90 -73 17 -14 50 -41 75 -61 130 -104 396 -360 539 -518 64 -71 135 -150 158 -175 23 -25 42 -49 43 -53 0 -4 10 -17 23 -30 12 -13 42 -50 66 -83 25 -33 48 -62 51 -65 4 -3 37 -48 75 -100 38 -52 72 -97 75 -100 4 -3 34 -48 68 -100 34 -52 66 -100 72 -107 5 -7 10 -15 10 -19 0 -4 6 -15 14 -23 8 -9 23 -32 34 -51 10 -19 45 -76 76 -127 76 -125 287 -543 337 -668 64 -162 88 -224 94 -245 4 -14 16 -43 26 -65 24 -54 56 -145 80 -230 11 -38 26 -92 35 -120 35 -117 97 -364 105 -418 5 -32 17 -93 28 -135 10 -42 24 -115 30 -162 7 -47 16 -107 21 -135 11 -63 27 -204 36 -315 4 -47 10 -94 15 -105 4 -11 8 1237 8 2773 l1 2792 -2852 -1 c-1569 -1 -2844 -3 -2833 -5z"/>
<path d="M5580 11859 c-119 -8 -393 -40 -510 -59 -30 -5 -79 -13 -108 -16 -29 -4 -55 -11 -58 -15 -3 -5 -19 -9 -35 -9 -32 0 -60 -6 -314 -69 -181 -45 -231 -59 -330 -91 -84 -27 -362 -127 -390 -140 -11 -5 -51 -21 -90 -35 -122 -47 -679 -327 -705 -355 -3 -3 -25 -16 -50 -29 -37 -20 -401 -257 -435 -283 -19 -15 -90 -70 -118 -91 -16 -12 -34 -27 -40 -33 -7 -6 -32 -25 -57 -43 -43 -31 -115 -92 -185 -156 -17 -16 -54 -48 -81 -70 -138 -113 -545 -545 -674 -714 -19 -25 -39 -52 -45 -58 -33 -41 -214 -291 -238 -329 -41 -69 -63 -103 -102 -164 -134 -205 -356 -630 -408 -780 -9 -25 -29 -73 -46 -108 -17 -34 -31 -65 -31 -68 0 -5 -11 -34 -65 -174 -7 -19 -29 -87 -48 -150 -19 -63 -49 -160 -66 -215 -16 -55 -39 -140 -51 -190 -12 -49 -27 -117 -35 -150 -93 -398 -135 -796 -134 -1270 0 -431 35 -823 103 -1140 14 -66 33 -154 42 -195 14 -71 34 -145 91 -340 40 -138 129 -399 164 -480 17 -41 43 -102 56 -135 161 -393 376 -770 686 -1205 65 -90 60 -85 149 -191 35 -41 83 -99 108 -129 25 -30 67 -79 95 -109 72 -82 412 -419 469 -466 26 -22 62 -53 80 -70 17 -16 49 -43 71 -59 22 -17 42 -32 45 -35 12 -14 88 -78 114 -96 36 -26 111 -81 156 -115 67 -50 249 -170 260 -170 5 0 10 -4 10 -8 0 -7 58 -43 238 -150 75 -45 399 -210 482 -246 36 -15 85 -37 110 -48 93 -42 237 -101 290 -118 30 -10 96 -33 145 -50 165 -58 436 -135 580 -164 39 -8 113 -23 165 -34 52 -11 129 -26 170 -32 41 -7 95 -15 120 -20 25 -5 97 -13 160 -20 63 -6 151 -16 195 -21 127 -17 701 -23 860 -10 222 17 610 64 613 73 2 4 14 8 28 8 79 0 516 100 719 165 61 19 128 40 150 47 22 7 51 18 65 25 14 7 30 13 37 13 22 0 175 59 308 118 50 22 114 50 144 62 200 81 644 330 891 500 164 113 333 244 515 398 298 252 652 632 897 962 34 47 67 90 73 97 30 36 35 43 35 48 0 3 40 67 90 142 50 74 90 138 90 140 0 3 8 17 19 31 31 44 170 298 242 442 59 119 199 439 199 456 0 5 13 36 41 99 5 11 18 49 29 85 12 36 25 74 30 85 38 80 189 670 210 817 6 39 12 74 15 78 7 12 44 321 60 505 20 227 20 737 0 965 -21 244 -53 484 -79 589 -8 31 -17 79 -20 106 -13 98 -131 548 -167 630 -4 11 -13 40 -20 65 -6 25 -14 50 -18 55 -4 6 -17 42 -30 80 -13 39 -33 90 -44 115 -12 25 -22 50 -23 55 0 6 -6 21 -11 35 -85 200 -101 234 -152 338 -17 35 -31 68 -31 74 0 6 -6 19 -14 27 -7 9 -37 61 -66 116 -81 154 -109 205 -155 275 -23 36 -60 94 -83 130 -77 122 -198 295 -234 334 -28 32 -38 45 -38 52 0 6 -47 65 -140 174 -17 19 -42 51 -58 71 -46 59 -109 126 -322 339 -221 221 -277 272 -457 416 -65 52 -128 103 -139 114 -12 11 -26 20 -32 20 -6 0 -12 4 -14 8 -1 4 -25 23 -53 42 -27 19 -52 37 -55 40 -18 18 -148 100 -158 100 -6 0 -12 4 -12 9 0 12 -201 137 -355 220 -32 18 -71 40 -85 50 -27 19 -337 171 -349 171 -3 0 -31 13 -61 28 -30 15 -100 45 -155 66 -55 22 -113 45 -130 52 -16 7 -52 19 -80 27 -27 9 -90 30 -140 47 -178 63 -404 127 -550 156 -44 9 -129 28 -190 41 -139 32 -340 59 -615 83 -231 21 -689 25 -930 9z m-269 -710 l51 -11 -6 -42 c-5 -39 -19 -139 -51 -356 -7 -52 -22 -166 -34 -253 -11 -86 -22 -161 -25 -165 -3 -5 -15 -80 -26 -168 -34 -254 -66 -480 -90 -634 -6 -41 -17 -117 -24 -169 l-13 -94 196 -191 c107 -105 310 -305 450 -444 287 -284 252 -266 341 -181 25 23 81 76 125 117 44 41 123 116 176 166 54 50 144 134 200 187 57 54 142 133 189 177 47 44 99 91 115 105 l31 25 -7 79 c-7 74 -17 179 -39 413 -6 58 -15 152 -20 210 -5 58 -15 152 -20 210 -6 58 -17 184 -25 280 -8 96 -17 189 -20 205 -14 82 -44 470 -38 476 5 4 32 9 62 11 53 3 54 3 57 -27 4 -37 20 -204 39 -425 8 -91 19 -212 25 -270 6 -58 17 -179 25 -270 7 -91 18 -205 24 -255 5 -49 15 -144 21 -210 6 -66 15 -158 20 -205 5 -47 12 -126 16 -175 l6 -91 -158 -149 c-88 -82 -173 -164 -191 -182 -17 -18 -35 -33 -38 -33 -4 0 -22 -15 -40 -32 -18 -18 -64 -62 -102 -98 -285 -267 -356 -333 -416 -393 -38 -37 -77 -72 -86 -76 -18 -10 -3 -24 -693 654 l-356 350 19 140 c10 77 23 172 29 210 6 39 13 84 15 100 2 17 8 64 15 105 14 90 35 237 55 380 8 58 19 134 25 170 6 36 18 110 25 165 8 55 21 147 30 205 8 58 21 152 29 210 8 58 20 134 25 170 6 36 11 71 11 78 0 15 6 15 71 1z m3740 -791 l40 -43 -65 -62 c-36 -35 -69 -63 -73 -63 -3 0 -20 -15 -37 -32 -17 -18 -60 -58 -96 -88 -36 -30 -90 -78 -120 -106 -30 -29 -68 -63 -85 -75 -16 -13 -50 -42 -74 -64 -58 -54 -67 -62 -140 -125 -35 -30 -85 -75 -111 -100 -26 -25 -61 -56 -76 -69 -16 -13 -45 -38 -64 -54 -19 -16 -66 -57 -105 -92 -135 -120 -270 -240 -325 -287 -30 -26 -89 -79 -130 -118 -41 -38 -78 -70 -82 -70 -4 0 -25 -17 -46 -37 -22 -21 -68 -63 -103 -93 -35 -30 -90 -80 -124 -111 -61 -57 -151 -137 -194 -174 -14 -11 -74 -65 -135 -120 -61 -54 -117 -104 -124 -110 -7 -5 -27 -24 -45 -40 -18 -17 -49 -43 -70 -59 -20 -16 -54 -45 -75 -65 -21 -20 -71 -65 -110 -101 -40 -35 -71 -68 -70 -72 4 -12 1470 -1478 1478 -1478 3 0 31 28 61 61 30 34 95 107 144 162 50 55 101 114 115 131 13 17 39 45 57 62 18 17 33 35 33 41 0 6 4 13 8 15 8 3 167 177 272 298 30 35 78 88 105 118 28 30 58 64 68 76 48 55 147 163 190 208 26 27 47 52 47 56 0 4 41 51 91 104 50 54 105 115 122 137 38 47 259 295 296 332 14 14 44 47 66 73 69 83 74 89 148 170 104 115 175 194 232 260 28 32 61 70 75 85 23 24 84 92 169 186 20 22 46 52 58 67 l21 28 46 -36 c25 -19 46 -39 46 -43 0 -8 -19 -29 -160 -187 -30 -33 -78 -87 -107 -120 -28 -32 -99 -112 -158 -177 -58 -65 -116 -129 -128 -144 -12 -14 -39 -43 -59 -64 -20 -21 -41 -45 -45 -54 -5 -8 -32 -39 -59 -68 -28 -28 -84 -90 -125 -137 -41 -47 -93 -105 -116 -130 -24 -25 -43 -48 -43 -51 0 -3 -19 -26 -42 -51 -104 -111 -196 -213 -313 -348 -66 -75 -122 -137 -161 -177 -22 -23 -53 -59 -69 -80 -16 -21 -44 -52 -62 -69 -18 -17 -33 -33 -33 -37 0 -3 -10 -17 -22 -29 -57 -58 -204 -222 -211 -234 -5 -8 -30 -37 -58 -65 -27 -27 -49 -52 -49 -54 0 -3 -8 -13 -17 -23 -24 -24 -158 -173 -203 -225 -19 -22 -51 -57 -70 -77 -19 -21 -43 -49 -53 -63 -10 -14 -38 -45 -62 -70 l-44 -44 -308 307 c-170 170 -332 333 -361 364 -30 31 -58 56 -63 56 -5 0 -9 7 -9 15 0 8 -4 15 -9 15 -5 0 -24 16 -43 35 -55 58 -548 559 -714 726 -156 157 -170 179 -124 194 10 3 39 25 63 48 42 39 128 116 187 167 14 12 48 43 76 68 58 54 158 142 224 198 25 22 70 62 100 90 55 51 65 61 157 140 27 23 91 79 143 125 52 46 111 98 130 114 19 17 55 48 80 71 25 22 60 54 79 70 42 36 74 65 127 114 23 22 70 63 105 92 35 29 76 64 91 78 75 71 266 240 271 240 3 0 25 19 49 43 23 24 59 56 78 71 19 16 71 62 115 104 44 41 96 86 115 101 19 14 49 40 66 56 17 17 44 41 61 55 17 14 65 57 108 95 43 39 89 79 101 90 53 46 150 132 183 162 20 18 37 33 39 33 2 0 21 -19 43 -42z m-6039 -11 c25 -23 64 -58 85 -77 21 -19 81 -73 133 -120 52 -48 108 -97 124 -111 16 -13 46 -41 67 -61 20 -21 41 -38 47 -38 6 0 12 -4 14 -8 2 -5 57 -57 123 -116 66 -60 146 -132 178 -162 32 -29 66 -59 76 -66 10 -7 63 -54 117 -104 55 -50 115 -104 134 -120 19 -16 54 -48 77 -71 24 -24 47 -43 52 -43 5 0 22 -13 37 -28 46 -45 176 -164 215 -197 31 -26 70 -61 218 -193 14 -13 62 -57 106 -97 82 -75 153 -138 265 -237 36 -31 81 -71 100 -88 19 -18 64 -57 100 -88 36 -32 74 -67 85 -79 11 -13 24 -23 28 -23 4 0 45 -35 90 -79 45 -43 111 -103 147 -132 36 -30 74 -62 85 -72 19 -17 4 -32 -592 -625 -649 -644 -752 -747 -768 -762 -5 -5 -75 -72 -155 -150 -80 -77 -147 -140 -149 -140 -5 0 -55 54 -131 142 -30 34 -73 83 -95 108 -22 25 -66 74 -97 110 -31 36 -84 94 -117 130 -34 35 -61 68 -61 71 0 4 -19 27 -42 51 -24 25 -58 63 -77 84 -93 107 -158 181 -178 200 -13 12 -23 24 -23 27 0 4 -21 28 -47 54 -27 27 -55 60 -65 73 -9 14 -59 72 -112 130 -141 154 -177 194 -184 206 -4 7 -45 54 -92 105 -95 103 -130 143 -145 162 -6 6 -76 87 -158 179 -81 92 -147 169 -147 171 0 2 -21 27 -47 55 -27 28 -59 63 -72 79 -13 15 -46 53 -75 83 -28 30 -68 75 -90 100 -67 79 -140 162 -171 196 -90 97 -225 255 -225 264 0 4 18 24 40 44 l40 36 33 -33 c17 -18 54 -59 82 -92 27 -33 79 -92 115 -131 36 -39 119 -133 185 -209 66 -75 141 -160 168 -188 26 -27 47 -52 47 -55 0 -3 21 -28 48 -57 90 -98 258 -288 277 -313 6 -7 24 -28 40 -45 17 -18 64 -71 105 -117 41 -46 82 -92 90 -101 44 -50 173 -196 195 -223 6 -6 48 -54 95 -106 46 -52 90 -102 97 -110 7 -8 23 -26 35 -40 13 -14 38 -43 57 -65 63 -74 166 -189 198 -222 17 -18 35 -39 40 -46 4 -8 37 -47 73 -87 36 -40 76 -84 88 -99 13 -14 41 -45 62 -67 22 -23 63 -70 92 -105 66 -80 106 -126 136 -154 l23 -22 488 486 c268 267 597 594 732 727 286 281 278 272 258 284 -20 13 -162 136 -225 197 -30 28 -58 53 -63 55 -7 2 -121 105 -221 198 -14 14 -53 48 -86 75 -60 51 -126 110 -224 201 -30 29 -75 68 -99 88 -24 20 -55 49 -70 64 -14 15 -44 41 -66 57 -22 17 -44 35 -50 41 -18 20 -170 159 -206 189 -20 17 -69 60 -110 96 -41 37 -116 103 -166 149 -51 45 -93 85 -93 89 0 4 -12 14 -27 23 -16 9 -46 33 -68 53 -63 57 -83 75 -210 189 -66 59 -144 129 -173 156 -30 28 -55 50 -58 50 -2 0 -12 8 -22 18 -45 43 -210 192 -242 218 -19 16 -53 47 -75 69 -22 22 -53 48 -68 58 -44 28 -44 44 -1 88 21 21 41 39 44 39 3 0 26 -19 52 -43z m6333 -3301 c185 -27 399 -57 555 -77 85 -12 198 -27 250 -35 202 -29 310 -44 455 -64 83 -11 200 -27 260 -36 61 -8 135 -19 165 -22 l55 -7 -1 -36 c-1 -20 -4 -48 -8 -63 -6 -24 -11 -27 -34 -22 -15 3 -61 9 -102 13 -41 3 -77 9 -80 13 -3 3 -86 16 -185 28 -216 27 -416 55 -783 107 -59 9 -172 24 -252 35 -80 11 -172 24 -205 30 -33 5 -101 15 -151 21 l-91 11 -97 -98 c-106 -108 -622 -638 -724 -743 -34 -36 -61 -68 -60 -72 4 -8 141 -157 258 -279 47 -49 101 -106 120 -127 19 -21 116 -124 216 -228 100 -105 199 -209 221 -233 l40 -43 104 11 c154 16 280 28 414 40 66 6 152 15 190 20 39 5 97 12 130 15 33 3 107 10 165 15 197 20 315 31 475 45 88 7 210 19 272 26 62 7 114 11 117 8 2 -2 7 -29 11 -60 l7 -56 -114 -12 c-149 -16 -277 -28 -418 -41 -63 -6 -194 -20 -290 -30 -96 -11 -211 -22 -255 -25 -44 -3 -138 -12 -210 -20 -127 -14 -248 -25 -470 -46 -60 -5 -125 -12 -143 -14 -36 -4 -59 16 -211 181 -29 33 -122 131 -205 218 -164 174 -178 188 -342 363 -61 65 -145 154 -186 197 l-75 79 166 171 c91 94 254 261 362 371 107 110 219 225 248 255 29 30 93 97 144 149 l92 93 50 -6 c28 -3 95 -12 150 -20z m-6456 -23 c45 -51 398 -421 484 -507 37 -38 74 -78 81 -88 12 -17 115 -125 322 -338 l63 -65 -71 -75 c-77 -81 -279 -290 -527 -546 -86 -89 -212 -221 -281 -294 l-125 -132 -40 5 c-22 3 -146 20 -275 36 -341 45 -516 69 -590 81 -36 6 -168 24 -295 40 -126 16 -259 34 -295 40 -36 6 -150 22 -253 35 -104 12 -190 25 -193 28 -2 2 -2 30 2 61 5 42 11 56 23 56 22 -1 294 -36 421 -55 132 -19 339 -47 635 -86 127 -16 257 -34 290 -39 33 -6 130 -20 215 -31 85 -12 180 -25 210 -29 84 -13 94 -12 118 13 50 50 327 335 472 486 318 331 379 396 380 407 0 6 -31 40 -69 77 -38 36 -74 73 -78 82 -5 9 -68 76 -139 149 -116 119 -192 200 -486 510 l-85 89 -159 -17 c-261 -28 -422 -44 -549 -56 -66 -6 -217 -22 -335 -35 -230 -25 -444 -47 -630 -65 -63 -6 -134 -13 -158 -15 l-42 -5 0 43 c0 23 -3 52 -6 65 -6 21 -3 22 42 22 27 0 101 6 164 14 63 8 158 17 210 20 52 4 122 11 155 16 33 5 132 17 220 25 220 22 624 63 875 90 80 8 163 16 185 18 22 2 49 4 60 5 12 1 34 -13 54 -35z m5129 -1381 c20 -24 51 -58 67 -75 17 -18 40 -44 51 -59 12 -15 52 -62 90 -104 106 -119 108 -121 128 -146 43 -51 240 -274 260 -293 11 -11 33 -36 48 -55 22 -30 59 -73 111 -130 22 -24 204 -228 266 -299 31 -35 64 -72 74 -83 10 -10 54 -60 98 -111 72 -83 157 -180 184 -210 6 -7 46 -52 89 -102 43 -49 87 -97 97 -107 11 -9 19 -19 19 -23 0 -4 23 -30 50 -57 28 -27 50 -52 50 -55 0 -6 140 -165 180 -203 15 -14 31 -33 36 -41 5 -9 38 -49 74 -89 36 -40 76 -84 88 -99 13 -14 41 -45 62 -67 22 -23 63 -70 92 -105 29 -35 57 -69 63 -75 74 -80 78 -86 60 -96 -9 -6 -31 -23 -48 -38 l-31 -27 -40 46 c-23 25 -64 70 -91 101 -28 30 -67 75 -87 100 -20 25 -67 77 -103 115 -37 39 -78 86 -93 105 -15 19 -36 44 -47 56 -11 12 -45 50 -75 85 -30 35 -82 92 -115 127 -33 35 -62 69 -64 75 -2 6 -16 22 -32 36 -15 14 -40 42 -56 62 -28 35 -126 148 -193 220 -33 36 -75 84 -121 139 -11 14 -55 63 -98 110 -43 47 -102 114 -132 150 -29 36 -58 70 -65 75 -11 10 -48 51 -169 190 -98 113 -280 317 -342 384 -18 19 -33 39 -33 43 0 4 -21 30 -47 57 -27 27 -59 62 -72 78 -55 66 -148 168 -168 187 -13 11 -23 23 -23 27 0 5 -22 31 -50 59 -27 27 -54 59 -60 71 -6 11 -15 19 -20 17 -5 -2 -343 -336 -750 -743 l-741 -739 38 -34 c21 -19 72 -64 113 -102 41 -37 95 -85 120 -106 25 -22 47 -42 50 -45 9 -10 324 -292 384 -344 32 -27 66 -57 75 -66 9 -9 70 -64 136 -123 66 -59 152 -137 192 -173 39 -36 76 -68 81 -72 5 -3 52 -44 103 -91 107 -98 116 -106 200 -180 35 -30 93 -82 129 -115 36 -33 104 -94 150 -135 47 -41 99 -88 115 -105 17 -16 53 -48 80 -70 27 -22 86 -74 130 -115 45 -41 97 -88 115 -105 19 -16 62 -54 95 -85 33 -30 89 -80 124 -110 35 -30 88 -78 118 -106 30 -29 71 -65 91 -80 67 -54 66 -51 20 -100 -47 -50 -38 -52 -128 31 -31 27 -93 84 -139 125 -46 41 -100 90 -120 108 -20 19 -52 46 -71 60 -19 15 -70 61 -115 103 -44 42 -96 89 -115 105 -19 16 -62 54 -95 85 -33 32 -78 71 -99 89 -22 17 -76 65 -121 108 -44 42 -99 90 -120 107 -22 16 -61 50 -87 75 -26 25 -77 72 -114 105 -89 79 -206 186 -271 246 -29 27 -57 49 -62 49 -5 0 -11 4 -13 8 -1 4 -57 57 -123 116 -66 60 -152 138 -192 174 -39 35 -76 68 -81 71 -8 5 -135 119 -223 201 -15 14 -40 36 -56 49 -40 35 -293 262 -318 286 -11 11 -55 51 -98 90 l-78 70 838 832 838 833 48 -53 c26 -28 64 -72 85 -95z m-3083 -702 l830 -831 -60 -57 c-33 -31 -145 -131 -249 -222 -104 -91 -230 -203 -280 -249 -50 -46 -111 -100 -136 -120 -24 -20 -56 -47 -70 -61 -15 -14 -52 -47 -84 -75 -33 -27 -66 -57 -76 -65 -9 -8 -45 -40 -80 -70 -35 -30 -84 -74 -109 -96 -166 -150 -242 -218 -319 -282 -48 -41 -127 -111 -177 -157 -49 -46 -109 -98 -131 -117 -49 -39 -312 -273 -334 -297 -8 -9 -33 -29 -55 -46 -22 -16 -50 -39 -61 -50 -12 -11 -35 -32 -50 -46 -58 -52 -251 -223 -312 -278 -35 -31 -76 -67 -91 -81 -15 -14 -51 -46 -81 -73 l-54 -47 -38 37 c-21 20 -38 43 -38 49 0 7 32 41 71 76 39 35 91 82 116 105 24 24 48 43 53 43 5 0 13 6 17 13 4 6 28 29 53 50 25 22 61 53 80 71 19 18 96 86 170 151 176 153 277 243 318 281 18 18 44 40 59 50 14 11 40 33 57 49 17 17 47 43 66 59 19 16 79 70 133 120 55 50 104 94 110 98 12 7 68 57 171 149 83 75 170 152 184 164 7 5 28 24 45 40 18 17 62 55 97 85 36 30 93 81 128 114 34 33 73 67 86 75 12 9 58 48 100 86 104 94 112 101 191 170 38 33 76 67 85 75 9 9 45 40 80 69 36 30 103 89 149 133 l84 78 -381 383 c-210 210 -470 472 -578 582 -351 359 -518 525 -526 525 -4 0 -8 -4 -8 -9 0 -5 -25 -34 -55 -66 -30 -31 -55 -58 -55 -61 0 -2 -8 -12 -17 -22 -31 -32 -189 -206 -224 -246 -19 -21 -51 -56 -71 -78 -21 -21 -38 -42 -38 -47 0 -4 -26 -34 -58 -67 -32 -32 -91 -97 -132 -144 -40 -47 -78 -90 -84 -95 -6 -6 -29 -31 -51 -56 -56 -64 -196 -219 -220 -244 -11 -12 -36 -41 -56 -66 -20 -24 -54 -62 -75 -84 -22 -22 -54 -58 -73 -80 -18 -22 -70 -80 -115 -130 -46 -49 -93 -103 -107 -119 -13 -16 -35 -41 -49 -56 -14 -15 -36 -40 -49 -56 -14 -16 -74 -83 -134 -149 -195 -215 -207 -228 -207 -232 0 -1 -8 -11 -17 -21 -15 -15 -134 -145 -218 -238 -11 -12 -40 -46 -65 -75 -41 -49 -89 -102 -196 -216 l-39 -43 -45 39 -45 39 45 49 c25 27 63 71 85 98 22 26 55 64 73 84 18 20 61 68 96 106 35 39 94 104 131 145 37 41 87 96 111 122 24 26 44 49 44 52 0 3 10 16 23 28 39 41 192 209 197 218 7 11 103 120 195 220 39 42 99 109 135 149 36 40 74 83 85 95 11 12 42 48 70 80 27 33 63 73 80 90 17 17 62 67 100 111 38 44 92 105 120 135 27 31 70 78 94 105 24 28 71 79 105 115 34 36 82 90 108 120 75 88 86 101 161 185 40 43 101 111 135 150 35 38 84 91 108 117 24 26 44 50 44 52 0 3 26 33 57 66 31 33 63 70 70 80 8 11 20 20 26 20 7 0 386 -374 842 -830z m1179 -1174 c66 -62 153 -144 192 -182 70 -68 448 -432 633 -610 l94 -91 -17 -134 c-9 -74 -23 -179 -31 -234 -17 -116 -51 -371 -94 -705 -17 -129 -37 -280 -45 -335 -8 -55 -27 -198 -42 -319 l-27 -218 -61 7 c-34 3 -61 7 -62 8 -1 1 7 63 17 137 9 74 31 241 48 370 17 129 40 303 51 385 11 83 32 236 46 340 13 105 31 235 39 290 40 277 48 367 36 374 -6 4 -127 120 -269 257 -141 137 -292 283 -337 325 -44 42 -129 123 -188 180 -60 57 -110 104 -112 104 -2 0 -96 -90 -209 -199 -113 -109 -215 -205 -226 -213 -11 -8 -76 -69 -144 -136 -68 -67 -169 -165 -225 -217 l-101 -95 6 -65 c3 -36 12 -119 20 -185 7 -66 18 -169 25 -230 6 -60 12 -123 14 -138 2 -16 6 -61 10 -100 3 -40 14 -151 25 -247 10 -96 26 -249 35 -340 9 -91 20 -194 25 -230 5 -36 16 -126 23 -202 l13 -136 -29 -6 c-16 -3 -44 -6 -62 -6 l-32 0 -17 153 c-9 83 -19 175 -21 202 -3 28 -11 115 -20 195 -24 224 -43 404 -55 530 -6 63 -15 151 -20 195 -5 44 -17 150 -26 235 -8 85 -22 214 -30 285 l-15 130 169 166 c93 91 185 178 203 193 30 25 167 156 549 524 58 56 109 102 114 102 5 0 63 -51 130 -114z"/>
<path d="M3 5580 c0 -25 2 -35 4 -22 2 12 2 32 0 45 -2 12 -4 2 -4 -23z"/>
<path d="M11979 5588 c-1 -84 -72 -619 -84 -638 -3 -4 -9 -39 -15 -78 -9 -65 -60 -285 -114 -487 -34 -126 -135 -430 -185 -555 -24 -58 -55 -134 -69 -170 -14 -36 -39 -90 -54 -120 -15 -30 -28 -60 -28 -66 0 -6 -9 -21 -20 -34 -11 -13 -20 -29 -20 -36 0 -21 -155 -319 -215 -414 -20 -32 -91 -150 -126 -210 -7 -14 -20 -29 -26 -33 -7 -4 -13 -12 -13 -17 0 -9 -58 -100 -70 -110 -9 -7 -120 -169 -120 -175 0 -5 -40 -53 -72 -87 -10 -10 -18 -21 -18 -24 0 -7 -117 -153 -145 -179 -11 -11 -27 -29 -35 -41 -83 -117 -554 -588 -672 -673 -11 -7 -33 -26 -49 -42 -16 -16 -53 -46 -82 -67 -28 -22 -58 -46 -66 -55 -7 -10 -17 -17 -22 -17 -5 0 -17 -8 -27 -18 -34 -32 -82 -72 -87 -72 -5 0 -160 -106 -180 -123 -9 -7 -232 -153 -300 -196 -128 -81 -490 -263 -735 -371 -120 -52 -131 -57 -210 -83 -70 -24 -126 -45 -175 -67 -69 -30 -448 -137 -605 -170 -58 -12 -145 -31 -195 -42 -121 -27 -160 -33 -515 -77 l-305 -39 2833 -1 2832 -1 0 2810 c0 1546 -2 2810 -5 2810 -3 0 -5 -15 -6 -32z"/>
<path d="M7 5471 c-4 -35 -7 -1281 -7 -2767 l0 -2704 2763 1 c1519 1 2773 4 2787 8 18 6 1 10 -60 15 -390 33 -698 90 -1155 211 -65 17 -258 79 -315 100 -19 8 -87 32 -150 55 -63 23 -165 63 -226 91 -62 27 -118 49 -126 49 -8 0 -18 4 -24 10 -12 12 -332 170 -345 170 -5 0 -9 4 -9 9 0 5 -10 13 -22 17 -13 3 -42 19 -66 35 -24 16 -45 29 -47 29 -13 0 -308 181 -325 200 -6 6 -125 85 -185 123 -22 13 -51 35 -65 47 -14 13 -56 47 -95 76 -38 30 -95 75 -126 102 -31 26 -90 74 -130 107 -116 94 -545 527 -659 665 -57 69 -107 127 -112 128 -4 2 -8 8 -8 13 0 5 -8 17 -17 27 -10 11 -43 52 -73 92 -30 40 -61 78 -67 85 -7 8 -13 18 -13 24 0 5 -6 16 -13 23 -7 7 -35 47 -62 88 -28 41 -53 77 -56 80 -13 10 -120 182 -163 262 -25 46 -53 93 -63 104 -28 31 -238 460 -304 619 -18 44 -37 84 -41 89 -4 6 -8 16 -8 24 0 8 -6 28 -14 45 -8 18 -27 68 -42 112 -14 44 -44 130 -64 190 -80 235 -147 503 -216 865 -14 76 -52 360 -63 480 l-6 65 -8 -64z"/>
<path d="M5598 3 c12 -2 32 -2 45 0 12 2 2 4 -23 4 -25 0 -35 -2 -22 -4z"/>
<path d="M5708 3 c6 -2 18 -2 25 0 6 3 1 5 -13 5 -14 0 -19 -2 -12 -5z"/>
</g>


</svg>