<!DOCTYPE svg PUBLIC "-//W3C//DTD SVG 20010904//EN" "http://www.w3.org/TR/2001/REC-SVG-20010904/DTD/svg10.dtd">
<svg version="1.0" xmlns="http://www.w3.org/2000/svg" width="1198px" height="1200px" viewBox="0 0 11980 12000" preserveAspectRatio="xMidYMid meet">
<g id="layer101" fill="#272727" stroke="none">
 <path d="M0 6000 l0 -6000 5990 0 5990 0 0 6000 0 6000 -5990 0 -5990 0 0 -6000z"/>
 </g>
<g id="layer102" fill="#fefefe" stroke="none">
 <path d="M0 6000 l0 -6000 5990 0 5990 0 0 6000 0 6000 -2977 -2 c-1638 -1 -2895 -5 -2793 -9 189 -7 553 -36 580 -45 8 -3 62 -12 120 -19 141 -19 238 -38 470 -95 273 -66 323 -80 510 -145 91 -31 179 -60 195 -65 27 -7 68 -24 162 -66 17 -8 35 -14 39 -14 4 0 36 -13 71 -30 35 -16 91 -43 126 -59 160 -74 203 -96 367 -184 145 -77 309 -174 355 -209 6 -5 60 -40 120 -80 61 -40 137 -93 170 -118 33 -25 73 -54 88 -63 16 -10 36 -25 45 -32 9 -8 43 -35 75 -61 31 -25 57 -50 57 -55 0 -5 6 -9 13 -9 6 0 28 -14 47 -31 19 -17 62 -54 95 -82 205 -178 419 -396 666 -678 22 -25 49 -59 59 -75 10 -16 37 -49 59 -74 51 -56 49 -54 94 -120 63 -93 108 -154 128 -176 10 -11 19 -24 19 -28 0 -4 9 -19 19 -34 91 -130 199 -307 256 -418 14 -29 35 -67 48 -86 21 -32 140 -269 158 -313 4 -11 26 -60 48 -108 23 -49 41 -92 41 -95 1 -4 9 -25 20 -47 11 -22 19 -46 20 -53 0 -7 4 -20 9 -30 35 -65 171 -456 171 -492 0 -8 9 -41 20 -74 45 -134 113 -442 159 -726 63 -378 79 -960 41 -1435 -11 -138 -22 -255 -25 -262 -2 -6 -9 -49 -15 -95 -11 -92 -37 -244 -50 -298 -5 -19 -25 -107 -45 -195 -20 -88 -40 -171 -45 -185 -5 -14 -21 -65 -36 -115 -57 -192 -87 -283 -120 -370 -19 -49 -34 -93 -34 -97 0 -5 -13 -36 -29 -70 -15 -35 -39 -90 -51 -123 -28 -73 -86 -200 -147 -320 -25 -49 -59 -117 -75 -150 -27 -52 -99 -179 -128 -225 -6 -8 -14 -25 -20 -38 -5 -12 -14 -28 -20 -35 -6 -6 -23 -32 -39 -57 -60 -96 -166 -257 -195 -296 -17 -23 -38 -52 -46 -64 -8 -13 -24 -35 -36 -49 -11 -14 -52 -66 -89 -116 -188 -245 -521 -599 -770 -815 -33 -29 -73 -64 -90 -79 -16 -15 -50 -42 -75 -61 -24 -19 -50 -39 -56 -45 -6 -5 -22 -17 -34 -25 -12 -8 -36 -28 -54 -43 -17 -16 -49 -40 -71 -55 -22 -15 -44 -31 -50 -35 -5 -4 -35 -25 -65 -47 -30 -22 -64 -47 -75 -56 -11 -9 -35 -23 -52 -32 -18 -9 -33 -19 -33 -24 0 -4 -7 -8 -15 -8 -9 0 -18 -7 -21 -15 -4 -8 -10 -15 -16 -15 -5 0 -28 -13 -51 -28 -23 -16 -55 -36 -72 -44 -16 -8 -78 -44 -136 -79 -148 -90 -522 -276 -689 -342 -224 -89 -390 -149 -545 -196 -145 -45 -529 -139 -614 -151 -41 -6 -77 -13 -82 -15 -19 -12 -417 -61 -609 -75 -162 -12 -862 -9 -975 4 -329 38 -323 37 -510 71 -164 29 -199 36 -365 77 -241 58 -343 89 -565 166 -332 115 -688 278 -1000 456 -71 41 -134 79 -140 83 -5 5 -43 28 -83 52 -40 24 -88 55 -107 70 -19 14 -69 48 -112 76 -43 27 -80 52 -83 55 -3 3 -25 21 -50 40 -25 19 -49 38 -55 42 -5 5 -32 25 -60 46 -48 35 -135 106 -239 195 -96 82 -183 164 -326 307 -186 186 -255 262 -415 455 -91 109 -91 110 -111 142 -10 15 -30 42 -45 58 -30 34 -99 132 -145 206 -16 28 -35 53 -40 57 -6 4 -57 86 -114 182 -57 96 -116 195 -131 220 -35 58 -151 288 -210 415 -75 163 -77 167 -109 255 -17 46 -38 100 -47 120 -8 19 -19 44 -24 55 -46 107 -161 501 -212 725 -121 533 -154 871 -144 1490 5 309 10 395 31 560 31 235 45 330 51 340 3 4 9 41 15 81 6 41 22 121 36 179 13 58 34 146 45 195 12 50 25 99 29 110 5 11 16 49 25 85 9 36 28 97 41 135 41 125 74 220 83 240 14 34 112 288 124 323 7 17 15 32 19 32 5 0 8 6 8 13 0 8 16 47 36 88 125 253 190 380 219 424 46 72 105 172 105 179 0 3 25 45 55 91 30 47 55 90 55 95 0 6 4 10 9 10 5 0 23 23 41 51 17 28 35 56 41 62 5 7 37 50 70 97 33 47 64 87 70 88 5 2 9 8 9 14 0 6 12 25 28 43 29 36 60 74 117 145 20 25 48 59 63 75 15 17 65 73 111 125 129 146 461 469 576 560 22 17 56 45 75 61 67 55 167 134 189 149 20 13 121 88 201 148 14 10 63 43 110 72 47 29 108 68 135 85 91 59 289 173 340 197 28 12 52 25 55 28 17 18 317 158 495 232 185 76 460 170 655 225 144 40 419 103 450 103 17 0 30 4 30 9 0 5 24 11 53 14 28 3 97 12 152 21 263 39 423 54 675 65 96 5 -1156 9 -2782 9 l-2958 2 0 -6000z"/>
 <path d="M5580 11859 c-139 -9 -366 -34 -450 -49 -30 -5 -100 -17 -155 -26 -55 -8 -147 -27 -205 -40 -58 -13 -154 -36 -215 -50 -125 -29 -110 -24 -350 -100 -99 -30 -195 -62 -212 -70 -18 -8 -62 -26 -97 -39 -163 -61 -327 -134 -525 -233 -249 -125 -264 -133 -271 -142 -3 -3 -30 -20 -60 -36 -131 -72 -135 -75 -390 -248 -139 -95 -264 -187 -285 -210 -12 -14 -164 -136 -168 -136 -10 0 -173 -156 -372 -356 -216 -216 -355 -370 -355 -394 0 -5 -4 -10 -9 -10 -7 0 -89 -98 -136 -164 -11 -16 -37 -50 -57 -77 -21 -27 -38 -53 -38 -59 0 -5 -4 -10 -9 -10 -13 0 -189 -269 -305 -463 -78 -132 -223 -420 -317 -632 -63 -143 -187 -492 -239 -675 -12 -41 -30 -102 -41 -135 -17 -55 -71 -312 -113 -540 -21 -114 -51 -375 -67 -577 -14 -183 -7 -757 10 -913 24 -202 42 -351 52 -410 5 -33 14 -87 19 -120 5 -33 22 -118 39 -190 18 -71 38 -159 46 -195 8 -36 26 -103 40 -150 14 -47 32 -108 40 -135 35 -128 159 -471 190 -526 8 -14 21 -47 30 -73 14 -41 171 -367 243 -504 30 -58 132 -227 200 -332 116 -180 141 -216 161 -239 12 -13 21 -27 21 -31 0 -3 8 -15 18 -26 10 -10 43 -53 73 -94 30 -41 60 -82 67 -90 7 -8 42 -51 77 -95 218 -270 530 -582 800 -800 44 -36 94 -76 110 -90 39 -33 96 -75 165 -122 30 -21 66 -48 80 -61 14 -13 45 -35 70 -50 25 -14 83 -51 130 -82 78 -52 242 -150 350 -212 99 -56 372 -188 490 -238 30 -13 78 -33 105 -46 98 -43 132 -56 320 -119 328 -110 518 -161 780 -211 201 -37 248 -45 369 -59 498 -59 993 -61 1476 -5 52 6 115 15 140 20 25 5 83 14 130 21 103 15 475 99 596 135 49 14 103 30 119 34 62 17 141 41 160 50 11 5 31 12 45 15 29 8 141 51 187 71 17 8 34 14 38 14 10 0 164 65 280 117 227 104 500 249 664 353 51 33 97 60 101 60 5 0 10 3 12 8 2 4 46 36 98 71 127 86 152 103 175 123 11 9 63 48 115 87 52 38 106 80 120 94 14 13 41 36 60 51 79 63 300 269 414 385 185 189 188 193 231 246 22 27 52 62 67 77 15 16 45 52 66 81 22 28 46 58 55 66 10 7 17 17 17 21 0 4 16 25 36 46 20 22 51 62 70 89 18 28 63 93 100 145 72 101 184 277 184 287 0 4 6 14 14 22 8 9 26 39 41 66 37 67 46 83 76 130 24 37 219 427 219 438 0 3 17 43 39 89 21 45 59 142 85 213 26 72 53 146 61 165 8 19 35 103 60 185 25 83 50 164 55 180 20 66 112 464 120 520 5 33 14 87 19 120 10 60 30 218 51 410 18 157 24 674 11 885 -14 209 -43 472 -67 605 -25 138 -93 466 -103 500 -5 17 -21 73 -36 125 -15 52 -36 123 -46 157 -11 34 -19 67 -19 73 0 5 -11 33 -25 62 -14 28 -25 58 -25 65 0 7 -11 41 -24 75 -14 35 -43 110 -66 168 -22 58 -45 113 -50 122 -6 10 -10 23 -10 29 0 17 -242 496 -282 559 -19 30 -47 78 -62 105 -14 28 -44 77 -66 110 -21 33 -53 83 -69 110 -17 28 -47 70 -66 95 -19 25 -42 58 -51 74 -9 16 -20 34 -25 40 -47 57 -89 116 -89 125 0 6 -4 11 -8 11 -5 0 -22 19 -39 43 -17 23 -40 51 -50 62 -10 11 -32 38 -48 60 -34 44 -48 60 -203 230 -149 163 -404 410 -528 512 -51 42 -125 105 -142 121 -7 6 -17 12 -21 12 -4 0 -16 8 -27 18 -10 10 -55 45 -99 77 -44 33 -82 63 -85 66 -4 5 -117 81 -168 114 -9 6 -27 20 -41 33 -14 12 -30 22 -35 22 -6 0 -46 23 -90 52 -138 88 -149 95 -221 133 -38 21 -82 46 -97 56 -14 11 -30 19 -35 19 -4 0 -64 29 -133 65 -69 36 -134 68 -145 71 -11 3 -47 19 -80 34 -89 42 -154 70 -161 70 -3 0 -20 6 -37 14 -64 27 -93 38 -137 53 -25 8 -72 25 -105 38 -207 81 -733 214 -1010 255 -33 5 -90 14 -128 20 -274 42 -869 61 -1207 39z m-472 -634 c3 -3 -7 -209 -22 -458 -16 -249 -32 -513 -37 -587 -4 -74 -27 -430 -49 -790 -23 -360 -45 -725 -50 -810 -8 -139 -19 -294 -36 -537 l-6 -83 1051 0 c994 0 1051 1 1051 18 0 9 -5 78 -10 152 -5 74 -16 241 -25 370 -8 129 -19 305 -25 390 -5 85 -12 175 -15 200 -3 25 -12 158 -20 295 -8 138 -17 270 -20 295 -3 25 -12 153 -20 285 -30 480 -45 703 -54 830 -25 321 -32 427 -28 432 3 2 30 7 60 10 l55 6 6 -49 c3 -27 10 -115 16 -196 35 -510 48 -697 55 -818 6 -101 29 -420 45 -635 5 -71 17 -236 25 -365 8 -129 22 -336 30 -460 8 -124 21 -328 29 -455 9 -126 18 -274 22 -327 l7 -98 -1182 0 c-649 0 -1181 1 -1181 3 0 11 52 851 65 1042 8 127 20 311 25 410 5 99 14 243 20 320 6 77 24 365 40 640 17 275 35 563 40 640 5 77 13 187 17 244 l6 103 55 -5 c30 -3 57 -8 60 -12z m-2116 -1023 c2 -4 17 -18 33 -31 17 -12 48 -38 70 -56 100 -82 251 -207 265 -218 72 -56 123 -98 171 -141 64 -58 135 -116 143 -116 5 0 77 -63 122 -106 13 -12 27 -24 32 -25 15 -6 83 -61 142 -114 30 -28 73 -64 95 -80 22 -16 45 -34 51 -40 7 -5 29 -23 49 -40 21 -16 47 -38 59 -49 11 -10 41 -35 66 -55 25 -20 50 -40 56 -46 6 -5 45 -37 87 -70 l77 -60 -192 -187 c-106 -102 -272 -263 -368 -356 -96 -94 -209 -203 -250 -242 -77 -73 -174 -168 -503 -490 -177 -173 -189 -184 -202 -166 -8 11 -25 31 -39 46 -13 15 -29 37 -35 48 -6 11 -17 26 -24 34 -7 7 -37 47 -67 88 -29 41 -62 83 -72 93 -10 10 -18 21 -18 25 0 4 -12 21 -26 37 -14 17 -51 65 -82 108 -68 93 -92 125 -154 205 -25 33 -51 69 -57 80 -6 11 -17 26 -24 34 -7 7 -28 34 -47 61 -18 26 -37 47 -41 47 -4 0 -10 8 -13 18 -4 10 -14 27 -24 38 -9 10 -42 53 -72 94 -30 41 -57 77 -60 80 -3 3 -32 41 -65 85 -33 44 -65 87 -72 95 -59 74 -193 260 -193 266 0 5 17 20 38 34 20 14 40 29 44 35 4 5 9 7 11 5 9 -10 73 -98 87 -120 8 -12 20 -28 25 -34 16 -16 87 -109 105 -136 8 -12 35 -48 60 -79 25 -32 52 -68 60 -81 8 -12 39 -53 67 -89 66 -83 58 -72 123 -161 46 -64 74 -100 153 -200 7 -8 20 -28 30 -43 10 -16 25 -36 32 -45 8 -9 34 -44 59 -77 25 -33 54 -71 66 -86 17 -21 94 -124 218 -291 15 -21 30 -37 34 -38 4 0 22 15 41 33 209 203 630 612 1011 982 l246 240 -36 33 c-20 17 -39 32 -43 32 -3 0 -27 20 -52 43 -25 23 -63 56 -84 72 -20 17 -48 39 -61 50 -12 11 -62 52 -111 90 -48 39 -94 77 -103 85 -9 8 -33 29 -54 45 -21 17 -59 48 -84 70 -25 22 -54 46 -66 54 -12 8 -61 49 -111 90 -164 137 -200 166 -235 192 -19 15 -46 37 -60 50 -14 13 -46 40 -70 59 -25 19 -50 39 -57 45 -6 5 -35 30 -64 55 -29 25 -68 59 -87 76 l-34 30 33 47 c32 46 44 55 51 39z m6039 -54 c6 -12 20 -31 30 -42 11 -11 19 -22 19 -25 0 -4 -19 -21 -42 -39 -63 -49 -218 -165 -236 -177 -21 -14 -42 -29 -80 -61 -19 -15 -77 -60 -130 -100 -53 -40 -101 -77 -107 -81 -5 -5 -54 -42 -108 -83 -54 -41 -136 -104 -182 -140 -46 -36 -94 -73 -107 -82 -47 -35 -174 -128 -193 -143 -11 -8 -33 -26 -50 -39 -16 -12 -76 -58 -133 -100 -57 -43 -102 -82 -100 -87 2 -5 156 -164 343 -355 187 -190 361 -369 388 -397 26 -29 156 -161 289 -295 l242 -242 30 34 c17 19 40 47 51 62 37 52 92 119 128 159 20 22 37 43 37 47 0 3 14 21 30 40 54 59 75 83 148 178 15 19 34 41 42 50 8 8 22 27 31 40 9 14 39 50 65 81 27 30 60 70 74 89 14 18 53 67 88 109 35 42 69 83 75 91 46 60 97 122 136 166 25 27 55 63 66 79 34 49 90 118 128 159 l37 39 23 -20 c12 -11 32 -29 45 -40 19 -17 21 -23 10 -34 -8 -8 -34 -39 -59 -70 -24 -31 -91 -113 -149 -184 -58 -70 -126 -155 -153 -189 -26 -33 -51 -62 -55 -66 -4 -3 -19 -21 -32 -40 -14 -19 -33 -44 -42 -55 -83 -93 -115 -131 -130 -154 -14 -23 -29 -41 -80 -101 -7 -8 -39 -46 -70 -85 -32 -38 -66 -79 -75 -90 -10 -11 -31 -38 -48 -60 -16 -22 -38 -49 -48 -60 -11 -11 -31 -36 -45 -55 -14 -19 -31 -39 -36 -45 -6 -5 -55 -65 -109 -132 -54 -68 -102 -123 -106 -123 -9 0 -286 275 -306 303 -8 11 -143 151 -302 311 -158 160 -416 422 -572 580 l-283 289 30 26 c16 14 40 33 52 41 41 28 245 184 270 207 14 13 28 23 31 23 4 0 42 28 86 63 43 34 91 70 106 80 16 10 36 24 45 32 105 84 132 105 137 105 3 0 14 8 24 18 10 9 44 35 75 57 31 22 69 51 84 65 15 14 41 34 57 44 17 11 83 61 147 113 64 51 121 93 126 93 5 0 17 9 27 20 10 11 22 20 26 20 4 0 25 16 46 36 21 19 49 43 63 52 14 9 53 38 88 65 35 26 67 47 72 47 5 0 15 -10 21 -22z m-876 -2978 c99 -5 200 -12 225 -15 25 -3 115 -9 200 -15 293 -19 605 -39 775 -50 94 -5 231 -15 305 -20 74 -6 214 -15 310 -20 96 -6 234 -15 305 -20 72 -5 276 -19 455 -30 404 -25 480 -31 485 -40 2 -3 1 -32 -2 -63 -5 -54 -7 -56 -32 -52 -14 3 -100 9 -191 15 -91 6 -268 18 -395 26 -126 8 -309 19 -405 24 -96 5 -195 12 -220 15 -25 3 -115 10 -200 15 -85 6 -258 17 -385 25 -126 9 -408 26 -625 40 -609 38 -701 44 -758 50 l-52 6 2 -1048 3 -1048 80 1 c44 1 193 8 330 18 591 38 723 47 950 61 132 8 260 17 285 20 25 3 189 14 365 25 431 27 918 58 1094 70 80 5 147 7 149 5 3 -2 6 -31 9 -63 l4 -59 -48 -2 c-26 -1 -151 -8 -278 -16 -126 -9 -311 -20 -410 -25 -99 -6 -198 -12 -220 -15 -22 -3 -112 -10 -200 -15 -153 -10 -329 -21 -847 -55 -128 -8 -379 -24 -558 -35 -179 -11 -422 -27 -540 -35 -118 -9 -232 -17 -252 -18 l-38 -3 0 1185 0 1184 73 -7 c39 -3 153 -11 252 -16z m-4015 -1185 l0 -1185 -32 0 c-18 0 -94 5 -168 10 -74 5 -245 16 -380 25 -135 8 -265 17 -290 20 -25 3 -121 10 -215 15 -93 5 -354 21 -580 35 -225 14 -486 30 -580 35 -93 5 -192 12 -220 15 -55 6 -414 29 -710 46 -257 14 -238 8 -233 74 3 30 7 57 9 59 4 4 394 -19 1014 -59 132 -8 341 -22 465 -30 124 -8 331 -21 460 -30 129 -8 309 -20 400 -25 207 -12 585 -38 842 -56 l88 -7 2 1052 c2 578 1 1051 -2 1051 -3 0 -111 -7 -240 -15 -129 -9 -374 -24 -545 -35 -516 -33 -618 -40 -665 -45 -25 -3 -153 -12 -285 -20 -326 -20 -670 -43 -845 -55 -270 -19 -485 -32 -586 -37 l-102 -5 -7 52 c-4 28 -3 56 1 60 5 5 86 13 179 20 94 6 265 17 380 25 116 9 320 22 455 30 135 8 306 20 380 25 74 6 205 15 290 20 85 5 220 14 300 20 350 24 458 31 670 45 388 25 716 48 743 54 4 0 7 -532 7 -1184z m4838 -1507 c38 -51 78 -103 88 -116 11 -13 43 -53 72 -90 29 -37 57 -73 64 -81 6 -7 39 -51 74 -98 35 -46 69 -89 74 -96 29 -34 160 -208 160 -212 0 -3 8 -13 18 -23 38 -40 72 -82 72 -90 0 -4 10 -18 23 -32 13 -14 47 -59 77 -100 30 -41 57 -77 61 -80 3 -3 30 -36 58 -74 29 -38 58 -74 64 -81 7 -7 19 -23 27 -35 8 -12 28 -39 43 -59 16 -20 38 -49 50 -64 12 -15 32 -40 45 -55 12 -15 35 -45 51 -68 l29 -40 -49 -37 -49 -36 -38 48 c-20 26 -47 61 -60 78 -136 180 -195 258 -201 263 -9 7 -52 62 -76 96 -11 15 -41 55 -67 88 -63 81 -57 73 -108 141 -52 71 -118 155 -163 209 -17 21 -41 53 -52 70 -10 17 -22 33 -25 36 -4 3 -34 41 -68 85 -34 44 -70 91 -81 105 -88 112 -161 211 -161 217 0 12 -41 35 -48 28 -4 -4 -292 -290 -640 -637 l-633 -629 27 -22 c15 -11 43 -36 63 -54 20 -18 44 -36 54 -39 9 -3 17 -9 17 -13 0 -4 19 -21 43 -38 23 -17 51 -40 62 -50 11 -10 38 -32 60 -48 22 -17 49 -37 60 -47 11 -9 54 -44 95 -78 41 -33 90 -74 109 -90 19 -17 37 -30 42 -30 4 0 20 -12 36 -27 17 -16 153 -127 304 -248 151 -120 281 -226 290 -235 9 -8 29 -24 45 -35 16 -11 50 -40 77 -64 43 -40 46 -46 32 -60 -9 -9 -26 -29 -38 -44 l-23 -28 -80 63 c-94 74 -90 70 -134 109 -19 17 -51 43 -70 57 -19 15 -42 33 -52 42 -9 8 -31 26 -49 40 -18 14 -61 48 -95 75 -34 28 -99 79 -145 115 -45 36 -90 72 -98 81 -9 8 -59 48 -111 88 -52 41 -99 79 -105 85 -5 7 -26 23 -45 36 -42 29 -44 31 -141 112 -41 35 -90 74 -109 88 -32 24 -152 121 -215 175 -16 14 -42 35 -57 46 -16 11 -28 24 -28 28 0 7 648 654 1018 1017 101 98 245 241 320 317 75 75 137 137 139 137 1 0 33 -42 71 -92z m-5398 -470 c289 -293 619 -627 732 -742 l205 -209 -51 -38 c-64 -47 -127 -95 -176 -134 -21 -16 -50 -39 -65 -50 -16 -11 -54 -40 -85 -65 -31 -25 -89 -70 -129 -100 -40 -30 -78 -59 -84 -65 -7 -5 -48 -37 -92 -70 -44 -33 -82 -62 -85 -65 -3 -3 -61 -48 -130 -100 -148 -112 -146 -110 -171 -133 -10 -9 -22 -17 -25 -17 -3 0 -31 -20 -62 -45 -82 -66 -96 -77 -207 -159 -55 -41 -109 -83 -120 -93 -41 -37 -104 -75 -114 -68 -6 3 -24 26 -41 50 -28 41 -29 44 -11 50 10 3 30 16 43 28 37 33 86 67 97 67 5 0 11 4 13 9 3 9 78 74 123 106 95 69 260 194 311 236 23 19 52 41 64 49 13 8 51 38 85 65 35 28 73 57 85 65 12 8 32 24 44 35 12 11 59 47 105 80 101 73 195 147 199 158 2 4 8 7 13 7 6 0 15 4 22 10 106 85 141 113 192 150 33 24 62 45 64 47 3 2 -13 21 -35 42 -21 21 -151 152 -288 292 -137 140 -407 413 -600 606 -342 344 -350 352 -368 333 -10 -10 -18 -22 -18 -25 0 -6 -27 -38 -77 -92 -13 -13 -23 -27 -23 -31 0 -4 -26 -37 -57 -74 -32 -36 -74 -87 -93 -112 -19 -26 -47 -61 -63 -77 -28 -31 -86 -104 -122 -153 -11 -15 -35 -44 -53 -64 -19 -19 -52 -61 -75 -91 -23 -31 -46 -61 -51 -68 -45 -52 -88 -104 -126 -153 -14 -18 -34 -42 -45 -54 -11 -12 -33 -39 -50 -61 -16 -22 -40 -51 -53 -65 -13 -14 -35 -42 -48 -62 -13 -21 -29 -38 -34 -38 -6 0 -10 -6 -10 -13 0 -7 -10 -23 -22 -37 -72 -80 -97 -109 -106 -125 -9 -17 -14 -15 -60 23 l-50 42 30 33 c32 33 101 121 129 164 9 13 23 29 31 36 8 7 82 95 164 197 81 102 154 191 161 198 7 7 13 16 13 20 0 4 14 23 31 42 17 19 47 55 67 80 20 25 45 54 54 64 10 11 20 28 24 38 3 10 9 18 14 18 4 0 32 30 62 68 29 37 63 78 75 92 13 14 23 30 23 37 0 7 4 13 8 13 5 0 33 30 63 67 30 38 95 118 144 179 50 61 103 127 119 147 16 20 32 37 35 37 2 0 241 -240 531 -532z m3586 42 c-9 -130 -23 -344 -36 -530 -6 -85 -15 -225 -20 -310 -28 -486 -70 -1161 -75 -1200 -3 -25 -12 -153 -20 -285 -8 -132 -22 -341 -30 -465 -8 -124 -18 -287 -22 -362 -5 -124 -8 -138 -26 -144 -22 -7 -107 4 -107 14 0 12 39 615 55 862 8 129 20 314 25 410 5 96 12 198 15 225 7 65 20 259 50 750 14 220 29 468 35 550 6 83 15 213 20 290 5 77 10 146 10 153 0 9 -217 12 -1050 12 l-1051 0 6 -107 c3 -60 10 -162 15 -228 6 -66 15 -192 20 -280 24 -372 52 -814 65 -1010 30 -437 45 -659 64 -960 11 -170 25 -390 32 -488 6 -98 9 -180 6 -183 -3 -3 -30 -8 -61 -11 -50 -5 -56 -4 -56 13 0 10 -5 82 -10 159 -6 77 -17 244 -25 370 -27 433 -35 540 -40 590 -3 28 -12 158 -20 290 -9 132 -22 341 -30 465 -8 124 -24 367 -35 540 -34 546 -40 632 -50 740 -6 58 -10 132 -10 165 l0 60 1181 0 1182 0 -7 -95z"/>
 </g>

</svg>