<!DOCTYPE svg PUBLIC "-//W3C//DTD SVG 20010904//EN" "http://www.w3.org/TR/2001/REC-SVG-20010904/DTD/svg10.dtd">
<svg version="1.0" xmlns="http://www.w3.org/2000/svg" width="1197px" height="1200px" viewBox="0 0 11970 12000" preserveAspectRatio="xMidYMid meet">
<g id="layer101" fill="#272727" stroke="none">
 <path d="M0 6000 l0 -6000 5985 0 5985 0 0 6000 0 6000 -5985 0 -5985 0 0 -6000z"/>
 </g>
<g id="layer102" fill="#fefefe" stroke="none">
 <path d="M2 9058 c0 -1619 5 -2862 9 -2763 8 177 30 431 49 550 5 33 14 94 20 135 7 41 22 125 35 185 14 61 31 146 40 190 28 137 123 477 155 550 9 22 25 65 35 95 16 52 63 178 91 245 6 17 22 55 34 85 73 182 302 642 329 660 4 3 11 17 15 33 3 15 11 27 16 27 6 0 10 4 10 9 0 14 83 151 106 175 6 7 19 26 28 44 16 31 105 163 116 172 4 3 35 46 70 95 35 50 99 134 142 188 43 53 78 99 78 101 0 2 14 19 31 37 17 19 61 67 97 109 175 199 505 517 677 652 33 27 65 51 70 56 128 103 150 120 211 164 105 77 182 129 279 190 55 34 106 68 113 75 7 7 18 13 24 13 6 0 19 7 29 16 26 23 237 137 449 242 185 91 334 157 485 213 44 17 98 37 120 46 49 19 150 51 270 88 203 61 242 72 305 85 30 6 87 20 125 30 84 22 193 44 295 60 41 6 100 16 130 21 125 21 461 52 675 62 33 2 -1251 4 -2852 5 l-2913 2 2 -2942z"/>
 <path d="M6215 11993 c234 -11 550 -42 735 -73 30 -5 81 -12 113 -16 31 -4 57 -11 57 -15 0 -5 15 -9 33 -9 37 0 344 -71 403 -94 21 -8 57 -17 79 -21 55 -9 440 -139 555 -187 264 -110 425 -185 605 -282 55 -29 125 -66 154 -82 30 -16 60 -33 65 -37 6 -4 47 -30 91 -57 147 -92 323 -209 347 -232 10 -10 22 -18 26 -18 5 0 18 -9 29 -19 11 -11 55 -44 97 -75 43 -30 99 -74 126 -98 26 -24 60 -52 74 -62 187 -135 641 -599 877 -896 82 -104 278 -376 287 -400 3 -8 14 -24 24 -35 16 -17 115 -178 176 -285 10 -19 36 -63 56 -97 20 -34 36 -64 36 -67 0 -4 10 -23 23 -44 30 -49 176 -355 217 -457 17 -44 35 -89 40 -100 5 -11 23 -58 41 -105 17 -47 36 -94 40 -105 64 -155 200 -646 230 -830 5 -33 14 -76 20 -95 9 -33 21 -111 53 -357 8 -60 19 -182 25 -273 6 -91 13 -181 15 -200 1 -19 4 1262 4 2848 l2 2882 -2907 -2 c-1600 -1 -2881 -3 -2848 -5z"/>
 <path d="M5515 11854 c-273 -23 -408 -42 -655 -90 -47 -9 -105 -20 -130 -23 -25 -4 -55 -13 -67 -19 -12 -7 -32 -12 -46 -12 -80 0 -692 -197 -882 -285 -33 -15 -82 -36 -110 -46 -55 -21 -477 -230 -485 -240 -3 -3 -48 -31 -100 -61 -52 -30 -128 -76 -168 -101 -40 -26 -76 -47 -81 -47 -4 0 -19 -11 -33 -24 -14 -12 -43 -34 -64 -47 -39 -23 -68 -44 -186 -131 -210 -155 -259 -196 -451 -373 -78 -72 -151 -137 -162 -145 -11 -8 -65 -64 -120 -124 -55 -60 -114 -123 -131 -140 -30 -30 -150 -173 -229 -271 -22 -27 -47 -57 -55 -65 -9 -9 -27 -34 -40 -55 -13 -22 -29 -44 -35 -50 -17 -15 -88 -113 -131 -180 -22 -33 -42 -62 -45 -65 -7 -6 -109 -170 -127 -205 -7 -14 -17 -25 -23 -25 -5 0 -9 -9 -9 -19 0 -11 -4 -22 -9 -25 -25 -16 -290 -537 -351 -691 -17 -44 -36 -88 -42 -99 -30 -55 -196 -546 -218 -646 -5 -19 -24 -100 -43 -180 -41 -170 -67 -304 -67 -342 0 -16 -4 -28 -8 -28 -9 0 -17 -59 -63 -455 -17 -144 -23 -763 -10 -943 23 -307 52 -524 98 -747 14 -66 29 -142 35 -170 10 -55 45 -184 84 -315 14 -47 35 -116 46 -155 11 -38 24 -79 28 -90 5 -11 22 -58 39 -105 55 -159 73 -205 101 -265 15 -33 40 -91 56 -130 50 -124 214 -444 312 -609 53 -89 99 -165 104 -171 14 -18 73 -109 100 -155 15 -25 38 -58 53 -75 14 -16 40 -51 58 -76 169 -243 452 -565 708 -805 168 -159 211 -198 230 -209 10 -5 37 -28 61 -51 23 -22 57 -49 73 -59 17 -11 33 -23 36 -27 7 -11 110 -88 179 -135 30 -21 62 -46 72 -55 9 -10 37 -29 60 -44 24 -14 68 -44 100 -65 31 -21 61 -39 66 -39 6 0 12 -4 14 -8 1 -5 77 -52 167 -106 177 -105 469 -255 608 -312 49 -20 111 -46 138 -59 28 -13 75 -32 105 -43 30 -11 80 -30 110 -42 30 -12 71 -26 90 -31 19 -6 44 -14 55 -19 11 -4 52 -17 90 -29 39 -11 117 -34 173 -51 57 -17 132 -37 165 -45 34 -7 132 -29 217 -48 85 -19 191 -41 235 -47 44 -6 100 -15 125 -20 25 -5 95 -14 155 -20 61 -6 148 -16 195 -21 47 -6 229 -13 405 -16 273 -4 359 -2 584 16 146 12 267 24 271 26 3 2 46 9 96 15 81 10 134 19 304 51 361 69 864 228 1185 374 28 13 95 43 151 68 55 25 127 60 160 78 32 17 86 46 119 64 33 17 107 58 163 91 57 32 113 64 124 71 12 6 23 15 27 20 7 10 126 83 136 83 5 0 29 17 110 77 6 5 33 24 60 42 28 19 52 38 55 41 3 3 16 13 30 21 28 18 192 148 200 158 3 4 16 14 30 23 24 14 71 54 141 118 15 14 61 54 101 90 160 143 410 405 566 595 23 28 47 57 54 65 7 9 26 34 42 55 16 22 43 56 60 76 46 54 66 82 66 91 0 5 9 19 21 31 28 29 139 194 139 206 0 5 4 11 9 13 20 7 298 481 316 538 4 11 11 20 16 20 5 0 9 5 9 12 0 6 13 39 29 72 59 123 150 334 157 362 4 16 11 34 16 41 17 22 142 381 188 543 11 41 30 104 40 140 19 65 42 166 79 355 67 343 104 738 104 1115 0 347 -23 648 -74 970 -4 30 -11 79 -15 108 -4 29 -11 55 -15 58 -5 3 -9 19 -9 35 0 30 -14 95 -52 243 -11 44 -22 90 -24 102 -2 13 -17 62 -33 111 -15 48 -36 115 -46 148 -134 448 -386 989 -649 1395 -137 212 -287 422 -364 510 -22 25 -59 70 -83 100 -137 174 -430 473 -669 682 -230 201 -654 504 -860 616 -47 25 -112 62 -145 82 -121 73 -417 213 -625 296 -74 30 -144 59 -155 64 -27 13 -402 133 -495 159 -106 29 -423 100 -500 112 -36 6 -90 14 -120 19 -143 23 -381 50 -530 59 -217 14 -677 12 -865 -5z m-129 -600 c22 -9 41 -18 42 -19 4 -4 -32 -110 -78 -235 -15 -41 -35 -102 -45 -135 -9 -33 -23 -78 -31 -100 -42 -124 -148 -549 -160 -650 -3 -22 -9 -49 -14 -60 -5 -11 -11 -38 -14 -60 -3 -22 -10 -74 -17 -115 -14 -89 -6 -321 16 -493 8 -65 17 -121 19 -125 2 -4 14 -54 26 -111 54 -258 193 -603 339 -839 28 -46 51 -86 51 -88 0 -5 39 -62 55 -80 6 -6 28 -37 50 -68 85 -123 299 -366 321 -366 11 0 82 58 103 85 9 10 46 51 82 90 60 63 121 138 218 265 87 113 269 431 321 560 12 30 32 80 45 110 27 65 67 189 90 280 10 36 21 76 25 90 5 14 14 57 20 95 7 39 16 92 21 119 23 119 33 357 21 470 -18 165 -61 396 -128 696 -35 158 -124 469 -164 578 -11 29 -20 57 -20 62 0 9 107 47 113 39 8 -10 102 -301 124 -384 63 -234 113 -460 167 -760 59 -329 53 -526 -30 -925 -35 -167 -139 -467 -203 -585 -11 -22 -21 -45 -21 -52 0 -6 -6 -18 -12 -25 -7 -8 -33 -54 -58 -103 -65 -128 -258 -414 -348 -515 -167 -188 -319 -335 -346 -335 -6 0 -17 -4 -24 -9 -9 -5 -25 3 -49 25 -64 60 -138 135 -157 160 -11 13 -47 56 -80 94 -34 39 -71 84 -83 100 -86 117 -123 171 -123 178 0 4 -9 18 -20 30 -19 20 -33 43 -112 182 -41 73 -168 334 -168 346 0 5 -4 17 -10 27 -5 9 -19 46 -30 82 -12 36 -25 74 -30 85 -12 29 -56 188 -75 270 -18 76 -27 131 -50 299 -16 116 -19 404 -6 491 8 54 38 209 51 265 112 488 160 655 279 978 43 117 39 114 107 86z m-2541 -1069 c44 -24 100 -54 125 -67 25 -13 47 -25 50 -28 3 -3 39 -26 80 -50 87 -51 335 -216 361 -239 9 -9 48 -38 85 -66 38 -27 71 -53 74 -56 3 -3 23 -17 46 -32 49 -31 192 -173 245 -244 98 -131 211 -310 262 -414 62 -126 137 -308 137 -332 0 -9 9 -35 19 -60 33 -78 98 -385 107 -507 20 -268 15 -500 -11 -500 -7 0 -15 -6 -18 -12 -5 -16 -237 -15 -384 1 -117 13 -300 52 -438 93 -55 16 -114 33 -131 37 -47 13 -272 111 -339 149 -33 19 -85 48 -115 64 -30 17 -64 38 -75 48 -11 9 -38 27 -60 40 -22 13 -54 35 -71 49 -17 14 -46 37 -64 51 -121 94 -251 228 -317 330 -87 132 -87 131 -100 146 -7 7 -13 15 -13 18 0 2 -13 26 -29 53 -117 197 -163 278 -199 343 -43 80 -195 401 -206 436 -7 22 -6 22 92 61 12 5 73 -112 87 -170 4 -15 11 -27 15 -27 5 0 14 -17 21 -37 6 -21 15 -40 18 -43 3 -3 30 -53 59 -112 29 -60 83 -159 119 -220 36 -62 73 -125 82 -140 9 -16 19 -28 24 -28 4 0 7 -5 7 -11 0 -11 69 -129 81 -139 3 -3 24 -33 48 -68 53 -79 183 -211 286 -291 44 -34 87 -68 95 -75 38 -30 110 -76 119 -76 6 0 11 -4 11 -9 0 -9 74 -49 230 -127 185 -92 452 -176 640 -200 58 -8 139 -19 180 -25 42 -5 113 -9 159 -7 l83 3 -1 164 c-2 206 -29 417 -75 591 -39 150 -101 313 -176 465 -68 137 -172 307 -204 334 -9 7 -16 19 -16 27 0 7 -6 17 -13 21 -7 4 -29 31 -49 58 -77 106 -285 273 -583 470 -33 22 -62 43 -65 46 -6 7 -141 88 -200 120 -25 13 -47 27 -50 30 -3 3 -18 12 -35 20 -28 15 -188 100 -192 103 -1 1 9 25 23 53 30 60 28 60 159 -12z m6530 -131 c9 -30 16 -56 14 -58 -2 -1 -38 -18 -79 -36 -119 -54 -428 -212 -515 -265 -44 -26 -164 -104 -267 -172 -160 -106 -200 -138 -275 -218 -84 -91 -263 -321 -263 -338 0 -5 -11 -23 -24 -40 -47 -63 -206 -396 -206 -432 0 -4 -6 -21 -14 -38 -30 -69 -90 -307 -115 -457 -13 -78 -32 -295 -29 -329 l2 -24 206 6 c212 6 263 12 440 53 146 34 199 49 304 85 91 31 423 188 448 212 7 6 33 25 58 42 44 29 134 93 195 137 36 27 165 154 185 184 8 12 45 64 83 115 37 52 73 102 80 113 6 10 17 24 23 30 5 6 19 26 29 44 11 17 23 32 27 32 4 0 8 4 8 10 0 5 31 58 69 117 118 186 157 254 217 376 32 64 63 117 69 117 10 0 94 -37 104 -46 3 -3 -103 -207 -158 -304 -18 -30 -37 -66 -44 -80 -6 -14 -15 -29 -20 -35 -4 -5 -36 -55 -72 -110 -35 -55 -68 -105 -72 -110 -4 -6 -30 -44 -58 -85 -44 -67 -101 -144 -130 -176 -5 -6 -17 -22 -25 -34 -20 -30 -101 -131 -120 -150 -9 -8 -47 -41 -85 -73 -39 -31 -77 -63 -85 -71 -76 -69 -406 -262 -535 -313 -16 -7 -55 -22 -85 -34 -76 -29 -168 -60 -210 -70 -19 -4 -66 -17 -105 -28 -176 -52 -583 -93 -757 -77 -43 4 -77 11 -77 14 3 21 -3 32 -16 32 -12 0 -15 17 -15 98 1 198 40 475 91 647 73 245 119 360 220 553 39 75 74 139 77 142 4 3 12 12 17 21 24 39 109 164 114 169 3 3 18 21 33 40 26 35 52 64 173 191 35 38 97 90 137 116 40 26 84 58 98 71 14 12 28 22 32 22 3 0 58 32 120 72 203 128 231 145 383 224 162 84 353 174 371 174 6 0 19 -25 29 -56z m-6895 -2965 c47 -5 119 -16 160 -24 41 -7 102 -19 135 -25 227 -42 668 -217 833 -330 33 -22 63 -40 67 -40 9 0 183 -117 209 -141 11 -11 24 -19 28 -19 5 0 33 -22 61 -48 29 -27 66 -58 82 -71 62 -47 308 -296 339 -343 25 -39 1 -81 -109 -189 -103 -101 -361 -313 -405 -332 -8 -4 -64 -39 -125 -78 -248 -159 -559 -287 -895 -367 -254 -61 -649 -81 -833 -43 -51 11 -141 30 -202 42 -60 12 -184 41 -275 66 -91 24 -185 49 -210 54 -69 14 -455 146 -547 186 -81 35 -94 45 -73 58 5 3 14 24 20 45 12 44 17 46 63 26 71 -30 97 -40 202 -78 141 -50 235 -81 310 -102 33 -9 89 -25 125 -36 36 -10 117 -31 180 -45 63 -14 142 -32 175 -40 273 -63 349 -75 481 -75 200 0 371 21 584 70 124 29 365 104 385 119 5 5 28 14 50 21 22 7 49 19 60 26 11 8 24 14 30 14 21 0 342 176 365 200 3 3 12 10 21 15 47 29 167 113 189 132 65 55 295 268 298 275 9 22 -308 317 -442 413 -15 11 -48 35 -73 53 -152 115 -473 280 -678 350 -229 78 -323 99 -599 137 -182 25 -359 16 -606 -30 -47 -9 -114 -20 -150 -25 -36 -6 -71 -13 -79 -15 -8 -3 -41 -10 -75 -15 -98 -15 -516 -119 -561 -139 -27 -12 -192 -64 -201 -63 -4 1 -15 25 -25 53 -19 54 -15 68 19 69 7 0 20 4 30 9 44 25 419 131 460 131 12 0 22 5 22 10 0 6 15 10 34 10 18 0 46 4 62 9 61 19 277 61 469 91 39 6 97 15 130 21 181 30 283 32 485 8z m7435 -89 c477 -87 828 -178 1155 -296 138 -50 170 -65 170 -80 0 -11 -26 -76 -37 -93 -1 -2 -80 23 -175 57 -209 73 -333 112 -357 112 -10 0 -34 6 -52 14 -62 26 -483 124 -629 146 -41 7 -97 16 -123 21 -111 21 -352 9 -608 -30 -137 -21 -465 -112 -504 -140 -5 -4 -28 -13 -50 -20 -72 -23 -259 -112 -360 -171 -38 -22 -80 -46 -92 -52 -13 -6 -23 -15 -23 -20 0 -4 -5 -8 -10 -8 -12 0 -141 -85 -205 -134 -118 -92 -159 -126 -247 -209 -54 -49 -98 -93 -98 -97 0 -16 214 -221 298 -285 7 -5 21 -17 30 -26 45 -42 179 -135 292 -203 41 -25 80 -50 87 -55 21 -19 285 -146 373 -180 140 -54 155 -60 298 -101 75 -22 149 -40 165 -40 15 0 56 -6 90 -14 109 -25 190 -36 322 -42 123 -6 162 -3 345 26 36 6 92 15 125 20 233 34 633 133 938 231 87 28 159 50 160 48 2 -2 10 -27 19 -55 15 -51 15 -52 -6 -62 -57 -27 -325 -111 -486 -152 -69 -18 -165 -43 -215 -56 -49 -13 -100 -24 -112 -24 -12 0 -61 -9 -110 -19 -48 -10 -131 -26 -183 -35 -52 -10 -122 -22 -155 -29 -82 -16 -438 -15 -540 2 -82 13 -282 54 -345 70 -230 58 -546 187 -727 297 -40 24 -75 44 -78 44 -21 0 -365 247 -365 262 0 4 -9 9 -20 13 -11 3 -92 78 -181 165 -129 126 -160 162 -155 178 4 13 1 22 -10 26 -13 5 -11 11 13 38 199 222 526 471 817 623 72 37 137 71 145 76 79 43 366 143 536 187 316 81 674 110 880 72z m-1920 -2539 c168 -21 357 -64 465 -106 243 -94 351 -146 510 -249 52 -33 100 -65 106 -71 7 -5 26 -21 44 -35 191 -148 277 -242 404 -435 164 -249 221 -348 341 -585 102 -204 124 -253 118 -263 -2 -4 -27 -19 -54 -32 l-49 -25 -26 57 c-14 32 -50 108 -80 169 -30 62 -54 115 -54 119 0 3 -13 25 -29 48 -15 23 -31 52 -35 65 -4 12 -12 22 -17 22 -5 0 -9 5 -9 11 0 10 -65 122 -153 264 -7 10 -39 58 -72 105 -33 47 -70 101 -82 120 -21 33 -74 90 -133 141 -106 92 -191 159 -225 179 -22 13 -56 36 -76 52 -37 28 -269 150 -344 180 -35 14 -93 33 -280 93 -22 7 -83 20 -135 29 -52 9 -117 21 -145 26 -27 5 -116 12 -197 16 l-146 6 -8 -48 c-8 -58 2 -325 16 -403 56 -314 103 -474 198 -671 60 -125 92 -182 155 -275 46 -67 188 -244 235 -290 31 -31 151 -121 262 -196 36 -24 71 -49 78 -56 8 -7 23 -18 35 -25 12 -6 65 -39 117 -73 52 -34 111 -70 130 -80 19 -10 37 -21 40 -24 7 -9 112 -65 228 -122 109 -54 117 -64 82 -109 -11 -14 -20 -31 -20 -37 0 -22 -26 -14 -127 38 -54 29 -116 61 -138 73 -22 11 -41 24 -43 28 -2 4 -7 8 -12 8 -31 0 -510 316 -623 410 -7 6 -30 24 -51 40 -124 95 -340 388 -441 597 -25 51 -45 100 -45 108 0 8 -4 15 -10 15 -5 0 -13 15 -19 33 -5 17 -23 72 -40 120 -84 238 -132 521 -130 777 1 193 9 256 30 252 9 -1 19 4 23 13 8 22 240 20 431 -4z m-3595 -6 c0 -8 9 -15 19 -15 16 0 21 -10 27 -47 9 -61 -2 -364 -16 -445 -60 -341 -121 -532 -251 -785 -40 -76 -75 -140 -78 -143 -4 -3 -18 -23 -31 -45 -33 -55 -121 -177 -140 -195 -9 -8 -21 -23 -26 -32 -15 -27 -171 -185 -202 -205 -15 -10 -31 -23 -37 -29 -8 -10 -131 -94 -319 -217 -10 -6 -29 -20 -41 -30 -13 -9 -25 -17 -28 -17 -3 0 -43 -22 -90 -50 -47 -27 -90 -50 -95 -50 -6 0 -12 -4 -14 -9 -6 -17 -389 -211 -416 -211 -9 0 -58 98 -51 103 2 2 60 32 129 66 171 86 331 174 405 221 17 11 44 27 60 36 34 18 311 205 395 265 71 51 118 95 155 144 16 21 39 51 52 65 59 67 103 122 103 129 0 4 8 16 18 27 38 40 176 288 213 382 5 12 13 32 18 45 104 251 161 536 161 803 0 105 -2 126 -16 131 -21 8 -360 -13 -444 -28 -151 -26 -406 -89 -442 -109 -10 -6 -23 -10 -28 -10 -6 0 -30 -9 -54 -19 -23 -11 -66 -29 -96 -41 -68 -27 -214 -102 -218 -112 -2 -4 -8 -8 -14 -8 -9 0 -126 -68 -138 -80 -3 -3 -27 -21 -55 -40 -61 -42 -69 -48 -107 -82 -17 -16 -34 -28 -38 -28 -10 0 -170 -157 -170 -167 0 -5 -9 -19 -19 -30 -11 -11 -52 -69 -93 -129 -40 -59 -94 -139 -120 -177 -27 -38 -48 -71 -48 -72 0 -5 -103 -181 -120 -205 -9 -14 -52 -97 -95 -185 -44 -88 -80 -161 -81 -163 -4 -6 -79 20 -97 33 -17 13 -16 19 34 122 29 59 55 110 58 113 3 3 19 31 34 64 31 64 138 245 236 396 62 97 70 109 131 191 19 26 42 58 50 70 55 82 154 182 276 279 55 44 178 130 185 130 5 0 20 9 33 21 32 28 199 115 381 200 46 21 297 98 380 117 246 55 362 69 608 71 142 1 167 -1 167 -14z m1748 -152 c74 -76 142 -147 152 -158 30 -36 115 -141 128 -161 7 -10 46 -67 88 -127 84 -121 214 -356 261 -472 7 -17 22 -52 34 -80 62 -144 143 -433 173 -615 58 -363 51 -500 -55 -995 -17 -77 -35 -162 -41 -190 -6 -27 -14 -61 -19 -75 -4 -14 -15 -56 -25 -95 -27 -116 -168 -551 -184 -568 -7 -8 -86 18 -104 34 -6 6 -1 29 12 61 21 54 87 256 117 363 10 33 23 80 31 105 7 25 16 63 20 85 4 22 10 45 14 50 4 6 10 24 13 40 4 17 15 73 26 125 102 476 114 572 101 773 -15 232 -55 451 -117 637 -8 25 -16 52 -18 60 -2 8 -13 40 -25 70 -12 30 -29 73 -37 95 -22 63 -156 335 -164 335 -4 0 -12 12 -18 28 -7 15 -17 36 -24 47 -30 51 -82 130 -88 135 -3 3 -12 17 -20 32 -15 28 -23 38 -154 196 -104 126 -224 252 -240 252 -15 0 -180 -161 -240 -233 -76 -91 -115 -142 -142 -182 -14 -22 -32 -46 -40 -53 -7 -7 -25 -34 -40 -60 -15 -26 -30 -49 -33 -52 -7 -5 -41 -61 -78 -125 -21 -37 -121 -242 -141 -290 -8 -19 -18 -44 -56 -145 -83 -216 -134 -467 -155 -760 -8 -108 -7 -158 6 -250 8 -63 18 -136 21 -162 3 -27 9 -48 13 -48 4 0 10 -24 13 -52 9 -93 18 -132 131 -588 15 -59 81 -272 95 -305 25 -59 60 -180 53 -186 -17 -15 -96 -39 -103 -32 -4 4 -19 42 -32 83 -14 41 -33 93 -43 115 -9 22 -20 54 -24 70 -4 17 -23 84 -43 150 -55 187 -76 268 -107 414 -26 126 -36 171 -75 366 -40 197 -43 380 -9 633 29 211 31 226 49 287 34 120 97 321 110 350 7 17 19 48 26 70 23 76 172 367 234 460 179 264 249 350 426 528 129 129 151 147 179 147 29 0 49 -17 168 -137z"/>
 <path d="M2 2938 l-2 -2938 5985 0 5985 0 -1 2893 c-1 1590 -6 2827 -10 2747 -4 -80 -22 -257 -40 -395 -17 -137 -33 -268 -36 -290 -3 -22 -9 -44 -14 -50 -5 -5 -9 -20 -9 -35 0 -44 -78 -375 -126 -535 -14 -50 -34 -117 -44 -150 -25 -86 -126 -366 -154 -428 -13 -28 -33 -78 -44 -109 -32 -87 -243 -510 -313 -628 -132 -222 -203 -336 -226 -361 -13 -14 -23 -28 -23 -31 0 -9 -111 -169 -132 -190 -10 -10 -18 -21 -18 -25 0 -5 -13 -21 -28 -38 -15 -16 -35 -43 -45 -58 -23 -36 -59 -80 -170 -209 -18 -20 -57 -65 -87 -100 -128 -148 -465 -473 -645 -623 -108 -90 -106 -88 -184 -145 -38 -28 -71 -54 -73 -58 -4 -8 -184 -132 -192 -132 -3 0 -16 -9 -28 -20 -37 -31 -276 -183 -384 -243 -170 -95 -516 -264 -681 -333 -129 -54 -413 -156 -528 -189 -33 -10 -78 -23 -100 -30 -100 -31 -533 -129 -640 -146 -27 -4 -81 -12 -120 -19 -505 -79 -1318 -80 -1785 0 -186 31 -261 46 -400 77 -354 79 -717 193 -957 299 -17 8 -34 14 -37 14 -18 0 -471 216 -546 259 -8 5 -49 28 -90 52 -41 23 -129 75 -196 116 -66 40 -126 73 -132 73 -7 0 -12 3 -12 8 0 4 -17 18 -38 32 -20 14 -41 29 -47 33 -5 4 -39 26 -75 49 -36 23 -67 44 -70 48 -3 3 -26 21 -52 40 -27 18 -48 36 -48 40 0 4 -10 12 -22 18 -24 11 -38 21 -157 120 -265 219 -555 500 -758 738 -88 103 -169 202 -198 243 -16 24 -46 62 -65 86 -19 23 -42 51 -50 61 -17 21 -74 107 -108 164 -12 19 -33 47 -47 62 -14 15 -25 30 -25 33 0 4 -26 50 -58 103 -136 226 -170 286 -253 452 -105 208 -189 389 -189 406 0 3 -6 20 -14 37 -77 170 -193 525 -261 796 -59 238 -69 289 -115 561 -25 149 -56 490 -63 710 -2 41 -4 -1247 -5 -2862z"/>
 </g>

</svg>